SplineFontDB: 3.0
FontName: Salsa-Regular
FullName: Salsa Regular
FamilyName: Salsa
Weight: Regular
Copyright: Copyright (c) 2011 by John Vargas Beltrn (john.vargasbeltran@gmail.com), with Reserved Font Name Salsa.
Version: 001.001
ItalicAngle: 0
UnderlinePosition: -50
UnderlineWidth: 50
Ascent: 800
Descent: 200
sfntRevision: 0x00010083
LayerCount: 2
Layer: 0 1 "Back"  1
Layer: 1 1 "Fore"  0
NeedsXUIDChange: 1
XUID: [1021 288 713564382 15237533]
FSType: 0
OS2Version: 2
OS2_WeightWidthSlopeOnly: 0
OS2_UseTypoMetrics: 1
CreationTime: 1318243873
ModificationTime: 1318254745
PfmFamily: 17
TTFWeight: 400
TTFWidth: 5
LineGap: 0
VLineGap: 0
Panose: 2 0 5 3 6 0 0 2 0 4
OS2TypoAscent: 174
OS2TypoAOffset: 1
OS2TypoDescent: -52
OS2TypoDOffset: 1
OS2TypoLinegap: 0
OS2WinAscent: 0
OS2WinAOffset: 1
OS2WinDescent: 0
OS2WinDOffset: 1
HheadAscent: 0
HheadAOffset: 1
HheadDescent: 0
HheadDOffset: 1
OS2SubXSize: 700
OS2SubYSize: 650
OS2SubXOff: 0
OS2SubYOff: 140
OS2SupXSize: 700
OS2SupYSize: 650
OS2SupXOff: 0
OS2SupYOff: 477
OS2StrikeYSize: 50
OS2StrikeYPos: 250
OS2Vendor: 'MYFO'
OS2CodePages: 20000111.40000000
OS2UnicodeRanges: 80000067.40000041.00000000.00000000
Lookup: 4 0 1 "'liga' Standard Ligatures in Latin lookup 0"  {"'liga' Standard Ligatures in Latin lookup 0 subtable"  } ['liga' ('latn' <'dflt' > ) ]
Lookup: 1 0 0 "'init' Initial Forms in Latin lookup 1"  {"'init' Initial Forms in Latin lookup 1 subtable"  } ['init' ('latn' <'dflt' > ) ]
Lookup: 1 0 0 "'fina' Terminal Forms in Latin lookup 2"  {"'fina' Terminal Forms in Latin lookup 2 subtable"  } ['fina' ('latn' <'dflt' > ) ]
Lookup: 1 0 0 "'swsh' Swash in Latin lookup 3"  {"'swsh' Swash in Latin lookup 3 subtable" ("swash" ) } ['swsh' ('latn' <'dflt' > ) ]

StartChar: h
Encoding: 104 104 1
Width: 583
Flags: HMW
HStem: -6 21G<440 482.5> 0 21G<106 144> 411 101<365 376> 730 20G<99 139>
VStem: 76 100<327 378.5 315 451> 76 121 383 121<56 219> 407 97
LayerCount: 2
Fore
SplineSet
514 404 m 1,0,-1
 504 184 l 1,1,2
 504 96 504 96 533 6 c 1,3,4
 502 -6 502 -6 470 -6 c 0,5,6
 383 -6 383 -6 383 86 c 0,7,8
 383 154 383 154 395 246 c 128,-1,9
 407 338 407 338 407 359 c 0,10,11
 407 411 407 411 360 411 c 0,12,13
 310 411 310 411 249 317.5 c 128,-1,14
 188 224 188 224 179 161 c 1,15,16
 181 132 181 132 199 12 c 1,17,18
 168 0 168 0 131 0 c 0,19,20
 54 0 54 0 54 75 c 0,21,22
 54 111 54 111 65 216.5 c 128,-1,23
 76 322 76 322 76 386 c 0,24,25
 76 599 76 599 52 738 c 1,26,27
 84 750 84 750 118 750 c 128,-1,28
 152 750 152 750 174.5 727.5 c 128,-1,29
 197 705 197 705 197 666 c 128,-1,30
 197 627 197 627 186.5 505 c 128,-1,31
 176 383 176 383 176 315 c 1,32,33
 211 389 211 389 278.5 450.5 c 128,-1,34
 346 512 346 512 413 512 c 0,35,36
 514 512 514 512 514 404 c 1,0,-1
EndSplineSet
EndChar

StartChar: l
Encoding: 108 108 2
Width: 269
Flags: HMW
HStem: 0 21G<117 155> 730 20G<110 150>
VStem: 65 122 87 100<327 392.5 277.5 451> 87 121
LayerCount: 2
Fore
SplineSet
63 738 m 1,0,1
 95 750 95 750 129 750 c 0,2,3
 163 750 163 750 185.5 727.5 c 128,-1,4
 208 705 208 705 208 666.5 c 0,5,6
 208 628 208 628 197.5 512.5 c 128,-1,7
 187 397 187 397 187 331 c 0,8,9
 187 168 187 168 210 12 c 1,10,11
 178 0 178 0 142 0 c 0,12,13
 65 0 65 0 65 75 c 0,14,15
 65 111 65 111 76 216.5 c 128,-1,16
 87 322 87 322 87 386 c 0,17,18
 87 599 87 599 63 738 c 1,0,1
EndSplineSet
EndChar

StartChar: g
Encoding: 103 103 3
Width: 552
Flags: HMW
HStem: -250 86<217.5 286 217.5 299.5> -250 199<109.5 299.5> 18 89<186.5 229.5> 427 85<274.5 306>
VStem: 30 123<220.5 269.5 220.5 293.5> 43 110 378 104 378 118<-47.5 23.5>
LayerCount: 2
Fore
SplineSet
392 411 m 1,0,1
 339 427 339 427 287 427 c 128,-1,2
 235 427 235 427 189 396 c 1,3,4
 153 324 153 324 153 243 c 0,5,6
 153 196 153 196 166 151.5 c 128,-1,7
 179 107 179 107 209 107 c 0,8,9
 243 107 243 107 300 204 c 128,-1,10
 357 301 357 301 392 411 c 1,0,1
242 -164 m 0,11,12
 306 -164 306 -164 342 -120 c 128,-1,13
 378 -76 378 -76 378 -7 c 0,14,15
 378 27 378 27 373.5 92 c 128,-1,16
 369 157 369 157 368 184 c 1,17,18
 297.463829787 59.7219858156 297.463829787 59.7219858156 244 32 c 0,19,20
 217 18 217 18 187 18 c 0,21,22
 112 18 112 18 71 77 c 128,-1,23
 30 136 30 136 30 221 c 0,24,25
 30 337 30 337 102.5 424.5 c 128,-1,26
 175 512 175 512 286.5 512 c 128,-1,27
 398 512 398 512 512 473 c 1,28,29
 482 366 482 366 482 263 c 0,30,31
 482 214 482 214 489 141.5 c 128,-1,32
 496 69 496 69 496 34 c 0,33,34
 496 -89 496 -89 418 -169.5 c 128,-1,35
 340 -250 340 -250 218 -250 c 0,36,37
 146 -250 146 -250 94.5 -222.5 c 128,-1,38
 43 -195 43 -195 43 -137 c 0,39,40
 43 -101 43 -101 70 -76 c 128,-1,41
 97 -51 97 -51 134 -51 c 0,42,43
 142 -51 142 -51 154 -53 c 1,44,45
 151 -66 151 -66 151 -76 c 0,46,47
 151 -112 151 -112 178 -138 c 128,-1,48
 205 -164 205 -164 242 -164 c 0,11,12
EndSplineSet
EndChar

StartChar: m
Encoding: 109 109 4
Width: 884
Flags: HMW
HStem: -6 21G<739.5 781.5> 0 21G<115.5 151> 411 101<673.5 681> 484 20G<364 439> 486 20G<109 146.5>
VStem: 60 124 78 126<249.5 452.5> 375 121<70.5 207> 397 99 685 121<58.5 225> 707 99
LayerCount: 2
Fore
SplineSet
816 404 m 1,0,-1
 806 190 l 1,1,2
 806 93 806 93 834 6 c 1,3,4
 806 -6 806 -6 770 -6 c 0,5,6
 685 -6 685 -6 685 89 c 0,7,8
 685 132 685 132 696 233.5 c 128,-1,9
 707 335 707 335 707 361 c 0,10,11
 707 411 707 411 666 411 c 0,12,13
 621 411 621 411 558.5 319 c 128,-1,14
 496 227 496 227 496 175 c 1,15,16
 501 96 501 96 524 18 c 1,17,18
 486 6 486 6 460 6 c 0,19,20
 375 6 375 6 375 101 c 0,21,22
 375 141 375 141 386 235 c 128,-1,23
 397 329 397 329 397 353 c 0,24,25
 397 403 397 403 352 403 c 0,26,27
 321 403 321 403 281 357 c 128,-1,28
 241 311 241 311 213.5 255.5 c 128,-1,29
 186 200 186 200 184 167 c 1,30,31
 189 81 189 81 204 12 c 1,32,33
 172 0 172 0 137.5 0 c 128,-1,34
 103 0 103 0 81.5 16.5 c 128,-1,35
 60 33 60 33 60 62.5 c 128,-1,36
 60 92 60 92 69 168.5 c 128,-1,37
 78 245 78 245 78 320.5 c 128,-1,38
 78 396 78 396 55 494 c 1,39,40
 87 506 87 506 123 506 c 128,-1,41
 159 506 159 506 181.5 485 c 128,-1,42
 204 464 204 464 204 429 c 0,43,44
 204 411 204 411 197 341 c 1,45,46
 234 407 234 407 291 455.5 c 128,-1,47
 348 504 348 504 405 504 c 0,48,49
 506 504 506 504 506 396 c 0,50,51
 506 369 506 369 503 336 c 1,52,53
 540 406 540 406 598.5 459 c 128,-1,54
 657 512 657 512 715 512 c 0,55,56
 816 512 816 512 816 404 c 1,0,-1
EndSplineSet
EndChar

StartChar: d
Encoding: 100 100 5
Width: 558
Flags: HMW
HStem: -6 89<186.5 234.5> 0 21G<415.5 457.5> 427 85<273 301.5 204.5 309.5> 730 20G<416 456>
VStem: 30 123<190.5 246 190.5 268.5> 376 117 391 102 391 122
LayerCount: 2
Fore
SplineSet
369 738 m 1,0,1
 401 750 401 750 435 750 c 128,-1,2
 469 750 469 750 491 727.5 c 128,-1,3
 513 705 513 705 513 671.5 c 128,-1,4
 513 638 513 638 503 513.5 c 128,-1,5
 493 389 493 389 493 268.5 c 128,-1,6
 493 148 493 148 517 12 c 1,7,8
 481 0 481 0 442 0 c 0,9,10
 376 0 376 0 376 93 c 0,11,12
 376 124 376 124 389 204 c 1,13,14
 346.5625 115.083333333 346.5625 115.083333333 314.28125 72.0416666667 c 128,-1,15
 282 29 282 29 251.5 11.5 c 128,-1,16
 221 -6 221 -6 187 -6 c 0,17,18
 111 -6 111 -6 70.5 50 c 128,-1,19
 30 106 30 106 30 188 c 128,-1,20
 30 270 30 270 59.5 342.5 c 128,-1,21
 89 415 89 415 148.5 463.5 c 128,-1,22
 208 512 208 512 275 512 c 128,-1,23
 342 512 342 512 391 494 c 1,24,25
 389 623 389 623 369 738 c 1,0,1
391 409 m 1,26,27
 342 427 342 427 285 427 c 128,-1,28
 228 427 228 427 187 394 c 1,29,30
 153 313 153 313 153 213 c 0,31,32
 153 167 153 167 166 125 c 128,-1,33
 179 83 179 83 209 83 c 0,34,35
 255 83 255 83 313.5 186 c 128,-1,36
 372 289 372 289 391 409 c 1,26,27
EndSplineSet
EndChar

StartChar: n
Encoding: 110 110 7
Width: 586
Flags: HMW
HStem: -6 21G<441.5 483.5> 0 21G<115.5 151> 411 101<373 379> 486 20G<109 146.5>
VStem: 60 124 78 126<249.5 452.5> 387 121<58.5 219> 409 99
LayerCount: 2
Fore
SplineSet
518 404 m 1,0,-1
 508 184 l 1,1,2
 508 93 508 93 536 6 c 1,3,4
 508 -6 508 -6 472 -6 c 0,5,6
 387 -6 387 -6 387 89 c 0,7,8
 387 132 387 132 398 233.5 c 128,-1,9
 409 335 409 335 409 361 c 0,10,11
 409 411 409 411 364 411 c 0,12,13
 331 411 331 411 289.5 363.5 c 128,-1,14
 248 316 248 316 218.5 257.5 c 128,-1,15
 189 199 189 199 184 161 c 1,16,17
 188 83 188 83 204 12 c 1,18,19
 172 0 172 0 137.5 0 c 128,-1,20
 103 0 103 0 81.5 16.5 c 128,-1,21
 60 33 60 33 60 62.5 c 128,-1,22
 60 92 60 92 69 168.5 c 128,-1,23
 78 245 78 245 78 320.5 c 128,-1,24
 78 396 78 396 55 494 c 1,25,26
 87 506 87 506 123 506 c 128,-1,27
 159 506 159 506 181.5 485 c 128,-1,28
 204 464 204 464 204 433 c 128,-1,29
 204 402 204 402 196 334 c 1,30,31
 234 405 234 405 295 458.5 c 128,-1,32
 356 512 356 512 417 512 c 0,33,34
 518 512 518 512 518 404 c 1,0,-1
EndSplineSet
EndChar

StartChar: b
Encoding: 98 98 8
Width: 564
Flags: HMW
HStem: -6 89<248.5 277.5 248.5 347> 423 89<359.5 383.5> 730 20G<106.5 144.5>
VStem: 58 146 75 102 411 123<254 309.5>
LayerCount: 2
Fore
SplineSet
52 35 m 1,0,1
 75 234 75 234 75 309 c 0,2,3
 75 519 75 519 58 738 c 1,4,5
 88 750 88 750 122 750 c 128,-1,6
 156 750 156 750 180 727 c 128,-1,7
 204 704 204 704 204 669 c 0,8,9
 204 609 204 609 192 477.5 c 128,-1,10
 180 346 180 346 177 302 c 1,11,12
 259.110429448 455.957055215 259.110429448 455.957055215 339.5 494.5 c 0,13,14
 376 512 376 512 417 512 c 0,15,16
 473 512 473 512 503.5 453 c 128,-1,17
 534 394 534 394 534 309 c 0,18,19
 534 173 534 173 460 83.5 c 128,-1,20
 386 -6 386 -6 268.5 -6 c 128,-1,21
 151 -6 151 -6 52 35 c 1,0,1
172 98 m 1,22,23
 212 83 212 83 267 83 c 128,-1,24
 322 83 322 83 362 104 c 1,25,26
 411 188 411 188 411 287 c 0,27,28
 411 334 411 334 400 378.5 c 128,-1,29
 389 423 389 423 365 423 c 0,30,31
 328 423 328 423 268 321 c 128,-1,32
 208 219 208 219 172 98 c 1,22,23
EndSplineSet
EndChar

StartChar: q
Encoding: 113 113 9
Width: 554
Flags: HMW
HStem: -250 21G<429.5 467.5> -6 89<186.5 232.5 186.5 234.5> 427 85<273 306>
VStem: 30 123<189.5 245 189.5 272.5> 370 119 387 102
LayerCount: 2
Fore
SplineSet
512 474 m 1,0,1
 489 275 489 275 489 191 c 0,2,3
 489 -20 489 -20 516 -238 c 1,4,5
 486 -250 486 -250 452 -250 c 128,-1,6
 418 -250 418 -250 394 -227 c 128,-1,7
 370 -204 370 -204 370 -169 c 0,8,9
 370 -109 370 -109 377.5 22 c 128,-1,10
 385 153 385 153 387 198 c 1,11,12
 319.693877551 49.9265306122 319.693877551 49.9265306122 251 11 c 0,13,14
 221 -6 221 -6 187 -6 c 0,15,16
 111 -6 111 -6 70.5 50 c 128,-1,17
 30 106 30 106 30 190 c 0,18,19
 30 320 30 320 102 416 c 128,-1,20
 174 512 174 512 295 512 c 128,-1,21
 416 512 416 512 512 474 c 1,0,1
392 411 m 1,22,23
 339 427 339 427 301.5 427 c 0,24,25
 226.857142857 427 226.857142857 427 188 395 c 1,26,27
 153 315 153 315 153 212 c 0,28,29
 153 166 153 166 166 124.5 c 128,-1,30
 179 83 179 83 209 83 c 0,31,32
 244 83 244 83 301 186 c 128,-1,33
 358 289 358 289 392 411 c 1,22,23
EndSplineSet
EndChar

StartChar: p
Encoding: 112 112 10
Width: 573
Flags: HMW
HStem: -249 21G<107 147> -6 89<271 280 250 366.5> 423 89<361 397.5> 486 20G<106 143.5>
VStem: 50 127 74 120 420 123<261 312.5>
LayerCount: 2
Fore
SplineSet
181 98 m 1,0,1
 222 83 222 83 276 83 c 0,2,3
 330 83 330 83 371 104 c 1,4,5
 420 188 420 188 420 305.5 c 0,6,7
 420 423 420 423 379 423 c 0,8,9
 328 423 328 423 264.5 320 c 128,-1,10
 201 217 201 217 181 98 c 1,0,1
181 303 m 1,11,12
 287 512 287 512 416 512 c 0,13,14
 484 512 484 512 513.5 456.5 c 128,-1,15
 543 401 543 401 543 316 c 0,16,17
 543 194 543 194 471 94 c 128,-1,18
 399 -6 399 -6 290 -6 c 0,19,20
 228 -6 228 -6 177 14 c 1,21,22
 179 -123 179 -123 194 -237 c 1,23,24
 162 -249 162 -249 128 -249 c 0,25,26
 94 -249 94 -249 72 -226.5 c 128,-1,27
 50 -204 50 -204 50 -158 c 0,28,29
 50 -112 50 -112 62 -1 c 128,-1,30
 74 110 74 110 74 173 c 0,31,32
 74 381 74 381 52 494 c 1,33,34
 84 506 84 506 119.5 506 c 0,35,36
 155 506 155 506 174.5 485.5 c 128,-1,37
 194 465 194 465 194 421.5 c 0,38,39
 194 378 194 378 181 303 c 1,11,12
EndSplineSet
EndChar

StartChar: P
Encoding: 80 80 11
Width: 591
Flags: HMW
HStem: 0 21G<131.5 169> 261 89<298 345.5 290.5 388> 627 89<281 339>
VStem: 66 136 86 116<332.5 422> 439 132<450.5 541>
LayerCount: 2
Fore
SplineSet
61 678 m 1,0,1
 173 716 173 716 293 716 c 0,2,3
 413 716 413 716 492 665 c 128,-1,4
 571 614 571 614 571 509 c 0,5,6
 571 404 571 404 497 332.5 c 128,-1,7
 423 261 423 261 319 261 c 0,8,9
 243 261 243 261 243 319 c 0,10,11
 243 337 243 337 250 357 c 1,12,13
 277 350 277 350 299 350 c 0,14,15
 368 350 368 350 403.5 388 c 128,-1,16
 439 426 439 426 439 493.5 c 0,17,18
 439 561 439 561 401 594 c 128,-1,19
 363 627 363 627 295 627 c 0,20,21
 260 627 260 627 210 615 c 1,22,23
 202 492 202 492 202 397 c 0,24,25
 202 131 202 131 223 12 c 1,26,27
 191 0 191 0 155 0 c 128,-1,28
 119 0 119 0 92.5 23 c 128,-1,29
 66 46 66 46 66 84 c 0,30,31
 66 122 66 122 76 216.5 c 128,-1,32
 86 311 86 311 86 368 c 0,33,34
 86 542 86 542 61 678 c 1,0,1
EndSplineSet
Substitution2: "'init' Initial Forms in Latin lookup 1 subtable" P.ini
EndChar

StartChar: u
Encoding: 117 117 12
Width: 552
Flags: HMW
HStem: -6 101<202 204> 0 21G<411.5 446.5> 486 20G<97.5 139.5 410 444.5>
VStem: 73 99<130 342> 73 121<276.5 447.5> 375 109 375 127
LayerCount: 2
Fore
SplineSet
63 102 m 1,0,-1
 73 310 l 1,1,2
 73 407 73 407 45 494 c 1,3,4
 73 506 73 506 113.5 506 c 0,5,6
 194 506 194 506 194 417 c 0,7,8
 194 367 194 367 183 276.5 c 128,-1,9
 172 186 172 186 172 145 c 0,10,11
 172 95 172 95 217 95 c 0,12,13
 244 95 244 95 280.5 140.5 c 128,-1,14
 317 186 317 186 343.5 242.5 c 128,-1,15
 370 299 370 299 375 335 c 1,16,17
 369 445 369 445 358 494 c 1,18,19
 390 506 390 506 423.5 506 c 128,-1,20
 457 506 457 506 479.5 485 c 128,-1,21
 502 464 502 464 502 433 c 128,-1,22
 502 402 502 402 493 330 c 128,-1,23
 484 258 484 258 484 179.5 c 128,-1,24
 484 101 484 101 502 12 c 1,25,26
 463 0 463 0 431.5 0 c 0,27,28
 370 0 370 0 370 82 c 0,29,30
 370 118 370 118 378 182 c 1,31,32
 338 97 338 97 280.5 45.5 c 128,-1,33
 223 -6 223 -6 164 -6 c 0,34,35
 63 -6 63 -6 63 102 c 1,0,-1
EndSplineSet
EndChar

StartChar: r
Encoding: 114 114 13
Width: 457
Flags: HMW
HStem: 0 21G<110.5 146> 332 180<373 400.5 340.5 404.5> 401 111<279.5 400.5> 486 20G<97 131.5>
VStem: 55 124 73 106 342 114<356 446.5>
LayerCount: 2
Fore
SplineSet
133 0 m 128,-1,1
 98 0 98 0 76.5 16.5 c 128,-1,2
 55 33 55 33 55 62.5 c 0,3,4
 55 92 55 92 64 170 c 128,-1,5
 73 248 73 248 73 321.5 c 0,6,7
 73 395 73 395 50 494 c 1,8,9
 82 506 82 506 113 506 c 0,10,11
 144 506 144 506 166.5 485 c 128,-1,12
 189 464 189 464 189 429 c 0,13,14
 189 411 189 411 183 375.5 c 128,-1,15
 177 340 177 340 176 322 c 1,16,17
 215 411 215 411 268.5 461.5 c 128,-1,18
 322 512 322 512 375 512 c 0,19,20
 412 512 412 512 434 486 c 128,-1,21
 456 460 456 460 456 420.5 c 0,22,23
 456 381 456 381 436 356.5 c 128,-1,24
 416 332 416 332 386.5 332 c 0,25,26
 357 332 357 332 339 338 c 1,27,28
 342 350 342 350 342 360 c 0,29,30
 342 401 342 401 313 401 c 0,31,32
 269 401 269 401 230.5 312.5 c 128,-1,33
 192 224 192 224 179 147 c 1,34,35
 184 72 184 72 199 12 c 1,36,0
 168 0 168 0 133 0 c 128,-1,1
EndSplineSet
EndChar

StartChar: c
Encoding: 99 99 14
Width: 496
Flags: HMW
HStem: -12 88<219.5 297> 319 199<213.5 384.5> 430 88<249.5 295>
VStem: 30 123<177.5 248.5 177.5 292.5> 344 116 376 84<88 198>
LayerCount: 2
Fore
SplineSet
251 -12 m 0,0,1
 144 -12 144 -12 87 45 c 128,-1,2
 30 102 30 102 30 209 c 0,3,4
 30 339 30 339 103 428.5 c 128,-1,5
 176 518 176 518 297 518 c 0,6,7
 366 518 366 518 409 490.5 c 128,-1,8
 452 463 452 463 452 409 c 0,9,10
 452 374 452 374 424 346.5 c 128,-1,11
 396 319 396 319 361 319 c 0,12,13
 353 319 353 319 341 321 c 1,14,15
 344 334 344 334 344 344 c 0,16,17
 344 380 344 380 325 405 c 128,-1,18
 306 430 306 430 262 430 c 0,19,20
 218 430 218 430 180 394 c 1,21,22
 153 324 153 324 153 219 c 0,23,24
 153 76 153 76 261 76 c 0,25,26
 319 76 319 76 347.5 113.5 c 128,-1,27
 376 151 376 151 376 198 c 1,28,29
 410 198 410 198 435 181 c 128,-1,30
 460 164 460 164 460 134 c 0,31,32
 460 69 460 69 393.5 28.5 c 128,-1,33
 327 -12 327 -12 251 -12 c 0,0,1
EndSplineSet
EndChar

StartChar: e
Encoding: 101 101 15
Width: 486
Flags: HMW
HStem: -12 84<204.5 280> -12 209<158 378> 223 77<198.5 227.5 195 269> 436 82<228.5 268.5>
VStem: 20 122<184.5 227 184.5 310> 333 111<360 389.5> 357 87
LayerCount: 2
Fore
SplineSet
142 227 m 1,0,1
 142 155 142 155 165 113.5 c 128,-1,2
 188 72 188 72 242 72 c 0,3,4
 296 72 296 72 326.5 108.5 c 128,-1,5
 357 145 357 145 357 197 c 1,6,7
 391 197 391 197 416 180 c 128,-1,8
 441 163 441 163 441 133 c 0,9,10
 441 71 441 71 375 29.5 c 128,-1,11
 309 -12 309 -12 236 -12 c 0,12,13
 122 -12 122 -12 71 49.5 c 128,-1,14
 20 111 20 111 20 232 c 128,-1,15
 20 353 20 353 88.5 435.5 c 128,-1,16
 157 518 157 518 271 518 c 0,17,18
 349 518 349 518 396.5 482.5 c 128,-1,19
 444 447 444 447 444 372.5 c 0,20,21
 444 298 444 298 376.5 260.5 c 128,-1,22
 309 223 309 223 212 223 c 0,23,24
 178 223 178 223 142 227 c 1,0,1
143 306 m 1,25,26
 173 300 173 300 206 300 c 0,27,28
 278 300 278 300 327 327 c 1,29,30
 333 351 333 351 333 365 c 0,31,32
 333 400 333 400 308 418 c 128,-1,33
 283 436 283 436 239.5 436 c 0,34,35
 196 436 196 436 161 408 c 1,36,37
 143 356 143 356 143 306 c 1,25,26
EndSplineSet
EndChar

StartChar: i
Encoding: 105 105 16
Width: 255
Flags: HMW
HStem: 0 21G<109 144> 486 20G<106 140.5> 584 155<129 148.5>
VStem: 54 124<43 245.5> 78 121<242.5 455.5>
LayerCount: 2
Fore
SplineSet
56 497 m 1,0,1
 88 506 88 506 120.5 506 c 0,2,3
 153 506 153 506 176 486 c 128,-1,4
 199 466 199 466 199 434.5 c 0,5,6
 199 403 199 403 188.5 325.5 c 128,-1,7
 178 248 178 248 178 205 c 0,8,9
 178 93 178 93 199 12 c 1,10,11
 168 0 168 0 132 0 c 0,12,13
 96 0 96 0 75 16.5 c 128,-1,14
 54 33 54 33 54 64.5 c 0,15,16
 54 96 54 96 66 168 c 128,-1,17
 78 240 78 240 78 287 c 0,18,19
 78 412 78 412 56 497 c 1,0,1
69 723 m 1,20,21
 104 739 104 739 138 739 c 0,22,23
 172 739 172 739 188.5 721.5 c 128,-1,24
 205 704 205 704 205 670 c 0,25,26
 205 636 205 636 182.5 610 c 128,-1,27
 160 584 160 584 124 584 c 0,28,29
 50 584 50 584 50 661 c 0,30,31
 50 695 50 695 69 723 c 1,20,21
EndSplineSet
EndChar

StartChar: j
Encoding: 106 106 17
Width: 258
Flags: HMW
HStem: -250 86<-28 31.5 -28 43> -250 175<-100 43> 486 20G<109 145.5> 584 155<123 142.5>
VStem: -168 108<-188 -95.5> 44 155<649.5 672> 85 99
LayerCount: 2
Fore
SplineSet
63 723 m 1,0,1
 98 739 98 739 132 739 c 128,-1,2
 166 739 166 739 182.5 721.5 c 128,-1,3
 199 704 199 704 199 670 c 128,-1,4
 199 636 199 636 176.5 610 c 128,-1,5
 154 584 154 584 118 584 c 0,6,7
 44 584 44 584 44 661 c 0,8,9
 44 695 44 695 63 723 c 1,0,1
-57 -77 m 1,10,11
 -60 -91 -60 -91 -60 -100 c 0,12,13
 -60 -164 -60 -164 -10 -164 c 0,14,15
 19 -164 19 -164 39.5 -128.5 c 128,-1,16
 60 -93 60 -93 69 -38 c 0,17,18
 85 59.7777777778 85 59.7777777778 85 147 c 0,19,20
 85 317 85 317 48 487 c 1,21,22
 79 506 79 506 118.5 506 c 128,-1,23
 158 506 158 506 180.5 485 c 128,-1,24
 203 464 203 464 203 429 c 0,25,26
 203 283 203 283 184 44 c 0,27,28
 167.36875246 -168.879968516 167.36875246 -168.879968516 62.5 -227 c 0,29,30
 21 -250 21 -250 -34.5 -250 c 128,-1,31
 -90 -250 -90 -250 -129 -225.5 c 128,-1,32
 -168 -201 -168 -201 -168 -161 c 128,-1,33
 -168 -121 -168 -121 -140.5 -98 c 128,-1,34
 -113 -75 -113 -75 -77 -75 c 0,35,36
 -69 -75 -69 -75 -57 -77 c 1,10,11
EndSplineSet
EndChar

StartChar: o
Encoding: 111 111 18
Width: 515
Flags: HMW
HStem: -12 85<208 303 208 307.5> 433 85<244 308.5>
VStem: 20 124<227 304 227 306.5> 364 124<191.5 265.5>
LayerCount: 2
Fore
SplineSet
72 52.5 m 128,-1,1
 20 117 20 117 20 232.5 c 128,-1,2
 20 348 20 348 89 433 c 128,-1,3
 158 518 158 518 266 518 c 0,4,5
 488 518 488 518 488 268 c 0,6,7
 488 151 488 151 416 69.5 c 128,-1,8
 344 -12 344 -12 234 -12 c 128,-1,0
 124 -12 124 -12 72 52.5 c 128,-1,1
162 408 m 1,9,10
 144 350 144 350 144 292 c 128,-1,11
 144 234 144 234 148 202 c 128,-1,12
 152 170 152 170 163 138.5 c 0,13,14
 185.873015873 73 185.873015873 73 253.436507937 73 c 128,-1,15
 321 73 321 73 342.5 109 c 128,-1,16
 364 145 364 145 364 220 c 0,17,18
 364 433 364 433 263 433 c 0,19,20
 205 433 205 433 162 408 c 1,9,10
EndSplineSet
EndChar

StartChar: a
Encoding: 97 97 19
Width: 545
Flags: HMW
HStem: -6 89<178.5 224.5 178.5 225> 0 21G<408.5 449.5> 427 85<259.5 291>
VStem: 20 122<200.5 254 200.5 271.5> 366 116<63.5 278.5>
LayerCount: 2
Fore
SplineSet
509 471 m 1,0,1
 482 355.5 482 355.5 482 240.25 c 128,-1,2
 482 125 482 125 508 12 c 1,3,4
 472 0 472 0 434 0 c 128,-1,5
 396 0 396 0 381 22.5 c 128,-1,6
 366 45 366 45 366 87.5 c 128,-1,7
 366 130 366 130 379 204 c 1,8,9
 308.161290323 51.6967741935 308.161290323 51.6967741935 242 12 c 0,10,11
 212 -6 212 -6 180 -6 c 0,12,13
 104 -6 104 -6 62 50.5 c 128,-1,14
 20 107 20 107 20 191 c 0,15,16
 20 319 20 319 91 415.5 c 128,-1,17
 162 512 162 512 275.5 512 c 128,-1,18
 389 512 389 512 509 471 c 1,0,1
378 411 m 1,19,20
 325 427 325 427 288 427 c 0,21,22
 213.4 427 213.4 427 176 394 c 1,23,24
 142 310 142 310 142 223 c 0,25,26
 142 177 142 177 156.5 130 c 128,-1,27
 171 83 171 83 201 83 c 0,28,29
 236 83 236 83 291 186 c 128,-1,30
 346 289 346 289 378 411 c 1,19,20
EndSplineSet
EndChar

StartChar: k
Encoding: 107 107 20
Width: 550
Flags: HMW
HStem: -6 21G<420.5 492> 0 21G<106 144> 414 98<370 379> 730 20G<99 139>
VStem: 76 100<327 378.5 315 451> 76 121 395 126<367.5 384.5>
LayerCount: 2
Fore
SplineSet
176 315 m 1,0,1
 211 389 211 389 280.5 450.5 c 128,-1,2
 350 512 350 512 421 512 c 0,3,4
 521 512 521 512 521 406 c 0,5,6
 521 352 521 352 471.5 290.5 c 128,-1,7
 422 229 422 229 361 193 c 1,8,9
 389 144 389 144 430.5 118.5 c 128,-1,10
 472 93 472 93 540 78 c 1,11,12
 540 39 540 39 521.5 16.5 c 128,-1,13
 503 -6 503 -6 469 -6 c 0,14,15
 401 -6 401 -6 336 59.5 c 128,-1,16
 271 125 271 125 238 206 c 1,17,18
 302 238 302 238 348.5 282 c 128,-1,19
 395 326 395 326 395 370 c 0,20,21
 395 414 395 414 368 414 c 0,22,23
 316 414 316 414 252.5 319 c 128,-1,24
 189 224 189 224 179 161 c 1,25,26
 181 132 181 132 199 12 c 1,27,28
 168 0 168 0 131 0 c 0,29,30
 54 0 54 0 54 75 c 0,31,32
 54 111 54 111 65 216.5 c 128,-1,33
 76 322 76 322 76 386 c 0,34,35
 76 599 76 599 52 738 c 1,36,37
 84 750 84 750 118 750 c 0,38,39
 152 750 152 750 174.5 727.5 c 128,-1,40
 197 705 197 705 197 666 c 128,-1,41
 197 627 197 627 186.5 505 c 128,-1,42
 176 383 176 383 176 315 c 1,0,1
EndSplineSet
EndChar

StartChar: s
Encoding: 115 115 21
Width: 455
Flags: HMW
HStem: -12 86<201.5 253 201.5 258> -12 196<96.5 258> 349 169<217 360.5> 433 85<230 262.5>
VStem: 30 108<61 163.5> 30 127 325 102 325 115<114 191>
LayerCount: 2
Fore
SplineSet
141 182 m 1,0,1
 138 168 138 168 138 159 c 0,2,3
 138 118 138 118 162.5 96 c 128,-1,4
 187 74 187 74 228.5 74 c 128,-1,5
 270 74 270 74 297.5 89.5 c 128,-1,6
 325 105 325 105 325 136 c 128,-1,7
 325 167 325 167 295.5 185.5 c 128,-1,8
 266 204 266 204 224.5 215 c 128,-1,9
 183 226 183 226 141 239.5 c 128,-1,10
 99 253 99 253 69.5 282 c 128,-1,11
 40 311 40 311 40 355 c 0,12,13
 40 424 40 424 113 471 c 128,-1,14
 186 518 186 518 266 518 c 0,15,16
 353.714285714 518 353.714285714 518 400 482 c 0,17,18
 427 461 427 461 427 426.5 c 128,-1,19
 427 392 427 392 400.5 370.5 c 128,-1,20
 374 349 374 349 336 349 c 0,21,22
 328 349 328 349 316 351 c 1,23,24
 319 364 319 364 319 374 c 0,25,26
 319 403 319 403 297 418 c 128,-1,27
 275 433 275 433 237.5 433 c 128,-1,28
 200 433 200 433 169 418 c 1,29,30
 157 402 157 402 157 377 c 128,-1,31
 157 352 157 352 186 336.5 c 128,-1,32
 215 321 215 321 256.5 309.5 c 128,-1,33
 298 298 298 298 340 283.5 c 128,-1,34
 382 269 382 269 411 238.5 c 128,-1,35
 440 208 440 208 440 162 c 0,36,37
 440 87 440 87 365.5 37.5 c 128,-1,38
 291 -12 291 -12 212 -12 c 128,-1,39
 133 -12 133 -12 81.5 16.5 c 128,-1,40
 30 45 30 45 30 103 c 0,41,42
 30 139 30 139 56.5 161.5 c 128,-1,43
 83 184 83 184 121 184 c 0,44,45
 129 184 129 184 141 182 c 1,0,1
EndSplineSet
EndChar

StartChar: y
Encoding: 121 121 22
Width: 552
Flags: HMW
HStem: -250 86<203.5 279 203.5 334> -250 199<124.5 334> 8 92<194.5 224.5> 486 20G<97.5 139.5 410 444.5>
VStem: 58 108<-173.5 -71.5> 73 93 73 121<287 447.5> 377 125<136 452.5>
LayerCount: 2
Fore
SplineSet
63 166 m 1,0,-1
 73 310 l 1,1,2
 73 407 73 407 45 494 c 1,3,4
 73 506 73 506 113.5 506 c 0,5,6
 194 506 194 506 194 417 c 0,7,8
 194 377 194 377 183 304 c 128,-1,9
 172 231 172 231 172 203.5 c 128,-1,10
 172 176 172 176 173 163.5 c 128,-1,11
 174 151 174 151 177.5 133.5 c 0,12,13
 184.2 100 184.2 100 217.6 100 c 128,-1,14
 251 100 251 100 289.5 153.5 c 128,-1,15
 328 207 328 207 351.5 272 c 128,-1,16
 375 337 375 337 375 375 c 1,17,18
 370 454 370 454 358 494 c 1,19,20
 390 506 390 506 423.5 506 c 128,-1,21
 457 506 457 506 479.5 485 c 128,-1,22
 502 464 502 464 502 429 c 0,23,24
 502 -116.611111111 502 -116.611111111 302 -225.5 c 0,25,26
 257 -250 257 -250 200 -250 c 128,-1,27
 143 -250 143 -250 100.5 -220 c 128,-1,28
 58 -190 58 -190 58 -136 c 0,29,30
 58 -100 58 -100 85 -75.5 c 128,-1,31
 112 -51 112 -51 149 -51 c 0,32,33
 157 -51 157 -51 169 -53 c 1,34,35
 166 -66 166 -66 166 -76 c 0,36,37
 166 -164 166 -164 227 -164 c 0,38,39
 264 -164 264 -164 294 -124 c 128,-1,40
 324 -84 324 -84 341.5 -26 c 0,41,42
 377 91.6571428571 377 91.6571428571 377 188 c 1,43,44
 347 107 347 107 295.5 57.5 c 128,-1,45
 244 8 244 8 184 8 c 0,46,47
 63 8 63 8 63 166 c 1,0,-1
EndSplineSet
EndChar

StartChar: z
Encoding: 122 122 23
Width: 441
Flags: HMW
HStem: -6 104<227 363> 9 89<125 269> 390 113 480 20G<174 231.5> 495 20G
LayerCount: 2
Fore
SplineSet
205 500 m 1,0,-1
 354 503 l 2,1,2
 389 503 389 503 405 489 c 128,-1,3
 421 475 421 475 421 445.5 c 128,-1,4
 421 416 421 416 387.5 375 c 128,-1,5
 354 334 354 334 310.5 295.5 c 128,-1,6
 267 257 267 257 220.5 203 c 128,-1,7
 174 149 174 149 154 104 c 1,8,9
 190 98 190 98 241 98 c 0,10,11
 355 98 355 98 408 129 c 1,12,13
 421 103 421 103 421 70 c 128,-1,14
 421 37 421 37 398 15.5 c 128,-1,15
 375 -6 375 -6 341.5 -6 c 128,-1,16
 308 -6 308 -6 240.5 1.5 c 128,-1,17
 173 9 173 9 136 9 c 128,-1,18
 99 9 99 9 27 0 c 1,19,20
 15 20 15 20 15 47 c 0,21,22
 15 92 15 92 75 165.5 c 128,-1,23
 135 239 135 239 209 314.5 c 128,-1,24
 283 390 283 390 300 423 c 1,25,26
 285 420 285 420 252 412.5 c 128,-1,27
 219 405 219 405 200.5 401 c 0,28,29
 149.625 390 149.625 390 107.8125 390 c 128,-1,30
 66 390 66 390 43.5 408.5 c 128,-1,31
 21 427 21 427 21 461.5 c 128,-1,32
 21 496 21 496 34 515 c 1,33,34
 98 500 98 500 205 500 c 1,0,-1
EndSplineSet
EndChar

StartChar: B
Encoding: 66 66 24
Width: 636
Flags: HMW
HStem: -6 94<290.5 347 290.5 368> 627 89<288 335>
VStem: 91 116<287.5 442> 414 132<522.5 569> 464 82 464 132<177.5 265.5>
LayerCount: 2
Fore
SplineSet
66 678 m 1,0,1
 210 716 210 716 317 716 c 0,2,3
 546 716 546 716 546 557 c 0,4,5
 546 460 546 460 455 409 c 1,6,7
 516 394 516 394 556 351.5 c 128,-1,8
 596 309 596 309 596 245 c 0,9,10
 596 125 596 125 507 59.5 c 128,-1,11
 418 -6 418 -6 287 -6 c 128,-1,12
 156 -6 156 -6 60 46 c 1,13,14
 91 154 91 154 91 337.5 c 128,-1,15
 91 521 91 521 66 678 c 1,0,1
217 102 m 1,16,17
 261 88 261 88 305 88 c 0,18,19
 374 88 374 88 419 122.5 c 128,-1,20
 464 157 464 157 464 220 c 0,21,22
 464 340 464 340 334 340 c 0,23,24
 272 340 272 340 208 314 c 1,25,26
 208 213 208 213 217 102 c 1,16,17
207 402 m 1,27,28
 221 405 221 405 248.5 409 c 128,-1,29
 276 413 276 413 291 416 c 128,-1,30
 306 419 306 419 328.5 425 c 128,-1,31
 351 431 351 431 363.5 439.5 c 128,-1,32
 376 448 376 448 389 461 c 0,33,34
 414 486 414 486 414 534.5 c 0,35,36
 414 627 414 627 303 627 c 0,37,38
 267 627 267 627 215 615 c 1,39,40
 207 410 207 410 207 402 c 1,27,28
EndSplineSet
Substitution2: "'swsh' Swash in Latin lookup 3 subtable" B.swash
Substitution2: "'init' Initial Forms in Latin lookup 1 subtable" B.ini
EndChar

StartChar: D
Encoding: 68 68 25
Width: 656
Flags: HMW
HStem: -6 94<296 380 296 390> 627 89<295 376.5>
VStem: 91 115<345.5 415.5> 494 132<297 434.5>
LayerCount: 2
Fore
SplineSet
60 45 m 1,0,1
 91 194 91 194 91 354 c 128,-1,2
 91 514 91 514 66 678 c 1,3,4
 202 716 202 716 307 716 c 0,5,6
 463 716 463 716 544.5 634.5 c 128,-1,7
 626 553 626 553 626 387 c 128,-1,8
 626 221 626 221 533.5 107.5 c 128,-1,9
 441 -6 441 -6 277 -6 c 0,10,11
 165 -6 165 -6 60 45 c 1,0,1
215 615 m 1,12,13
 206 493 206 493 206 378.5 c 128,-1,14
 206 264 206 264 217 102 c 1,15,16
 258 88 258 88 309 88 c 128,-1,17
 360 88 360 88 397.5 111.5 c 128,-1,18
 435 135 435 135 455 175.5 c 0,19,20
 494 254.475 494 254.475 494 367 c 0,21,22
 494 475.581395349 494 475.581395349 452.5 547 c 0,23,24
 406.013513514 627 406.013513514 627 309 627 c 0,25,26
 256 627 256 627 215 615 c 1,12,13
EndSplineSet
Substitution2: "'init' Initial Forms in Latin lookup 1 subtable" D.ini
EndChar

StartChar: O
Encoding: 79 79 26
Width: 692
Flags: HMW
HStem: -12 94<289 423 289 426.5> 630 92<309 403>
VStem: 30 132<269 382 269 436.5> 530 132<303 437>
LayerCount: 2
Fore
SplineSet
530 364 m 0,0,1
 530 483 530 483 481.5 556.5 c 128,-1,2
 433 630 433 630 330 630 c 0,3,4
 268 630 268 630 220 590 c 1,5,6
 193 548 193 548 177.5 477 c 128,-1,7
 162 406 162 406 162 342 c 0,8,9
 162 224 162 224 210 153 c 128,-1,10
 258 82 258 82 362 82 c 0,11,12
 419 82 419 82 459 128.5 c 0,13,14
 530 211.0375 530 211.0375 530 364 c 0,0,1
106 84.5 m 128,-1,16
 30 181 30 181 30 337.5 c 128,-1,17
 30 494 30 494 124 608 c 128,-1,18
 218 722 218 722 363.5 722 c 128,-1,19
 509 722 509 722 585.5 624 c 128,-1,20
 662 526 662 526 662 369 c 128,-1,21
 662 212 662 212 568 100 c 128,-1,22
 474 -12 474 -12 328 -12 c 128,-1,15
 182 -12 182 -12 106 84.5 c 128,-1,16
EndSplineSet
Substitution2: "'swsh' Swash in Latin lookup 3 subtable" O.swash
EndChar

StartChar: I
Encoding: 73 73 27
Width: 278
Flags: HMW
HStem: 0 21G<126.5 164> 690 20G<114 151.5>
VStem: 61 136<57.5 353.5> 81 116<237.5 472.5> 81 136<356.5 652.5>
LayerCount: 2
Fore
SplineSet
218 12 m 1,0,1
 186 0 186 0 150 0 c 128,-1,2
 114 0 114 0 87.5 23 c 128,-1,3
 61 46 61 46 61 86 c 0,4,5
 61 126 61 126 71 239.5 c 128,-1,6
 81 353 81 353 81 421 c 0,7,8
 81 596 81 596 60 698 c 1,9,10
 92 710 92 710 128 710 c 128,-1,11
 164 710 164 710 190.5 687 c 128,-1,12
 217 664 217 664 217 624 c 0,13,14
 217 584 217 584 207 470.5 c 128,-1,15
 197 357 197 357 197 289 c 0,16,17
 197 114 197 114 218 12 c 1,0,1
EndSplineSet
Substitution2: "'swsh' Swash in Latin lookup 3 subtable" I.swash
EndChar

StartChar: H
Encoding: 72 72 28
Width: 688
Flags: HMW
HStem: -6 21G<536.5 574> 0 21G<126.5 164> 327 94<197 358> 690 20G<114 151.5> 696 20G<524 561.5>
VStem: 61 136<57.5 301> 81 116<252.5 472.5> 81 136<356.5 652.5> 471 136 491 136<429 658.5>
LayerCount: 2
Fore
SplineSet
218 12 m 1,0,1
 186 0 186 0 150 0 c 128,-1,2
 114 0 114 0 87.5 23 c 128,-1,3
 61 46 61 46 61 86 c 0,4,5
 61 126 61 126 71 239.5 c 128,-1,6
 81 353 81 353 81 421 c 0,7,8
 81 596 81 596 60 698 c 1,9,10
 92 710 92 710 128 710 c 128,-1,11
 164 710 164 710 190.5 687 c 128,-1,12
 217 664 217 664 217 630.5 c 0,13,14
 217 597 217 597 214.5 566 c 128,-1,15
 212 535 212 535 208 495 c 128,-1,16
 204 455 204 455 202 425 c 1,17,18
 242 421 242 421 340 421 c 0,19,20
 438 421 438 421 491 429 c 1,21,22
 491 588 491 588 470 704 c 1,23,24
 502 716 502 716 538 716 c 128,-1,25
 574 716 574 716 600.5 693 c 128,-1,26
 627 670 627 670 627 629.5 c 0,27,28
 627 589 627 589 617 486 c 128,-1,29
 607 383 607 383 607 321 c 0,30,31
 607 125 607 125 628 6 c 1,32,33
 596 -6 596 -6 560 -6 c 128,-1,34
 524 -6 524 -6 497.5 17 c 128,-1,35
 471 40 471 40 471 78 c 0,36,37
 471 116 471 116 479 202 c 128,-1,38
 487 288 487 288 489 320 c 1,39,40
 391 327 391 327 197 327 c 1,41,-1
 197 301 l 2,42,43
 197 124 197 124 218 12 c 1,0,1
EndSplineSet
Substitution2: "'swsh' Swash in Latin lookup 3 subtable" H.swash
Substitution2: "'fina' Terminal Forms in Latin lookup 2 subtable" H.end
Substitution2: "'init' Initial Forms in Latin lookup 1 subtable" H.ini
EndChar

StartChar: E
Encoding: 69 69 29
Width: 553
Flags: HMW
HStem: -6 100<266 464.5> 6 88 305 111<303 411.5> 330 86<197 353> 592 112 612 92<207 243> 702 20G
VStem: 64 133 81 116<290 478.5>
LayerCount: 2
Fore
SplineSet
511 138 m 1,0,1
 523 111 523 111 523 77 c 128,-1,2
 523 43 523 43 499.5 18.5 c 128,-1,3
 476 -6 476 -6 442 -6 c 0,4,5
 336 -6 336 -6 110 6 c 0,6,7
 92 7 92 7 78 17.5 c 128,-1,8
 64 28 64 28 64 44 c 0,9,10
 64 97 64 97 72.5 223 c 128,-1,11
 81 349 81 349 81 458.5 c 0,12,13
 81 568 81 568 60 710 c 1,14,15
 134 704 134 704 259 704 c 0,16,17
 384 704 384 704 498 722 c 1,18,19
 510 700 510 700 510 669.5 c 0,20,21
 510 639 510 639 486.5 615.5 c 128,-1,22
 463 592 463 592 428.5 592 c 0,23,24
 394 592 394 592 318.5 602 c 128,-1,25
 243 612 243 612 207 612 c 1,26,27
 199 511 199 511 198 422 c 1,28,29
 261 416 261 416 333.5 416 c 0,30,31
 406 416 406 416 458 437 c 1,32,33
 470 415 470 415 470 384.5 c 0,34,35
 470 354 470 354 446.5 329.5 c 128,-1,36
 423 305 423 305 390.5 305 c 0,37,38
 358 305 358 305 294 317.5 c 128,-1,39
 230 330 230 330 197 330 c 1,40,41
 197 172 197 172 204 98 c 1,42,43
 252 94 252 94 279 94 c 0,44,45
 411 94 411 94 511 138 c 1,0,1
EndSplineSet
Substitution2: "'init' Initial Forms in Latin lookup 1 subtable" E.ini
EndChar

StartChar: F
Encoding: 70 70 30
Width: 525
Flags: HMW
HStem: 0 21G<126.5 164> 295 111<294.5 401.5> 320 86<197 343> 592 112 612 92<207 243> 702 20G
VStem: 61 136 81 116<270 478.5>
LayerCount: 2
Fore
SplineSet
197 320 m 1,0,1
 197 127 197 127 218 12 c 1,2,3
 186 0 186 0 150 0 c 128,-1,4
 114 0 114 0 87.5 23 c 128,-1,5
 61 46 61 46 61 86.5 c 0,6,7
 61 127 61 127 71 240 c 128,-1,8
 81 353 81 353 81 415 c 0,9,10
 81 568 81 568 60 710 c 1,11,12
 134 704 134 704 259 704 c 0,13,14
 384 704 384 704 498 722 c 1,15,16
 510 700 510 700 510 669.5 c 0,17,18
 510 639 510 639 486.5 615.5 c 128,-1,19
 463 592 463 592 428.5 592 c 0,20,21
 394 592 394 592 318.5 602 c 128,-1,22
 243 612 243 612 207 612 c 1,23,24
 199 503 199 503 197 412 c 1,25,26
 255 406 255 406 325.5 406 c 0,27,28
 396 406 396 406 448 427 c 1,29,30
 460 405 460 405 460 374.5 c 0,31,32
 460 344 460 344 436.5 319.5 c 128,-1,33
 413 295 413 295 381 295 c 0,34,35
 349 295 349 295 289 307.5 c 128,-1,36
 229 320 229 320 197 320 c 1,0,1
EndSplineSet
Substitution2: "'init' Initial Forms in Latin lookup 1 subtable" F.ini
EndChar

StartChar: L
Encoding: 76 76 31
Width: 514
Flags: HMW
HStem: -6 100<249.5 444.5> 6 88 690 20G<115 157.5>
VStem: 64 134 81 117<351.5 380.5 263 476.5> 81 137<351.5 657.5>
LayerCount: 2
Fore
SplineSet
60 698 m 1,0,1
 92 710 92 710 129 710 c 0,2,3
 218 710 218 710 218 629 c 0,4,5
 218 585 218 585 208 484.5 c 128,-1,6
 198 384 198 384 198 276 c 0,7,8
 198 168 198 168 205 97 c 1,9,10
 232 94 232 94 259 94 c 0,11,12
 391 94 391 94 491 138 c 1,13,14
 503 111 503 111 503 77 c 128,-1,15
 503 43 503 43 479.5 18.5 c 128,-1,16
 456 -6 456 -6 422 -6 c 0,17,18
 351 -6 351 -6 111 6 c 0,19,20
 92 7 92 7 78 17.5 c 128,-1,21
 64 28 64 28 64 44 c 0,22,23
 64 97 64 97 72.5 223 c 128,-1,24
 81 349 81 349 81 455.5 c 0,25,26
 81 562 81 562 60 698 c 1,0,1
EndSplineSet
Substitution2: "'swsh' Swash in Latin lookup 3 subtable" L.swash
Substitution2: "'fina' Terminal Forms in Latin lookup 2 subtable" L.end
EndChar

StartChar: v
Encoding: 118 118 32
Width: 531
Flags: HMW
HStem: -6 98 486 20G<84 173.5 426.5 462.5>
VStem: 381 140<388.5 437>
LayerCount: 2
Fore
SplineSet
355 42 m 128,-1,1
 302 -6 302 -6 249 -6 c 128,-1,2
 196 -6 196 -6 167.5 30.5 c 128,-1,3
 139 67 139 67 127 124.5 c 128,-1,4
 115 182 115 182 105.5 243 c 128,-1,5
 96 304 96 304 73 362 c 128,-1,6
 50 420 50 420 10 449 c 1,7,8
 23 473 23 473 49 489.5 c 128,-1,9
 75 506 75 506 105 506 c 0,10,11
 152 506 152 506 181 445.5 c 128,-1,12
 210 385 210 385 218.5 312 c 128,-1,13
 227 239 227 239 237.5 170.5 c 128,-1,14
 248 102 248 102 262 92 c 1,15,16
 296 94 296 94 321.5 135.5 c 128,-1,17
 347 177 347 177 359 236 c 0,18,19
 381 344.166666667 381 344.166666667 381 405.083333333 c 128,-1,20
 381 466 381 466 375 499 c 1,21,22
 410 506 410 506 435 506 c 0,23,24
 521 506 521 506 521 424 c 0,25,26
 521 372 521 372 499.5 299.5 c 128,-1,27
 478 227 478 227 443 158.5 c 128,-1,0
 408 90 408 90 355 42 c 128,-1,1
EndSplineSet
EndChar

StartChar: w
Encoding: 119 119 33
Width: 772
Flags: HMW
HStem: -12 21G<468.5 575> -6 92 486 20G<77 163.5 667.5 703.5>
VStem: 342 140<361 403> 622 140<387.5 434>
LayerCount: 2
Fore
SplineSet
10 450 m 1,0,1
 41 506 41 506 98 506 c 0,2,3
 135 506 135 506 158 466.5 c 128,-1,4
 181 427 181 427 190.5 369.5 c 128,-1,5
 200 312 200 312 206 253 c 0,6,7
 220.930051813 106.187823834 220.930051813 106.187823834 243 92 c 1,8,9
 282 102 282 102 312 211.5 c 128,-1,10
 342 321 342 321 342 376.5 c 128,-1,11
 342 432 342 432 336 465 c 1,12,13
 371 472 371 472 396 472 c 0,14,15
 482 472 482 472 482 390 c 0,16,17
 482 261.826086957 482 261.826086957 495.5 181.413043478 c 128,-1,18
 509 101 509 101 528 86 c 1,19,20
 556 88 556 88 576 130 c 128,-1,21
 596 172 596 172 605 232 c 0,22,23
 622 345.333333333 622 345.333333333 622 405.666666667 c 128,-1,24
 622 466 622 466 616 499 c 1,25,26
 651 506 651 506 676 506 c 0,27,28
 762 506 762 506 762 424 c 0,29,30
 762 372 762 372 741 298.5 c 128,-1,31
 720 225 720 225 686 155.5 c 128,-1,32
 652 86 652 86 603.5 37 c 128,-1,33
 555 -12 555 -12 507 -12 c 0,34,35
 451.696202532 -12 451.696202532 -12 423.5 70.5 c 0,36,37
 402.405114401 132.222072678 402.405114401 132.222072678 388 231 c 1,38,39
 379 198 379 198 375 183 c 128,-1,40
 371 168 371 168 361 138 c 128,-1,41
 351 108 351 108 343 92 c 128,-1,42
 335 76 335 76 321.5 54 c 128,-1,43
 308 32 308 32 294.5 21.5 c 0,44,45
 259.142857143 -6 259.142857143 -6 216.571428571 -6 c 128,-1,46
 174 -6 174 -6 146.5 32 c 128,-1,47
 119 70 119 70 108.5 129 c 128,-1,48
 98 188 98 188 90.5 250 c 0,49,50
 71.3994974874 407.897487437 71.3994974874 407.897487437 10 450 c 1,0,1
EndSplineSet
EndChar

StartChar: x
Encoding: 120 120 34
Width: 515
Flags: HMW
HStem: -6 21G<390.5 462> 0 21G<97.5 127> 486 20G<69.5 133.5 350 380>
VStem: 10 117<0 115.5> 350 129<464 471 409 506>
LayerCount: 2
Fore
SplineSet
510 68 m 1,0,1
 510 33 510 33 491.5 13.5 c 128,-1,2
 473 -6 473 -6 442 -6 c 128,-1,3
 411 -6 411 -6 386.5 6.5 c 128,-1,4
 362 19 362 19 338 48 c 128,-1,5
 314 77 314 77 300.5 97 c 0,6,7
 279.551724138 128.034482759 279.551724138 128.034482759 227 220 c 1,8,9
 127 125 127 125 127 0 c 1,10,11
 77 0 77 0 43.5 19 c 128,-1,12
 10 38 10 38 10 75 c 128,-1,13
 10 112 10 112 34.5 143.5 c 128,-1,14
 59 175 59 175 113.5 221 c 128,-1,15
 168 267 168 267 186 285 c 1,16,17
 148 343 148 343 110.5 376.5 c 128,-1,18
 73 410 73 410 15 432 c 1,19,20
 15 465 15 465 36.5 485.5 c 128,-1,21
 58 506 58 506 87 506 c 128,-1,22
 116 506 116 506 139.5 495.5 c 128,-1,23
 163 485 163 485 180.5 471.5 c 128,-1,24
 198 458 198 458 219 432.5 c 0,25,26
 243.5 402.75 243.5 402.75 284 342 c 1,27,28
 308 370 308 370 319.5 387 c 0,29,30
 350 432.086956522 350 432.086956522 350 506 c 1,31,32
 387 506 387 506 411.5 503 c 128,-1,33
 436 500 436 500 457.5 484.5 c 128,-1,34
 479 469 479 469 479 441 c 128,-1,35
 479 413 479 413 451 382 c 128,-1,36
 423 351 423 351 380 318.5 c 128,-1,37
 337 286 337 286 325 273 c 1,38,39
 368 186 368 186 411 135.5 c 128,-1,40
 454 85 454 85 510 68 c 1,0,1
EndSplineSet
EndChar

StartChar: aacute
Encoding: 225 225 35
Width: 552
Flags: HMW
HStem: -6 89<178.5 224.5 178.5 225> 0 21G<408.5 449.5> 427 85<259.5 291> 572 178<261 393.5>
VStem: 20 122<200.5 254 200.5 271.5> 366 116<63.5 278.5>
LayerCount: 2
Fore
SplineSet
509 471 m 1,0,1
 482 355.5 482 355.5 482 240.25 c 128,-1,2
 482 125 482 125 508 12 c 1,3,4
 472 0 472 0 434 0 c 128,-1,5
 396 0 396 0 381 22.5 c 128,-1,6
 366 45 366 45 366 87.5 c 128,-1,7
 366 130 366 130 379 204 c 1,8,9
 308.161290323 51.6967741935 308.161290323 51.6967741935 242 12 c 0,10,11
 212 -6 212 -6 180 -6 c 0,12,13
 104 -6 104 -6 62 50.5 c 128,-1,14
 20 107 20 107 20 191 c 0,15,16
 20 319 20 319 91 415.5 c 128,-1,17
 162 512 162 512 275.5 512 c 128,-1,18
 389 512 389 512 509 471 c 1,0,1
378 411 m 1,19,20
 325 427 325 427 288 427 c 0,21,22
 213.4 427 213.4 427 176 394 c 1,23,24
 142 310 142 310 142 223 c 0,25,26
 142 177 142 177 156.5 130 c 128,-1,27
 171 83 171 83 201 83 c 0,28,29
 236 83 236 83 291 186 c 128,-1,30
 346 289 346 289 378 411 c 1,19,20
230 610 m 1,31,32
 320 660 320 660 369 750 c 1,33,34
 409 750 409 750 436.5 735.5 c 128,-1,35
 464 721 464 721 464 693 c 0,36,37
 464 653 464 653 389.5 612.5 c 128,-1,38
 315 572 315 572 271 572 c 0,39,40
 238 572 238 572 230 610 c 1,31,32
EndSplineSet
EndChar

StartChar: acute
Encoding: 180 180 36
Width: 334
Flags: HMW
HStem: 572 178<81 213.5>
LayerCount: 2
Fore
SplineSet
50 610 m 1,0,1
 140 660 140 660 189 750 c 1,2,3
 229 750 229 750 256.5 735.5 c 128,-1,4
 284 721 284 721 284 693 c 0,5,6
 284 653 284 653 209.5 612.5 c 128,-1,7
 135 572 135 572 91 572 c 0,8,9
 58 572 58 572 50 610 c 1,0,1
EndSplineSet
EndChar

StartChar: eacute
Encoding: 233 233 37
Width: 496
Flags: HMW
HStem: -12 84<214.5 290> -12 209<168 388> 223 77<208.5 237.5 205 279> 436 82<238.5 278.5> 572 178<235 367.5>
VStem: 30 122<184.5 227 184.5 310> 343 111<360 389.5> 367 87
LayerCount: 2
Fore
SplineSet
152 227 m 1,0,1
 152 155 152 155 175 113.5 c 128,-1,2
 198 72 198 72 252 72 c 0,3,4
 306 72 306 72 336.5 108.5 c 128,-1,5
 367 145 367 145 367 197 c 1,6,7
 401 197 401 197 426 180 c 128,-1,8
 451 163 451 163 451 133 c 0,9,10
 451 71 451 71 385 29.5 c 128,-1,11
 319 -12 319 -12 246 -12 c 0,12,13
 132 -12 132 -12 81 49.5 c 128,-1,14
 30 111 30 111 30 232 c 128,-1,15
 30 353 30 353 98.5 435.5 c 128,-1,16
 167 518 167 518 281 518 c 0,17,18
 359 518 359 518 406.5 482.5 c 128,-1,19
 454 447 454 447 454 372.5 c 0,20,21
 454 298 454 298 386.5 260.5 c 128,-1,22
 319 223 319 223 222 223 c 0,23,24
 188 223 188 223 152 227 c 1,0,1
153 306 m 1,25,26
 183 300 183 300 216 300 c 0,27,28
 288 300 288 300 337 327 c 1,29,30
 343 351 343 351 343 365 c 0,31,32
 343 400 343 400 318 418 c 128,-1,33
 293 436 293 436 249.5 436 c 0,34,35
 206 436 206 436 171 408 c 1,36,37
 153 356 153 356 153 306 c 1,25,26
204 610 m 1,38,39
 294 660 294 660 343 750 c 1,40,41
 383 750 383 750 410.5 735.5 c 128,-1,42
 438 721 438 721 438 693 c 0,43,44
 438 653 438 653 363.5 612.5 c 128,-1,45
 289 572 289 572 245 572 c 0,46,47
 212 572 212 572 204 610 c 1,38,39
EndSplineSet
EndChar

StartChar: iacute
Encoding: 237 237 38
Width: 266
Flags: HMW
HStem: -6 21G<113.5 149> 486 20G<120 154.5> 572 178<87 219.5>
VStem: 60 126<36.5 246.5> 88 98<147.5 337.5> 88 124<246.5 455.5>
LayerCount: 2
Fore
SplineSet
56 610 m 1,0,1
 146 660 146 660 195 750 c 1,2,3
 235 750 235 750 262.5 735.5 c 128,-1,4
 290 721 290 721 290 693 c 0,5,6
 290 653 290 653 215.5 612.5 c 128,-1,7
 141 572 141 572 97 572 c 0,8,9
 64 572 64 572 56 610 c 1,0,1
70 497 m 1,10,11
 102 506 102 506 134.5 506 c 0,12,13
 167 506 167 506 189.5 486.5 c 128,-1,14
 212 467 212 467 212 436.5 c 0,15,16
 212 406 212 406 199 329 c 128,-1,17
 186 252 186 252 186 172 c 0,18,19
 186 92 186 92 204 6 c 1,20,21
 172 -6 172 -6 136 -6 c 0,22,23
 60 -6 60 -6 60 59 c 0,24,25
 60 84 60 84 74 163.5 c 128,-1,26
 88 243 88 243 88 292 c 0,27,28
 88 425 88 425 70 497 c 1,10,11
EndSplineSet
EndChar

StartChar: oacute
Encoding: 243 243 39
Width: 540
Flags: HMW
HStem: -12 85<222 317 222 321.5> 433 85<258 322.5> 572 178<241 373.5>
VStem: 34 124<227 304 227 306.5> 378 124<191.5 265.5>
LayerCount: 2
Fore
SplineSet
86 52.5 m 128,-1,1
 34 117 34 117 34 232.5 c 128,-1,2
 34 348 34 348 103 433 c 128,-1,3
 172 518 172 518 280 518 c 0,4,5
 502 518 502 518 502 268 c 0,6,7
 502 151 502 151 430 69.5 c 128,-1,8
 358 -12 358 -12 248 -12 c 128,-1,0
 138 -12 138 -12 86 52.5 c 128,-1,1
176 408 m 1,9,10
 158 350 158 350 158 292 c 128,-1,11
 158 234 158 234 162 202 c 128,-1,12
 166 170 166 170 177 138.5 c 0,13,14
 199.873015873 73 199.873015873 73 267.436507937 73 c 128,-1,15
 335 73 335 73 356.5 109 c 128,-1,16
 378 145 378 145 378 220 c 0,17,18
 378 433 378 433 277 433 c 0,19,20
 219 433 219 433 176 408 c 1,9,10
210 610 m 1,21,22
 300 660 300 660 349 750 c 1,23,24
 389 750 389 750 416.5 735.5 c 128,-1,25
 444 721 444 721 444 693 c 0,26,27
 444 653 444 653 369.5 612.5 c 128,-1,28
 295 572 295 572 251 572 c 0,29,30
 218 572 218 572 210 610 c 1,21,22
EndSplineSet
EndChar

StartChar: uacute
Encoding: 250 250 40
Width: 572
Flags: HMW
HStem: -6 101<222 224> 0 21G<431.5 466.5> 486 20G<117.5 159.5 430 464.5> 572 178<242 374.5>
VStem: 93 99<130 342> 93 121<276.5 447.5> 395 109 395 127
LayerCount: 2
Fore
SplineSet
83 102 m 1,0,-1
 93 310 l 1,1,2
 93 407 93 407 65 494 c 1,3,4
 93 506 93 506 133.5 506 c 0,5,6
 214 506 214 506 214 417 c 0,7,8
 214 367 214 367 203 276.5 c 128,-1,9
 192 186 192 186 192 145 c 0,10,11
 192 95 192 95 237 95 c 0,12,13
 264 95 264 95 300.5 140.5 c 128,-1,14
 337 186 337 186 363.5 242.5 c 128,-1,15
 390 299 390 299 395 335 c 1,16,17
 389 445 389 445 378 494 c 1,18,19
 410 506 410 506 443.5 506 c 128,-1,20
 477 506 477 506 499.5 485 c 128,-1,21
 522 464 522 464 522 433 c 128,-1,22
 522 402 522 402 513 330 c 128,-1,23
 504 258 504 258 504 179.5 c 128,-1,24
 504 101 504 101 522 12 c 1,25,26
 483 0 483 0 451.5 0 c 0,27,28
 390 0 390 0 390 82 c 0,29,30
 390 118 390 118 398 182 c 1,31,32
 358 97 358 97 300.5 45.5 c 128,-1,33
 243 -6 243 -6 184 -6 c 0,34,35
 83 -6 83 -6 83 102 c 1,0,-1
211 610 m 1,36,37
 301 660 301 660 350 750 c 1,38,39
 390 750 390 750 417.5 735.5 c 128,-1,40
 445 721 445 721 445 693 c 0,41,42
 445 653 445 653 370.5 612.5 c 128,-1,43
 296 572 296 572 252 572 c 0,44,45
 219 572 219 572 211 610 c 1,36,37
EndSplineSet
EndChar

StartChar: dotlessi
Encoding: 305 305 41
Width: 258
Flags: HMW
HStem: -6 21G<103.5 139> 486 20G<110 144.5>
VStem: 50 126<36.5 246.5> 78 98<147.5 337.5> 78 124<246.5 455.5>
LayerCount: 2
Fore
SplineSet
60 497 m 1,0,1
 92 506 92 506 124.5 506 c 0,2,3
 157 506 157 506 179.5 486.5 c 128,-1,4
 202 467 202 467 202 436.5 c 0,5,6
 202 406 202 406 189 329 c 128,-1,7
 176 252 176 252 176 172 c 0,8,9
 176 92 176 92 194 6 c 1,10,11
 162 -6 162 -6 126 -6 c 0,12,13
 50 -6 50 -6 50 59 c 0,14,15
 50 84 50 84 64 163.5 c 128,-1,16
 78 243 78 243 78 292 c 0,17,18
 78 425 78 425 60 497 c 1,0,1
EndSplineSet
EndChar

StartChar: dieresis
Encoding: 168 168 42
Width: 481
Flags: HMW
HStem: 621 117<123.5 139.5 347.5 363.5>
VStem: 70 117<667 680> 294 117<667 680>
LayerCount: 2
Fore
SplineSet
78 726 m 1,0,1
 104 738 104 738 137 738 c 0,2,3
 187 738 187 738 187 686 c 0,4,5
 187 658 187 658 168 639.5 c 128,-1,6
 149 621 149 621 123.5 621 c 0,7,8
 98 621 98 621 84 635 c 128,-1,9
 70 649 70 649 70 675.5 c 0,10,11
 70 702 70 702 78 726 c 1,0,1
302 726 m 1,12,13
 328 738 328 738 361 738 c 0,14,15
 411 738 411 738 411 686 c 0,16,17
 411 658 411 658 392 639.5 c 128,-1,18
 373 621 373 621 347.5 621 c 0,19,20
 322 621 322 621 308 635 c 128,-1,21
 294 649 294 649 294 675.5 c 0,22,23
 294 702 294 702 302 726 c 1,12,13
EndSplineSet
EndChar

StartChar: tilde
Encoding: 732 732 43
Width: 505
Flags: HMW
HStem: 582 89<318.5 363.5 318.5 371.5> 621 50 621 79<140.5 185.5> 681 20G
LayerCount: 2
Fore
SplineSet
424 701 m 1,0,1
 434 682 434 682 434 655.5 c 0,2,3
 434 629 434 629 409 605.5 c 128,-1,4
 384 582 384 582 351.5 582 c 0,5,6
 319 582 319 582 252.5 601.5 c 128,-1,7
 186 621 186 621 147.5 621 c 0,8,9
 109 621 109 621 80 591 c 1,10,11
 70 610 70 610 70 634.5 c 0,12,13
 70 659 70 659 97 679.5 c 128,-1,14
 124 700 124 700 163 700 c 0,15,16
 202 700 202 700 260.5 685.5 c 128,-1,17
 319 671 319 671 357 671 c 0,18,19
 395 671 395 671 424 701 c 1,0,1
EndSplineSet
EndChar

StartChar: N
Encoding: 78 78 45
Width: 666
Flags: HMW
HStem: -6 21G<544 569> 0 21G<117 155> 690 20G<133 162.5> 696 20G<527 565>
VStem: 60 126 79 107<318 350.5 281.5 422> 498 106<330.5 393 277 418> 498 124
LayerCount: 2
Fore
SplineSet
474 700 m 1,0,1
 506 716 506 716 541.5 716 c 0,2,3
 577 716 577 716 599.5 694 c 128,-1,4
 622 672 622 672 622 641 c 0,5,6
 622 610 622 610 613 504.5 c 128,-1,7
 604 399 604 399 604 337 c 0,8,9
 604 138 604 138 622 6 c 1,10,11
 590 -6 590 -6 550.5 -6 c 0,12,13
 511 -6 511 -6 489 7 c 0,14,15
 425 44 425 44 190 475 c 1,16,17
 186 436 186 436 186 292.5 c 0,18,19
 186 149 186 149 208 12 c 1,20,21
 177 0 177 0 141 0 c 0,22,23
 105 0 105 0 82.5 23 c 128,-1,24
 60 46 60 46 60 78 c 0,25,26
 60 110 60 110 69.5 212 c 128,-1,27
 79 314 79 314 79 366 c 0,28,29
 79 565 79 565 60 696 c 1,30,31
 88 710 88 710 142 710 c 0,32,33
 196 710 196 710 218 667 c 0,34,35
 366 366 366 366 501 157 c 1,36,37
 498 349 498 349 498 360 c 0,38,39
 498 547 498 547 474 700 c 1,0,1
EndSplineSet
Substitution2: "'swsh' Swash in Latin lookup 3 subtable" N.swash
Substitution2: "'init' Initial Forms in Latin lookup 1 subtable" N.ini
EndChar

StartChar: Q
Encoding: 81 81 46
Width: 692
Flags: HMW
HStem: -214 106<628.5 631> 630 92<309.5 403>
VStem: 30 132<272 385.5 272 438.5> 530 132<306 440>
LayerCount: 2
Fore
SplineSet
662 377 m 128,-1,1
 662 227 662 227 585.5 127 c 128,-1,2
 509 27 509 27 394 1 c 1,3,4
 404 -5 404 -5 437.5 -24 c 128,-1,5
 471 -43 471 -43 480.5 -48.5 c 128,-1,6
 490 -54 490 -54 517 -67.5 c 128,-1,7
 544 -81 544 -81 558 -85 c 128,-1,8
 572 -89 572 -89 595.5 -96.5 c 0,9,10
 631.533333333 -108 631.533333333 -108 688 -108 c 1,11,12
 688 -154 688 -154 666 -184 c 128,-1,13
 644 -214 644 -214 603 -214 c 128,-1,14
 562 -214 562 -214 523 -196 c 128,-1,15
 484 -178 484 -178 459 -156.5 c 128,-1,16
 434 -135 434 -135 391.5 -95 c 128,-1,17
 349 -55 349 -55 323.5 -35 c 128,-1,18
 298 -15 298 -15 226 10 c 1,19,20
 143 37 143 37 86.5 119 c 128,-1,21
 30 201 30 201 30 335 c 0,22,23
 30 496 30 496 124 609 c 128,-1,24
 218 722 218 722 363.5 722 c 128,-1,25
 509 722 509 722 585.5 624.5 c 128,-1,0
 662 527 662 527 662 377 c 128,-1,1
362 89 m 0,26,27
 419 89 419 89 459 134.5 c 0,28,29
 530 215.2625 530 215.2625 530 367 c 0,30,31
 530 486 530 486 481.5 558 c 128,-1,32
 433 630 433 630 330 630 c 0,33,34
 269 630 269 630 220 591 c 1,35,36
 193 548 193 548 177.5 479 c 128,-1,37
 162 410 162 410 162 345 c 0,38,39
 162 227 162 227 210 158 c 128,-1,40
 258 89 258 89 362 89 c 0,26,27
EndSplineSet
Substitution2: "'swsh' Swash in Latin lookup 3 subtable" Q.swash
EndChar

StartChar: A
Encoding: 65 65 47
Width: 615
Flags: HMW
HStem: -6 21G<480 531.5> 0 21G<71 101.5> 192 90<269.5 275.5 253 305> 696 20G<287 337>
VStem: 10 121<17.5 123>
LayerCount: 2
Fore
SplineSet
224 702 m 1,0,1
 266 716 266 716 300 716 c 0,2,3
 352 716 352 716 381 679.5 c 128,-1,4
 410 643 410 643 426 576 c 0,5,6
 431 556 431 556 446.5 488 c 128,-1,7
 462 420 462 420 472 377.5 c 0,8,9
 502.791208791 246.637362637 502.791208791 246.637362637 528.395604396 174.818681319 c 128,-1,10
 554 103 554 103 610 60 c 1,11,12
 598 30 598 30 570.5 12 c 128,-1,13
 543 -6 543 -6 511 -6 c 0,14,15
 438 -6 438 -6 404 104 c 0,16,17
 388 155 388 155 375 204 c 1,18,19
 340 192 340 192 288.5 192 c 128,-1,20
 237 192 237 192 162 203 c 1,21,22
 131 82 131 82 131 21 c 0,23,24
 131 8 131 8 132 2 c 1,25,26
 119 0 119 0 88 0 c 128,-1,27
 57 0 57 0 33.5 19.5 c 128,-1,28
 10 39 10 39 10 75 c 0,29,30
 10 125 10 125 106 368 c 128,-1,31
 202 611 202 611 224 702 c 1,0,1
185 287 m 1,32,33
 225 282 225 282 266.5 282 c 128,-1,34
 308 282 308 282 355 291 c 1,35,36
 346 332 346 332 294 605 c 1,37,38
 232 444 232 444 185 287 c 1,32,33
EndSplineSet
Substitution2: "'swsh' Swash in Latin lookup 3 subtable" A.swash
Substitution2: "'fina' Terminal Forms in Latin lookup 2 subtable" A.end
Substitution2: "'init' Initial Forms in Latin lookup 1 subtable" A.ini
EndChar

StartChar: period
Encoding: 46 46 48
Width: 257
Flags: HMW
HStem: -6 157<122 144.5>
VStem: 50 157<57.5 78.5>
LayerCount: 2
Fore
SplineSet
68 134 m 1,0,1
 100 151 100 151 133 151 c 0,2,3
 207 151 207 151 207 82 c 0,4,5
 207 45 207 45 182 19.5 c 128,-1,6
 157 -6 157 -6 122 -6 c 0,7,8
 87 -6 87 -6 68.5 14 c 128,-1,9
 50 34 50 34 50 68.5 c 0,10,11
 50 103 50 103 68 134 c 1,0,1
EndSplineSet
EndChar

StartChar: C
Encoding: 67 67 49
Width: 612
Flags: HMW
HStem: -12 97<269 380> 625 97<307 367>
VStem: 25 134<279 385.5 279 434.5> 445 147 473 119<237.5 245.5 147 294>
LayerCount: 2
Fore
SplineSet
364 722 m 0,0,1
 451 722 451 722 516 671 c 128,-1,2
 581 620 581 620 581 539 c 0,3,4
 581 496 581 496 557 468 c 128,-1,5
 533 440 533 440 498 440 c 128,-1,6
 463 440 463 440 442 449 c 1,7,8
 445 465 445 465 445 483 c 0,9,10
 444 546 444 546 414 585.5 c 128,-1,11
 384 625 384 625 326.5 625 c 128,-1,12
 269 625 269 625 220 588 c 1,13,14
 191 546 191 546 175 478 c 128,-1,15
 159 410 159 410 159 344 c 0,16,17
 159 234 159 234 201.5 159.5 c 128,-1,18
 244 85 244 85 334 85 c 0,19,20
 416.786885246 85 416.786885246 85 446.5 147.5 c 0,21,22
 473 203.24137931 473 203.24137931 473 294 c 1,23,24
 524 294 524 294 558 275.5 c 128,-1,25
 592 257 592 257 592 215 c 0,26,27
 592 117 592 117 506 52.5 c 128,-1,28
 420 -12 420 -12 312 -12 c 0,29,30
 171 -12 171 -12 98 81.5 c 128,-1,31
 25 175 25 175 25 335 c 128,-1,32
 25 495 25 495 116.5 608.5 c 128,-1,33
 208 722 208 722 364 722 c 0,0,1
EndSplineSet
Substitution2: "'swsh' Swash in Latin lookup 3 subtable" C.swash
EndChar

StartChar: G
Encoding: 71 71 50
Width: 635
Flags: HMW
HStem: -6 97<268 353 268 361.5> 230 110<381.5 545> 625 97<306 361>
VStem: 24 134<273 379.5 273 429> 345 230 438 137<531.5 540>
LayerCount: 2
Fore
SplineSet
418 332 m 1,0,-1
 525 340 l 1,1,2
 585 340 585 340 585 279 c 0,3,4
 585 244 585 244 576 170 c 128,-1,5
 567 96 567 96 567 50 c 1,6,7
 542 46 542 46 455.5 20 c 128,-1,8
 369 -6 369 -6 311 -6 c 0,9,10
 169 -6 169 -6 96.5 82 c 128,-1,11
 24 170 24 170 24 322 c 0,12,13
 24 430 24 430 63.5 520 c 128,-1,14
 103 610 103 610 181 666 c 128,-1,15
 259 722 259 722 353.5 722 c 128,-1,16
 448 722 448 722 511.5 678 c 128,-1,17
 575 634 575 634 575 559 c 0,18,19
 575 517 575 517 550.5 488.5 c 128,-1,20
 526 460 526 460 488 460 c 128,-1,21
 450 460 450 460 435 469 c 1,22,23
 438 487 438 487 438 505 c 0,24,25
 438 558 438 558 408 591.5 c 128,-1,26
 378 625 378 625 323 625 c 128,-1,27
 268 625 268 625 219 588 c 1,28,29
 190 547 190 547 174 476 c 128,-1,30
 158 405 158 405 158 338 c 0,31,32
 158 230 158 230 200 160.5 c 128,-1,33
 242 91 242 91 333 91 c 0,34,35
 400 91 400 91 458 130 c 1,36,37
 462 169 462 169 462 242 c 1,38,39
 422 230 422 230 400 230 c 0,40,41
 345 230 345 230 345 288 c 0,42,43
 345 313 345 313 355 341 c 1,44,45
 382 332 382 332 418 332 c 1,0,-1
EndSplineSet
Substitution2: "'swsh' Swash in Latin lookup 3 subtable" G.swash
EndChar

StartChar: R
Encoding: 82 82 51
Width: 638
Flags: HMW
HStem: -6 21G<487.5 570.5> 0 21G<131.5 169> 627 89<281.5 329.5>
VStem: 66 136 86 116<332.5 422> 409 132<509.5 569.5>
LayerCount: 2
Fore
SplineSet
377 340 m 1,0,1
 422 245 422 245 491 174 c 128,-1,2
 560 103 560 103 628 82 c 1,3,4
 628 40 628 40 606 17 c 128,-1,5
 584 -6 584 -6 543 -6 c 0,6,7
 490 -6 490 -6 422 62.5 c 128,-1,8
 354 131 354 131 303.5 224.5 c 128,-1,9
 253 318 253 318 244 389 c 1,10,11
 316 389 316 389 362.5 427.5 c 128,-1,12
 409 466 409 466 409 537 c 0,13,14
 409 627 409 627 297 627 c 0,15,16
 261 627 261 627 209 615 c 1,17,18
 202 480 202 480 202 397 c 0,19,20
 202 131 202 131 223 12 c 1,21,22
 191 0 191 0 155 0 c 128,-1,23
 119 0 119 0 92.5 23 c 128,-1,24
 66 46 66 46 66 84 c 0,25,26
 66 122 66 122 76 216.5 c 128,-1,27
 86 311 86 311 86 368 c 0,28,29
 86 543 86 543 61 679 c 1,30,31
 196 716 196 716 318 716 c 0,32,33
 541 716 541 716 541 557 c 0,34,35
 541 487 541 487 493.5 425.5 c 128,-1,36
 446 364 446 364 377 340 c 1,0,1
EndSplineSet
Substitution2: "'swsh' Swash in Latin lookup 3 subtable" R.swash
EndChar

StartChar: S
Encoding: 83 83 52
Width: 562
Flags: HMW
HStem: -12 92<250 321.5 250 330.5> 491 231<252.5 432.5> 632 90<272 316.5>
VStem: 40 131<161 188.5> 52 119 52 132<471 551 471 569.5> 380 125<527.5 643.5> 406 99 406 126<152.5 267>
LayerCount: 2
Fore
SplineSet
376 494 m 1,0,1
 380 514 380 514 380 535 c 0,2,3
 380 632 380 632 285 632 c 0,4,5
 242 632 242 632 212 614 c 1,6,7
 184 581 184 581 184 535 c 0,8,9
 184 505 184 505 210 483.5 c 128,-1,10
 236 462 236 462 274.5 450 c 128,-1,11
 313 438 313 438 358 420 c 128,-1,12
 403 402 403 402 441.5 381.5 c 128,-1,13
 480 361 480 361 506 320.5 c 128,-1,14
 532 280 532 280 532 225 c 0,15,16
 532 120 532 120 451.5 54 c 128,-1,17
 371 -12 371 -12 258 -12 c 0,18,19
 167 -12 167 -12 103.5 33.5 c 128,-1,20
 40 79 40 79 40 161 c 0,21,22
 40 203 40 203 65.5 231.5 c 128,-1,23
 91 260 91 260 126.5 260 c 0,24,25
 162 260 162 260 179 251 c 1,26,27
 171 221 171 221 171 197 c 0,28,29
 171 143 171 143 201.5 111.5 c 128,-1,30
 232 80 232 80 286 80 c 128,-1,31
 340 80 340 80 373 108 c 128,-1,32
 406 136 406 136 406 182.5 c 0,33,34
 406 229 406 229 369.5 259 c 128,-1,35
 333 289 333 289 281 307 c 128,-1,36
 229 325 229 325 177 345 c 128,-1,37
 125 365 125 365 88.5 404.5 c 128,-1,38
 52 444 52 444 52 504 c 0,39,40
 52 598 52 598 133.5 660 c 128,-1,41
 215 722 215 722 318 722 c 0,42,43
 394 722 394 722 449.5 691.5 c 128,-1,44
 505 661 505 661 505 599 c 0,45,46
 505 554 505 554 476 522.5 c 128,-1,47
 447 491 447 491 403 491 c 0,48,49
 391 491 391 491 376 494 c 1,0,1
EndSplineSet
Substitution2: "'swsh' Swash in Latin lookup 3 subtable" S.swash
Substitution2: "'init' Initial Forms in Latin lookup 1 subtable" S.ini
EndChar

StartChar: T
Encoding: 84 84 53
Width: 552
Flags: HMW
HStem: 0 21G<262.5 298.5> 604 106 619 91 693 20G<62.5 112.5> 702 20G
VStem: 196 136<53.5 382.5> 216 116<340.5 382.5 253.5 457.5> 216 135
LayerCount: 2
Fore
SplineSet
86 713 m 2,0,-1
 297 710 l 1,1,2
 461 710 461 710 537 722 c 1,3,4
 548 701 548 701 548 674 c 128,-1,5
 548 647 548 647 524 625.5 c 128,-1,6
 500 604 500 604 466 604 c 1,7,-1
 351 617 l 1,8,9
 351 610 351 610 345.5 555 c 0,10,11
 332 420 332 420 332 284 c 128,-1,12
 332 148 332 148 353 12 c 1,13,14
 320 0 320 0 284 0 c 128,-1,15
 248 0 248 0 222 20.5 c 128,-1,16
 196 41 196 41 196 82.5 c 128,-1,17
 196 124 196 124 206 229 c 128,-1,18
 216 334 216 334 216 433.5 c 128,-1,19
 216 533 216 533 206 619 c 1,20,21
 85 613 85 613 17 585 c 1,22,23
 5 607.5 5 607.5 5 636.25 c 128,-1,24
 5 665 5 665 28 689 c 128,-1,25
 51 713 51 713 86 713 c 2,0,-1
EndSplineSet
Substitution2: "'init' Initial Forms in Latin lookup 1 subtable" T.ini
EndChar

StartChar: M
Encoding: 77 77 54
Width: 862
Flags: HMW
HStem: -6 21G<719.5 762> 0 21G<102 135> 690 20G<163.5 193.5> 696 20G<682.5 717>
VStem: 60 120<44 231.5> 105 75 655 119 668 106<420 496>
LayerCount: 2
Fore
SplineSet
779 654 m 2,0,-1
 774 489 l 1,1,2
 774 353 774 353 782 245.5 c 128,-1,3
 790 138 790 138 818 12 c 1,4,5
 796 -6 796 -6 748 -6 c 0,6,7
 655 -6 655 -6 655 75 c 0,8,9
 655 142 655 142 661.5 280 c 128,-1,10
 668 418 668 418 668 496 c 1,11,12
 614 418 614 418 554.5 303.5 c 128,-1,13
 495 189 495 189 495 163 c 128,-1,14
 495 137 495 137 500 123 c 1,15,16
 478 109 478 109 441.5 109 c 128,-1,17
 405 109 405 109 380.5 129 c 128,-1,18
 356 149 356 149 339.5 184 c 128,-1,19
 323 219 323 219 281.5 321.5 c 128,-1,20
 240 424 240 424 206 498 c 1,21,22
 180 337 180 337 180 213 c 128,-1,23
 180 89 180 89 188 12 c 1,24,25
 156 0 156 0 124 0 c 0,26,27
 60 0 60 0 60 64 c 0,28,29
 60 113 60 113 82.5 259.5 c 128,-1,30
 105 406 105 406 105 507 c 128,-1,31
 105 608 105 608 94 696 c 1,32,33
 148 710 148 710 178 710 c 0,34,35
 233 710 233 710 252 671 c 0,36,37
 282 608 282 608 340.5 470.5 c 128,-1,38
 399 333 399 333 436 259 c 1,39,40
 446 280 446 280 482.5 349.5 c 128,-1,41
 519 419 519 419 543.5 468.5 c 128,-1,42
 568 518 568 518 593.5 586.5 c 128,-1,43
 619 655 619 655 626 706 c 1,44,45
 662 716 662 716 696.5 716 c 128,-1,46
 731 716 731 716 755 701 c 128,-1,47
 779 686 779 686 779 654 c 2,0,-1
EndSplineSet
Substitution2: "'swsh' Swash in Latin lookup 3 subtable" M.swash
Substitution2: "'init' Initial Forms in Latin lookup 1 subtable" M.ini
EndChar

StartChar: U
Encoding: 85 85 55
Width: 664
Flags: HMW
HStem: -12 97<280.5 346.5 280.5 354> 690 20G<112 149.5> 696 20G<506 543.5>
VStem: 65 121<200.5 252> 78 108 78 137<435 652.5> 477 115<360 413.5 318.5 457> 477 132
LayerCount: 2
Fore
SplineSet
215 629 m 0,0,1
 215 554 215 554 200.5 431 c 128,-1,2
 186 308 186 308 186 241 c 0,3,4
 186 174 186 174 222 129.5 c 128,-1,5
 258 85 258 85 329 85 c 0,6,7
 358 85 358 85 399 99 c 128,-1,8
 440 113 440 113 464 135 c 1,9,10
 477 246 477 246 477 420.5 c 0,11,12
 477 595 477 595 452 704 c 1,13,14
 484 716 484 716 520 716 c 128,-1,15
 556 716 556 716 582.5 693 c 128,-1,16
 609 670 609 670 609 633 c 0,17,18
 609 596 609 596 600.5 506 c 128,-1,19
 592 416 592 416 592 304.5 c 0,20,21
 592 193 592 193 602 108 c 1,22,23
 456 -12 456 -12 306 -12 c 0,24,25
 192 -12 192 -12 128.5 46.5 c 128,-1,26
 65 105 65 105 65 216 c 0,27,28
 65 251 65 251 71.5 342.5 c 128,-1,29
 78 434 78 434 78 476 c 0,30,31
 78 627 78 627 58 698 c 1,32,33
 90 710 90 710 126 710 c 128,-1,34
 162 710 162 710 188.5 687 c 128,-1,35
 215 664 215 664 215 629 c 0,0,1
EndSplineSet
Substitution2: "'fina' Terminal Forms in Latin lookup 2 subtable" U.end
EndChar

StartChar: X
Encoding: 88 88 56
Width: 591
Flags: HMW
HStem: -6 119<505 529.5> 0 21G<97.5 131> 628 82<6 135.5> 696 20G<435 469.5>
VStem: 435 126
LayerCount: 2
Fore
SplineSet
563.5 15 m 128,-1,1
 541 -6 541 -6 508.5 -6 c 128,-1,2
 476 -6 476 -6 446 14 c 128,-1,3
 416 34 416 34 394.5 59 c 128,-1,4
 373 84 373 84 347.5 130.5 c 0,5,6
 310.054054054 198.783783784 310.054054054 198.783783784 272 287 c 1,7,8
 143 132 143 132 131 0 c 1,9,10
 5 0 5 0 5 83 c 0,11,12
 5 111 5 111 31.5 146.5 c 128,-1,13
 58 182 58 182 125.5 254 c 128,-1,14
 193 326 193 326 233 373 c 1,15,16
 117 628 117 628 6 628 c 1,17,18
 6 666 6 666 28 688 c 128,-1,19
 50 710 50 710 88 710 c 0,20,21
 155 710 155 710 214.5 641 c 128,-1,22
 274 572 274 572 319 462 c 1,23,24
 425 579 425 579 435 716 c 1,25,26
 561 716 561 716 561 639 c 0,27,28
 561 611 561 611 534 576.5 c 128,-1,29
 507 542 507 542 449 483 c 128,-1,30
 391 424 391 424 355 381 c 1,31,32
 386.166666667 308.277777778 386.166666667 308.277777778 396.583333333 288.138888889 c 128,-1,33
 407 268 407 268 423.5 234.5 c 128,-1,34
 440 201 440 201 452 185.5 c 128,-1,35
 464 170 464 170 480 150 c 128,-1,36
 496 130 496 130 512 121.5 c 128,-1,37
 528 113 528 113 544 113 c 128,-1,38
 560 113 560 113 574 119 c 1,39,40
 586 92 586 92 586 64 c 128,-1,0
 586 36 586 36 563.5 15 c 128,-1,1
EndSplineSet
Substitution2: "'swsh' Swash in Latin lookup 3 subtable" X.swash
EndChar

StartChar: J
Encoding: 74 74 57
Width: 445
Flags: HMW
HStem: -11 98<151 207.5 151 208.5> -11 207<61 208.5> 611 99<235.5 340.5> 702 20G
VStem: 0 112<65.5 162> 264 126<408.5 416>
LayerCount: 2
Fore
SplineSet
92 722 m 1,0,1
 170 710 170 710 321 710 c 0,2,3
 379.8 710 379.8 710 384 647 c 0,4,5
 390 531 390 531 390 438 c 128,-1,6
 390 345 390 345 382 254 c 0,7,8
 373 143 373 143 306.5 66 c 128,-1,9
 240 -11 240 -11 138 -11 c 0,10,11
 82 -11 82 -11 41 19.5 c 128,-1,12
 0 50 0 50 0 94.5 c 128,-1,13
 0 139 0 139 24.5 167.5 c 128,-1,14
 49 196 49 196 86 196 c 0,15,16
 104 196 104 196 119 189 c 1,17,18
 112 171 112 171 112 148.5 c 128,-1,19
 112 126 112 126 127.5 106.5 c 128,-1,20
 143 87 143 87 169.5 87 c 128,-1,21
 196 87 196 87 214.5 106.5 c 128,-1,22
 233 126 233 126 242.5 162 c 0,23,24
 264 243.473684211 264 243.473684211 264 368.736842105 c 128,-1,25
 264 494 264 494 251 611 c 1,26,27
 235 611 235 611 199.5 603.5 c 128,-1,28
 164 596 164 596 150 596 c 0,29,30
 80 596 80 596 80 667 c 0,31,32
 80 692 80 692 92 722 c 1,0,1
EndSplineSet
Substitution2: "'swsh' Swash in Latin lookup 3 subtable" J.swash
Substitution2: "'init' Initial Forms in Latin lookup 1 subtable" J.ini
EndChar

StartChar: K
Encoding: 75 75 58
Width: 640
Flags: HMW
HStem: -6 21G<485.5 570.5> 0 21G<126.5 164> 690 20G<114 151.5> 696 20G<460 484>
VStem: 61 136<57.5 353.5> 81 116<237.5 472.5> 81 136<356.5 652.5> 460 106<656.5 677 615.5 716>
LayerCount: 2
Fore
SplineSet
359 390 m 1,0,1
 411 284 411 284 486.5 193 c 128,-1,2
 562 102 562 102 628 82 c 1,3,4
 628 40 628 40 606 17 c 128,-1,5
 584 -6 584 -6 543 -6 c 0,6,7
 489 -6 489 -6 418.5 69.5 c 128,-1,8
 348 145 348 145 295 239 c 128,-1,9
 242 333 242 333 221 404 c 1,10,11
 320 447 320 447 390 537.5 c 128,-1,12
 460 628 460 628 460 716 c 1,13,14
 503 716 503 716 534.5 701 c 128,-1,15
 566 686 566 686 566 653 c 0,16,17
 566 601 566 601 504 527 c 128,-1,18
 442 453 442 453 359 390 c 1,0,1
218 12 m 1,19,20
 186 0 186 0 150 0 c 128,-1,21
 114 0 114 0 87.5 23 c 128,-1,22
 61 46 61 46 61 86 c 0,23,24
 61 126 61 126 71 239.5 c 128,-1,25
 81 353 81 353 81 421 c 0,26,27
 81 596 81 596 60 698 c 1,28,29
 92 710 92 710 128 710 c 128,-1,30
 164 710 164 710 190.5 687 c 128,-1,31
 217 664 217 664 217 624 c 0,32,33
 217 584 217 584 207 470.5 c 128,-1,34
 197 357 197 357 197 289 c 0,35,36
 197 114 197 114 218 12 c 1,19,20
EndSplineSet
Substitution2: "'swsh' Swash in Latin lookup 3 subtable" K.swash
EndChar

StartChar: Z
Encoding: 90 90 59
Width: 555
Flags: HMW
HStem: -6 100<258.5 461.5> 0 21G<43 116> 585 125 702 20G
LayerCount: 2
Fore
SplineSet
254 702 m 1,0,-1
 449 710 l 1,1,2
 478 710 478 710 499 695 c 128,-1,3
 520 680 520 680 520 650.5 c 128,-1,4
 520 621 520 621 475.5 553 c 128,-1,5
 431 485 431 485 374.5 415 c 128,-1,6
 318 345 318 345 258 255 c 128,-1,7
 198 165 198 165 174 98 c 1,8,9
 240 94 240 94 276 94 c 0,10,11
 408 94 408 94 508 138 c 1,12,13
 520 111 520 111 520 77 c 128,-1,14
 520 43 520 43 496.5 18.5 c 128,-1,15
 473 -6 473 -6 439 -6 c 2,16,-1
 43 0 l 1,17,18
 25 27 25 27 25 68.5 c 128,-1,19
 25 110 25 110 98.5 217 c 128,-1,20
 172 324 172 324 264.5 448 c 128,-1,21
 357 572 357 572 382 621 c 1,22,23
 355 617 355 617 297 606.5 c 0,24,25
 178.238095238 585 178.238095238 585 130.619047619 585 c 0,26,27
 36 585 36 585 36 649 c 0,28,29
 36 692 36 692 48 722 c 1,30,31
 141 702 141 702 254 702 c 1,0,-1
EndSplineSet
Substitution2: "'swsh' Swash in Latin lookup 3 subtable" Z.swash
Substitution2: "'fina' Terminal Forms in Latin lookup 2 subtable" Z.end
EndChar

StartChar: V
Encoding: 86 86 60
Width: 620
Flags: HMW
HStem: -6 21G<283 333> 690 20G<83.5 135> 696 20G<518.5 549>
VStem: 494 121<635 666 593 697.5>
LayerCount: 2
Fore
SplineSet
396 8 m 1,0,1
 354 -6 354 -6 320 -6 c 0,2,3
 269 -6 269 -6 240.5 31.5 c 128,-1,4
 212 69 212 69 194 138 c 0,5,6
 190 153 190 153 166 248.5 c 0,7,8
 119.272902604 434.43490839 119.272902604 434.43490839 90.1364513018 517.717454195 c 128,-1,9
 61 601 61 601 5 644 c 1,10,11
 17 674 17 674 44.5 692 c 128,-1,12
 72 710 72 710 109 710 c 128,-1,13
 146 710 146 710 170 681.5 c 128,-1,14
 194 653 194 653 208.5 612 c 128,-1,15
 223 571 223 571 234 533 c 128,-1,16
 245 495 245 495 257.5 439 c 128,-1,17
 270 383 270 383 277.5 348.5 c 128,-1,18
 285 314 285 314 301.5 230.5 c 128,-1,19
 318 147 318 147 326 109 c 1,20,21
 494 547 494 547 494 694 c 0,22,23
 494 707 494 707 493 713 c 1,24,25
 508 716 508 716 524 716 c 0,26,27
 564 716 564 716 589.5 696.5 c 128,-1,28
 615 677 615 677 615 641 c 0,29,30
 615 591 615 591 516.5 345.5 c 128,-1,31
 418 100 418 100 396 8 c 1,0,1
EndSplineSet
Substitution2: "'swsh' Swash in Latin lookup 3 subtable" V.swash
Substitution2: "'init' Initial Forms in Latin lookup 1 subtable" V.ini
EndChar

StartChar: W
Encoding: 87 87 61
Width: 889
Flags: HMW
HStem: -12 21G<582 632> -6 21G<241.5 297> 690 20G<77.5 127.5> 696 20G<792.5 823>
VStem: 763 121<616.5 666 583 698.5>
LayerCount: 2
Fore
SplineSet
696 0 m 1,0,1
 665 -12 665 -12 629 -12 c 128,-1,2
 593 -12 593 -12 573 1 c 128,-1,3
 553 14 553 14 539.5 40.5 c 0,4,5
 520.551020408 77.6961451247 520.551020408 77.6961451247 496.775510204 169.348072562 c 128,-1,6
 473 261 473 261 459 370 c 1,7,8
 375 103 375 103 363 6 c 1,9,10
 319 -6 319 -6 284 -6 c 0,11,12
 227 -6 227 -6 200 35.5 c 128,-1,13
 173 77 173 77 161 144 c 0,14,15
 161 146 161 146 146 228 c 128,-1,16
 131 310 131 310 124.5 342 c 0,17,18
 100.681818182 459.258741259 100.681818182 459.258741259 76.3409090909 538.129370629 c 128,-1,19
 52 617 52 617 5 646 c 1,20,21
 17 676 17 676 42 693 c 128,-1,22
 67 710 67 710 98 710 c 0,23,24
 167 710 167 710 197 606 c 0,25,26
 218.127484578 532.758053461 218.127484578 532.758053461 247.063742289 358.379026731 c 128,-1,27
 276 184 276 184 290 109 c 1,28,29
 403 425 403 425 403 527 c 0,30,31
 403 548 403 548 398 556 c 1,32,33
 419 580 419 580 457.5 580 c 128,-1,34
 496 580 496 580 517.5 559 c 128,-1,35
 539 538 539 538 552 491.5 c 128,-1,36
 565 445 565 445 588.5 310 c 128,-1,37
 612 175 612 175 625 109 c 1,38,39
 665 235 665 235 688.5 312 c 128,-1,40
 712 389 712 389 737.5 506 c 128,-1,41
 763 623 763 623 763 695 c 0,42,43
 763 708 763 708 762 714 c 1,44,45
 775 716 775 716 806 716 c 128,-1,46
 837 716 837 716 860.5 696.5 c 128,-1,47
 884 677 884 677 884 634 c 128,-1,48
 884 591 884 591 852.5 490 c 128,-1,49
 821 389 821 389 771.5 244.5 c 128,-1,50
 722 100 722 100 696 0 c 1,0,1
EndSplineSet
Substitution2: "'swsh' Swash in Latin lookup 3 subtable" W.swash
Substitution2: "'init' Initial Forms in Latin lookup 1 subtable" W.ini
EndChar

StartChar: Y
Encoding: 89 89 62
Width: 581
Flags: HMW
HStem: 0 21G<277.5 315> 690 20G<74.5 142.5> 696 20G<469 493>
VStem: 212 143<57.5 200> 469 106<671 684 615 716>
LayerCount: 2
Fore
SplineSet
5 658 m 1,0,1
 29 710 29 710 93 710 c 0,2,3
 212 710 212 710 318 368 c 1,4,5
 380 461 380 461 424.5 557.5 c 128,-1,6
 469 654 469 654 469 716 c 1,7,8
 575 716 575 716 575 660 c 0,9,10
 575 621 575 621 527 544 c 128,-1,11
 479 467 479 467 423.5 385.5 c 128,-1,12
 368 304 368 304 358 266 c 1,13,14
 355 227 355 227 355 170 c 0,15,16
 355 113 355 113 369 12 c 1,17,18
 337 0 337 0 301 0 c 128,-1,19
 265 0 265 0 238.5 23 c 128,-1,20
 212 46 212 46 212 81.5 c 0,21,22
 212 117 212 117 224 263 c 1,23,24
 147 563 147 563 5 658 c 1,0,1
EndSplineSet
Substitution2: "'swsh' Swash in Latin lookup 3 subtable" Y.swash
Substitution2: "'init' Initial Forms in Latin lookup 1 subtable" Y.ini
EndChar

StartChar: exclam
Encoding: 33 33 63
Width: 318
Flags: HMW
HStem: -6 141<170 187> 730 20G<142.5 180.5>
VStem: 102 141<51 71> 125 87<322 361.5>
LayerCount: 2
Fore
SplineSet
118 120 m 1,0,1
 150 135 150 135 183 135 c 0,2,3
 243 135 243 135 243 73 c 0,4,5
 243 40 243 40 220.5 17 c 128,-1,6
 198 -6 198 -6 166.5 -6 c 0,7,8
 135 -6 135 -6 118.5 12.5 c 128,-1,9
 102 31 102 31 102 62 c 0,10,11
 102 93 102 93 118 120 c 1,0,1
75 728 m 1,12,13
 111 750 111 750 152.5 750 c 0,14,15
 194 750 194 750 216.5 731.5 c 128,-1,16
 239 713 239 713 239 680 c 0,17,18
 239 647 239 647 225.5 528 c 128,-1,19
 212 409 212 409 212 346 c 0,20,21
 212 283 212 283 219 240 c 1,22,23
 202 228 202 228 178 228 c 0,24,25
 154 228 154 228 139.5 239.5 c 128,-1,26
 125 251 125 251 125 272 c 0,27,28
 125 392 125 392 123.5 456.5 c 128,-1,29
 122 521 122 521 110 604 c 128,-1,30
 98 687 98 687 75 728 c 1,12,13
EndSplineSet
EndChar

StartChar: exclamdown
Encoding: 161 161 64
Width: 318
Flags: HMW
HStem: -244 20 371 141<131 148>
VStem: 75 141<435 455> 106 87<144.5 184>
LayerCount: 2
Fore
SplineSet
200 386 m 1,0,1
 169 371 169 371 135 371 c 0,2,3
 75 371 75 371 75 433 c 0,4,5
 75 466 75 466 97.5 489 c 128,-1,6
 120 512 120 512 151.5 512 c 0,7,8
 183 512 183 512 199.5 493.5 c 128,-1,9
 216 475 216 475 216 444 c 0,10,11
 216 413 216 413 200 386 c 1,0,1
243 -222 m 1,12,13
 207 -244 207 -244 165.5 -244 c 0,14,15
 124 -244 124 -244 101.5 -225.5 c 128,-1,16
 79 -207 79 -207 79 -174 c 0,17,18
 79 -141 79 -141 92.5 -22 c 128,-1,19
 106 97 106 97 106 160 c 0,20,21
 106 223 106 223 99 266 c 1,22,23
 116 278 116 278 140 278 c 0,24,25
 164 278 164 278 178.5 266.5 c 128,-1,26
 193 255 193 255 193 234 c 0,27,28
 193 114 193 114 194.5 49.5 c 128,-1,29
 196 -15 196 -15 208 -98 c 128,-1,30
 220 -181 220 -181 243 -222 c 1,12,13
EndSplineSet
EndChar

StartChar: comma
Encoding: 44 44 66
Width: 269
Flags: HMW
HStem: -156 21G<49.5 98> 131 20G<133 172>
VStem: 92 127<16 47.5>
LayerCount: 2
Fore
SplineSet
15 -138 m 1,0,1
 92 -67 92 -67 92 32 c 0,2,3
 92 81 92 81 70 124 c 1,4,5
 108 151 108 151 145 151 c 0,6,7
 219 151 219 151 219 57 c 0,8,9
 219 -9 219 -9 167 -82.5 c 128,-1,10
 115 -156 115 -156 57 -156 c 0,11,12
 34.5 -156 34.5 -156 15 -138 c 1,0,1
EndSplineSet
EndChar

StartChar: semicolon
Encoding: 59 59 67
Width: 279
Flags: HMW
HStem: -156 21G<49.5 98> 131 20G<133 172> 300 157<144 166.5>
VStem: 72 157<363.5 384.5> 92 127<16 47.5>
LayerCount: 2
Fore
SplineSet
15 -138 m 1,0,1
 92 -67 92 -67 92 32 c 0,2,3
 92 81 92 81 70 124 c 1,4,5
 108 151 108 151 145 151 c 0,6,7
 219 151 219 151 219 57 c 0,8,9
 219 -9 219 -9 167 -82.5 c 128,-1,10
 115 -156 115 -156 57 -156 c 0,11,12
 34.5 -156 34.5 -156 15 -138 c 1,0,1
90 440 m 1,13,14
 122 457 122 457 155 457 c 0,15,16
 229 457 229 457 229 388 c 0,17,18
 229 351 229 351 204 325.5 c 128,-1,19
 179 300 179 300 144 300 c 0,20,21
 109 300 109 300 90.5 320 c 128,-1,22
 72 340 72 340 72 374.5 c 0,23,24
 72 409 72 409 90 440 c 1,13,14
EndSplineSet
EndChar

StartChar: quoteright
Encoding: 8217 8217 68
Width: 304
Flags: HMW
HStem: 442 21G<86 137> 690 20G<169 203>
VStem: 97 157<606 631.5>
LayerCount: 2
Fore
SplineSet
50 458 m 1,0,1
 89 477 89 477 109.5 500 c 128,-1,2
 130 523 130 523 141 560 c 1,3,4
 97 573 97 573 97 619 c 0,5,6
 97 647 97 647 115 694 c 1,7,8
 147 710 147 710 181 710 c 0,9,10
 215 710 215 710 234.5 690.5 c 128,-1,11
 254 671 254 671 254 637 c 0,12,13
 254 569 254 569 205 505.5 c 128,-1,14
 156 442 156 442 94 442 c 0,15,16
 69 442 69 442 50 458 c 1,0,1
EndSplineSet
EndChar

StartChar: quotesingle
Encoding: 39 39 69
Width: 254
Flags: HMW
HStem: 552 198<89 108.5>
VStem: 89 115
LayerCount: 2
Fore
SplineSet
50 570 m 1,0,1
 86 649 86 649 89 750 c 1,2,3
 148 750 148 750 176 739.5 c 128,-1,4
 204 729 204 729 204 695 c 0,5,6
 204 661 204 661 161 606.5 c 128,-1,7
 118 552 118 552 93 552 c 0,8,9
 68 552 68 552 50 570 c 1,0,1
EndSplineSet
EndChar

StartChar: grave
Encoding: 96 96 70
Width: 334
Flags: HMW
HStem: 572 178<120.5 253>
LayerCount: 2
Fore
SplineSet
284 610 m 1,0,1
 276 572 276 572 243 572 c 0,2,3
 199 572 199 572 124.5 612.5 c 128,-1,4
 50 653 50 653 50 693 c 0,5,6
 50 721 50 721 77.5 735.5 c 128,-1,7
 105 750 105 750 145 750 c 1,8,9
 194 660 194 660 284 610 c 1,0,1
EndSplineSet
EndChar

StartChar: agrave
Encoding: 224 224 71
Width: 552
Flags: HMW
HStem: -6 89<178.5 224.5 178.5 225> 0 21G<408.5 449.5> 427 85<259.5 291> 572 178<218.5 351>
VStem: 20 122<200.5 254 200.5 271.5> 366 116<63.5 278.5>
LayerCount: 2
Fore
SplineSet
509 471 m 1,0,1
 482 355.5 482 355.5 482 240.25 c 128,-1,2
 482 125 482 125 508 12 c 1,3,4
 472 0 472 0 434 0 c 128,-1,5
 396 0 396 0 381 22.5 c 128,-1,6
 366 45 366 45 366 87.5 c 128,-1,7
 366 130 366 130 379 204 c 1,8,9
 308.161290323 51.6967741935 308.161290323 51.6967741935 242 12 c 0,10,11
 212 -6 212 -6 180 -6 c 0,12,13
 104 -6 104 -6 62 50.5 c 128,-1,14
 20 107 20 107 20 191 c 0,15,16
 20 319 20 319 91 415.5 c 128,-1,17
 162 512 162 512 275.5 512 c 128,-1,18
 389 512 389 512 509 471 c 1,0,1
378 411 m 1,19,20
 325 427 325 427 288 427 c 0,21,22
 213.4 427 213.4 427 176 394 c 1,23,24
 142 310 142 310 142 223 c 0,25,26
 142 177 142 177 156.5 130 c 128,-1,27
 171 83 171 83 201 83 c 0,28,29
 236 83 236 83 291 186 c 128,-1,30
 346 289 346 289 378 411 c 1,19,20
382 610 m 1,31,32
 374 572 374 572 341 572 c 0,33,34
 297 572 297 572 222.5 612.5 c 128,-1,35
 148 653 148 653 148 693 c 0,36,37
 148 721 148 721 175.5 735.5 c 128,-1,38
 203 750 203 750 243 750 c 1,39,40
 292 660 292 660 382 610 c 1,31,32
EndSplineSet
EndChar

StartChar: egrave
Encoding: 232 232 72
Width: 496
Flags: HMW
HStem: -12 84<214.5 290> -12 209<168 388> 223 77<208.5 237.5 205 279> 436 82<238.5 278.5> 572 178<200.5 333>
VStem: 30 122<184.5 227 184.5 310> 343 111<360 389.5> 367 87
LayerCount: 2
Fore
SplineSet
152 227 m 1,0,1
 152 155 152 155 175 113.5 c 128,-1,2
 198 72 198 72 252 72 c 0,3,4
 306 72 306 72 336.5 108.5 c 128,-1,5
 367 145 367 145 367 197 c 1,6,7
 401 197 401 197 426 180 c 128,-1,8
 451 163 451 163 451 133 c 0,9,10
 451 71 451 71 385 29.5 c 128,-1,11
 319 -12 319 -12 246 -12 c 0,12,13
 132 -12 132 -12 81 49.5 c 128,-1,14
 30 111 30 111 30 232 c 128,-1,15
 30 353 30 353 98.5 435.5 c 128,-1,16
 167 518 167 518 281 518 c 0,17,18
 359 518 359 518 406.5 482.5 c 128,-1,19
 454 447 454 447 454 372.5 c 0,20,21
 454 298 454 298 386.5 260.5 c 128,-1,22
 319 223 319 223 222 223 c 0,23,24
 188 223 188 223 152 227 c 1,0,1
153 306 m 1,25,26
 183 300 183 300 216 300 c 0,27,28
 288 300 288 300 337 327 c 1,29,30
 343 351 343 351 343 365 c 0,31,32
 343 400 343 400 318 418 c 128,-1,33
 293 436 293 436 249.5 436 c 0,34,35
 206 436 206 436 171 408 c 1,36,37
 153 356 153 356 153 306 c 1,25,26
364 610 m 1,38,39
 356 572 356 572 323 572 c 0,40,41
 279 572 279 572 204.5 612.5 c 128,-1,42
 130 653 130 653 130 693 c 0,43,44
 130 721 130 721 157.5 735.5 c 128,-1,45
 185 750 185 750 225 750 c 1,46,47
 274 660 274 660 364 610 c 1,38,39
EndSplineSet
EndChar

StartChar: igrave
Encoding: 236 236 73
Width: 266
Flags: HMW
HStem: -6 21G<113.5 149> 486 20G<120 154.5> 572 178<55.5 188>
VStem: 60 126<36.5 246.5> 88 98<147.5 337.5> 88 124<246.5 455.5>
LayerCount: 2
Fore
SplineSet
219 610 m 1,0,1
 211 572 211 572 178 572 c 0,2,3
 134 572 134 572 59.5 612.5 c 128,-1,4
 -15 653 -15 653 -15 693 c 0,5,6
 -15 721 -15 721 12.5 735.5 c 128,-1,7
 40 750 40 750 80 750 c 1,8,9
 129 660 129 660 219 610 c 1,0,1
70 497 m 1,10,11
 102 506 102 506 134.5 506 c 0,12,13
 167 506 167 506 189.5 486.5 c 128,-1,14
 212 467 212 467 212 436.5 c 0,15,16
 212 406 212 406 199 329 c 128,-1,17
 186 252 186 252 186 172 c 0,18,19
 186 92 186 92 204 6 c 1,20,21
 172 -6 172 -6 136 -6 c 0,22,23
 60 -6 60 -6 60 59 c 0,24,25
 60 84 60 84 74 163.5 c 128,-1,26
 88 243 88 243 88 292 c 0,27,28
 88 425 88 425 70 497 c 1,10,11
EndSplineSet
EndChar

StartChar: ugrave
Encoding: 249 249 74
Width: 572
Flags: HMW
HStem: -6 101<222 224> 0 21G<431.5 466.5> 486 20G<117.5 159.5 430 464.5> 572 178<186.5 319>
VStem: 93 99<130 342> 93 121<276.5 447.5> 395 109 395 127
LayerCount: 2
Fore
SplineSet
83 102 m 1,0,-1
 93 310 l 1,1,2
 93 407 93 407 65 494 c 1,3,4
 93 506 93 506 133.5 506 c 0,5,6
 214 506 214 506 214 417 c 0,7,8
 214 367 214 367 203 276.5 c 128,-1,9
 192 186 192 186 192 145 c 0,10,11
 192 95 192 95 237 95 c 0,12,13
 264 95 264 95 300.5 140.5 c 128,-1,14
 337 186 337 186 363.5 242.5 c 128,-1,15
 390 299 390 299 395 335 c 1,16,17
 389 445 389 445 378 494 c 1,18,19
 410 506 410 506 443.5 506 c 128,-1,20
 477 506 477 506 499.5 485 c 128,-1,21
 522 464 522 464 522 433 c 128,-1,22
 522 402 522 402 513 330 c 128,-1,23
 504 258 504 258 504 179.5 c 128,-1,24
 504 101 504 101 522 12 c 1,25,26
 483 0 483 0 451.5 0 c 0,27,28
 390 0 390 0 390 82 c 0,29,30
 390 118 390 118 398 182 c 1,31,32
 358 97 358 97 300.5 45.5 c 128,-1,33
 243 -6 243 -6 184 -6 c 0,34,35
 83 -6 83 -6 83 102 c 1,0,-1
350 610 m 1,36,37
 342 572 342 572 309 572 c 0,38,39
 265 572 265 572 190.5 612.5 c 128,-1,40
 116 653 116 653 116 693 c 0,41,42
 116 721 116 721 143.5 735.5 c 128,-1,43
 171 750 171 750 211 750 c 1,44,45
 260 660 260 660 350 610 c 1,36,37
EndSplineSet
EndChar

StartChar: ograve
Encoding: 242 242 75
Width: 540
Flags: HMW
HStem: -12 85<222 317 222 321.5> 433 85<258 322.5> 572 178<182.5 315>
VStem: 34 124<227 304 227 306.5> 378 124<191.5 265.5>
LayerCount: 2
Fore
SplineSet
86 52.5 m 128,-1,1
 34 117 34 117 34 232.5 c 128,-1,2
 34 348 34 348 103 433 c 128,-1,3
 172 518 172 518 280 518 c 0,4,5
 502 518 502 518 502 268 c 0,6,7
 502 151 502 151 430 69.5 c 128,-1,8
 358 -12 358 -12 248 -12 c 128,-1,0
 138 -12 138 -12 86 52.5 c 128,-1,1
176 408 m 1,9,10
 158 350 158 350 158 292 c 128,-1,11
 158 234 158 234 162 202 c 128,-1,12
 166 170 166 170 177 138.5 c 0,13,14
 199.873015873 73 199.873015873 73 267.436507937 73 c 128,-1,15
 335 73 335 73 356.5 109 c 128,-1,16
 378 145 378 145 378 220 c 0,17,18
 378 433 378 433 277 433 c 0,19,20
 219 433 219 433 176 408 c 1,9,10
346 610 m 1,21,22
 338 572 338 572 305 572 c 0,23,24
 261 572 261 572 186.5 612.5 c 128,-1,25
 112 653 112 653 112 693 c 0,26,27
 112 721 112 721 139.5 735.5 c 128,-1,28
 167 750 167 750 207 750 c 1,29,30
 256 660 256 660 346 610 c 1,21,22
EndSplineSet
EndChar

StartChar: yacute
Encoding: 253 253 76
Width: 577
Flags: HMW
HStem: -250 86<228.5 304 228.5 359> -250 199<149.5 359> 8 92<219.5 249.5> 486 20G<122.5 164.5 435 469.5> 572 178<252 384.5>
VStem: 83 108<-173.5 -71.5> 98 93 98 121<287 447.5> 402 125<136 452.5>
LayerCount: 2
Fore
SplineSet
88 166 m 1,0,-1
 98 310 l 1,1,2
 98 407 98 407 70 494 c 1,3,4
 98 506 98 506 138.5 506 c 0,5,6
 219 506 219 506 219 417 c 0,7,8
 219 377 219 377 208 304 c 128,-1,9
 197 231 197 231 197 203.5 c 128,-1,10
 197 176 197 176 198 163.5 c 128,-1,11
 199 151 199 151 202.5 133.5 c 0,12,13
 209.2 100 209.2 100 242.6 100 c 128,-1,14
 276 100 276 100 314.5 153.5 c 128,-1,15
 353 207 353 207 376.5 272 c 128,-1,16
 400 337 400 337 400 375 c 1,17,18
 395 454 395 454 383 494 c 1,19,20
 415 506 415 506 448.5 506 c 128,-1,21
 482 506 482 506 504.5 485 c 128,-1,22
 527 464 527 464 527 429 c 0,23,24
 527 -116.611111111 527 -116.611111111 327 -225.5 c 0,25,26
 282 -250 282 -250 225 -250 c 128,-1,27
 168 -250 168 -250 125.5 -220 c 128,-1,28
 83 -190 83 -190 83 -136 c 0,29,30
 83 -100 83 -100 110 -75.5 c 128,-1,31
 137 -51 137 -51 174 -51 c 0,32,33
 182 -51 182 -51 194 -53 c 1,34,35
 191 -66 191 -66 191 -76 c 0,36,37
 191 -164 191 -164 252 -164 c 0,38,39
 289 -164 289 -164 319 -124 c 128,-1,40
 349 -84 349 -84 366.5 -26 c 0,41,42
 402 91.6571428571 402 91.6571428571 402 188 c 1,43,44
 372 107 372 107 320.5 57.5 c 128,-1,45
 269 8 269 8 209 8 c 0,46,47
 88 8 88 8 88 166 c 1,0,-1
221 610 m 1,48,49
 311 660 311 660 360 750 c 1,50,51
 400 750 400 750 427.5 735.5 c 128,-1,52
 455 721 455 721 455 693 c 0,53,54
 455 653 455 653 380.5 612.5 c 128,-1,55
 306 572 306 572 262 572 c 0,56,57
 229 572 229 572 221 610 c 1,48,49
EndSplineSet
EndChar

StartChar: adieresis
Encoding: 228 228 77
Width: 552
Flags: HMW
HStem: -6 89<178.5 224.5 178.5 225> 0 21G<408.5 449.5> 427 85<259.5 291> 621 117<173.5 189.5 397.5 413.5>
VStem: 20 122<200.5 254 200.5 271.5> 120 117<667 680> 344 117<667 680> 366 116<63.5 278.5>
LayerCount: 2
Fore
SplineSet
509 471 m 1,0,1
 482 355.5 482 355.5 482 240.25 c 128,-1,2
 482 125 482 125 508 12 c 1,3,4
 472 0 472 0 434 0 c 128,-1,5
 396 0 396 0 381 22.5 c 128,-1,6
 366 45 366 45 366 87.5 c 128,-1,7
 366 130 366 130 379 204 c 1,8,9
 308.161290323 51.6967741935 308.161290323 51.6967741935 242 12 c 0,10,11
 212 -6 212 -6 180 -6 c 0,12,13
 104 -6 104 -6 62 50.5 c 128,-1,14
 20 107 20 107 20 191 c 0,15,16
 20 319 20 319 91 415.5 c 128,-1,17
 162 512 162 512 275.5 512 c 128,-1,18
 389 512 389 512 509 471 c 1,0,1
378 411 m 1,19,20
 325 427 325 427 288 427 c 0,21,22
 213.4 427 213.4 427 176 394 c 1,23,24
 142 310 142 310 142 223 c 0,25,26
 142 177 142 177 156.5 130 c 128,-1,27
 171 83 171 83 201 83 c 0,28,29
 236 83 236 83 291 186 c 128,-1,30
 346 289 346 289 378 411 c 1,19,20
128 726 m 1,31,32
 154 738 154 738 187 738 c 0,33,34
 237 738 237 738 237 686 c 0,35,36
 237 658 237 658 218 639.5 c 128,-1,37
 199 621 199 621 173.5 621 c 128,-1,38
 148 621 148 621 134 635 c 128,-1,39
 120 649 120 649 120 675.5 c 128,-1,40
 120 702 120 702 128 726 c 1,31,32
352 726 m 1,41,42
 377 738 377 738 411 738 c 0,43,44
 461 738 461 738 461 686 c 0,45,46
 461 658 461 658 442 639.5 c 128,-1,47
 423 621 423 621 397.5 621 c 128,-1,48
 372 621 372 621 358 635 c 128,-1,49
 344 649 344 649 344 675.5 c 128,-1,50
 344 702 344 702 352 726 c 1,41,42
EndSplineSet
EndChar

StartChar: edieresis
Encoding: 235 235 78
Width: 496
Flags: HMW
HStem: -12 84<214.5 290> -12 209<168 388> 223 77<208.5 237.5 205 279> 436 82<238.5 278.5> 621 117<156.5 172.5 380.5 396.5>
VStem: 30 122<184.5 227 184.5 310> 103 117<667 680> 327 117<667 680> 343 111<360 389.5> 367 87
LayerCount: 2
Fore
SplineSet
152 227 m 1,0,1
 152 155 152 155 175 113.5 c 128,-1,2
 198 72 198 72 252 72 c 0,3,4
 306 72 306 72 336.5 108.5 c 128,-1,5
 367 145 367 145 367 197 c 1,6,7
 401 197 401 197 426 180 c 128,-1,8
 451 163 451 163 451 133 c 0,9,10
 451 71 451 71 385 29.5 c 128,-1,11
 319 -12 319 -12 246 -12 c 0,12,13
 132 -12 132 -12 81 49.5 c 128,-1,14
 30 111 30 111 30 232 c 128,-1,15
 30 353 30 353 98.5 435.5 c 128,-1,16
 167 518 167 518 281 518 c 0,17,18
 359 518 359 518 406.5 482.5 c 128,-1,19
 454 447 454 447 454 372.5 c 0,20,21
 454 298 454 298 386.5 260.5 c 128,-1,22
 319 223 319 223 222 223 c 0,23,24
 188 223 188 223 152 227 c 1,0,1
153 306 m 1,25,26
 183 300 183 300 216 300 c 0,27,28
 288 300 288 300 337 327 c 1,29,30
 343 351 343 351 343 365 c 0,31,32
 343 400 343 400 318 418 c 128,-1,33
 293 436 293 436 249.5 436 c 0,34,35
 206 436 206 436 171 408 c 1,36,37
 153 356 153 356 153 306 c 1,25,26
111 726 m 1,38,39
 137 738 137 738 170 738 c 0,40,41
 220 738 220 738 220 686 c 0,42,43
 220 658 220 658 201 639.5 c 128,-1,44
 182 621 182 621 156.5 621 c 0,45,46
 131 621 131 621 117 635 c 128,-1,47
 103 649 103 649 103 675.5 c 0,48,49
 103 702 103 702 111 726 c 1,38,39
335 726 m 1,50,51
 360 738 360 738 394 738 c 0,52,53
 444 738 444 738 444 686 c 0,54,55
 444 658 444 658 425 639.5 c 128,-1,56
 406 621 406 621 380.5 621 c 0,57,58
 355 621 355 621 341 635 c 128,-1,59
 327 649 327 649 327 675.5 c 0,60,61
 327 702 327 702 335 726 c 1,50,51
EndSplineSet
EndChar

StartChar: odieresis
Encoding: 246 246 79
Width: 540
Flags: HMW
HStem: -12 85<222 317 222 321.5> 433 85<258 322.5> 621 117<158.5 174.5 382.5 398.5>
VStem: 34 124<227 304 227 306.5> 105 117<667 680> 329 117<667 680> 378 124<191.5 265.5>
LayerCount: 2
Fore
SplineSet
86 52.5 m 128,-1,1
 34 117 34 117 34 232.5 c 128,-1,2
 34 348 34 348 103 433 c 128,-1,3
 172 518 172 518 280 518 c 0,4,5
 502 518 502 518 502 268 c 0,6,7
 502 151 502 151 430 69.5 c 128,-1,8
 358 -12 358 -12 248 -12 c 128,-1,0
 138 -12 138 -12 86 52.5 c 128,-1,1
176 408 m 1,9,10
 158 350 158 350 158 292 c 128,-1,11
 158 234 158 234 162 202 c 128,-1,12
 166 170 166 170 177 138.5 c 0,13,14
 199.873015873 73 199.873015873 73 267.436507937 73 c 128,-1,15
 335 73 335 73 356.5 109 c 128,-1,16
 378 145 378 145 378 220 c 0,17,18
 378 433 378 433 277 433 c 0,19,20
 219 433 219 433 176 408 c 1,9,10
113 726 m 1,21,22
 138 738 138 738 172 738 c 0,23,24
 222 738 222 738 222 686 c 0,25,26
 222 658 222 658 203 639.5 c 128,-1,27
 184 621 184 621 158.5 621 c 128,-1,28
 133 621 133 621 119 635 c 128,-1,29
 105 649 105 649 105 675.5 c 128,-1,30
 105 702 105 702 113 726 c 1,21,22
337 726 m 1,31,32
 363 738 363 738 396 738 c 0,33,34
 446 738 446 738 446 686 c 0,35,36
 446 658 446 658 427 639.5 c 128,-1,37
 408 621 408 621 382.5 621 c 128,-1,38
 357 621 357 621 343 635 c 128,-1,39
 329 649 329 649 329 675.5 c 128,-1,40
 329 702 329 702 337 726 c 1,31,32
EndSplineSet
EndChar

StartChar: udieresis
Encoding: 252 252 80
Width: 572
Flags: HMW
HStem: -6 101<222 224> 0 21G<431.5 466.5> 486 20G<117.5 159.5 430 464.5> 621 117<175.5 191.5 399.5 415.5>
VStem: 93 99<130 342> 93 121<276.5 447.5> 122 117<667 680> 346 117<667 680> 395 109 395 127
LayerCount: 2
Fore
SplineSet
83 102 m 1,0,-1
 93 310 l 1,1,2
 93 407 93 407 65 494 c 1,3,4
 93 506 93 506 133.5 506 c 0,5,6
 214 506 214 506 214 417 c 0,7,8
 214 367 214 367 203 276.5 c 128,-1,9
 192 186 192 186 192 145 c 0,10,11
 192 95 192 95 237 95 c 0,12,13
 264 95 264 95 300.5 140.5 c 128,-1,14
 337 186 337 186 363.5 242.5 c 128,-1,15
 390 299 390 299 395 335 c 1,16,17
 389 445 389 445 378 494 c 1,18,19
 410 506 410 506 443.5 506 c 128,-1,20
 477 506 477 506 499.5 485 c 128,-1,21
 522 464 522 464 522 433 c 128,-1,22
 522 402 522 402 513 330 c 128,-1,23
 504 258 504 258 504 179.5 c 128,-1,24
 504 101 504 101 522 12 c 1,25,26
 483 0 483 0 451.5 0 c 0,27,28
 390 0 390 0 390 82 c 0,29,30
 390 118 390 118 398 182 c 1,31,32
 358 97 358 97 300.5 45.5 c 128,-1,33
 243 -6 243 -6 184 -6 c 0,34,35
 83 -6 83 -6 83 102 c 1,0,-1
130 726 m 1,36,37
 155 738 155 738 189 738 c 0,38,39
 239 738 239 738 239 686 c 0,40,41
 239 658 239 658 220 639.5 c 128,-1,42
 201 621 201 621 175.5 621 c 128,-1,43
 150 621 150 621 136 635 c 128,-1,44
 122 649 122 649 122 675.5 c 128,-1,45
 122 702 122 702 130 726 c 1,36,37
354 726 m 1,46,47
 380 738 380 738 413 738 c 0,48,49
 463 738 463 738 463 686 c 0,50,51
 463 658 463 658 444 639.5 c 128,-1,52
 425 621 425 621 399.5 621 c 128,-1,53
 374 621 374 621 360 635 c 128,-1,54
 346 649 346 649 346 675.5 c 128,-1,55
 346 702 346 702 354 726 c 1,46,47
EndSplineSet
EndChar

StartChar: ydieresis
Encoding: 255 255 81
Width: 577
Flags: HMW
HStem: -250 86<228.5 304 228.5 359> -250 199<149.5 359> 8 92<219.5 249.5> 486 20G<122.5 164.5 435 469.5> 621 117<180.5 196.5 404.5 420.5>
VStem: 83 108<-173.5 -71.5> 98 93 98 121<287 447.5> 127 117<667 680> 351 117<667 680> 402 125<136 452.5>
LayerCount: 2
Fore
SplineSet
88 166 m 1,0,-1
 98 310 l 1,1,2
 98 407 98 407 70 494 c 1,3,4
 98 506 98 506 138.5 506 c 0,5,6
 219 506 219 506 219 417 c 0,7,8
 219 377 219 377 208 304 c 128,-1,9
 197 231 197 231 197 203.5 c 128,-1,10
 197 176 197 176 198 163.5 c 128,-1,11
 199 151 199 151 202.5 133.5 c 0,12,13
 209.2 100 209.2 100 242.6 100 c 128,-1,14
 276 100 276 100 314.5 153.5 c 128,-1,15
 353 207 353 207 376.5 272 c 128,-1,16
 400 337 400 337 400 375 c 1,17,18
 395 454 395 454 383 494 c 1,19,20
 415 506 415 506 448.5 506 c 128,-1,21
 482 506 482 506 504.5 485 c 128,-1,22
 527 464 527 464 527 429 c 0,23,24
 527 -116.611111111 527 -116.611111111 327 -225.5 c 0,25,26
 282 -250 282 -250 225 -250 c 128,-1,27
 168 -250 168 -250 125.5 -220 c 128,-1,28
 83 -190 83 -190 83 -136 c 0,29,30
 83 -100 83 -100 110 -75.5 c 128,-1,31
 137 -51 137 -51 174 -51 c 0,32,33
 182 -51 182 -51 194 -53 c 1,34,35
 191 -66 191 -66 191 -76 c 0,36,37
 191 -164 191 -164 252 -164 c 0,38,39
 289 -164 289 -164 319 -124 c 128,-1,40
 349 -84 349 -84 366.5 -26 c 0,41,42
 402 91.6571428571 402 91.6571428571 402 188 c 1,43,44
 372 107 372 107 320.5 57.5 c 128,-1,45
 269 8 269 8 209 8 c 0,46,47
 88 8 88 8 88 166 c 1,0,-1
135 726 m 1,48,49
 160 738 160 738 194 738 c 0,50,51
 244 738 244 738 244 686 c 0,52,53
 244 658 244 658 225 639.5 c 128,-1,54
 206 621 206 621 180.5 621 c 128,-1,55
 155 621 155 621 141 635 c 128,-1,56
 127 649 127 649 127 675.5 c 128,-1,57
 127 702 127 702 135 726 c 1,48,49
359 726 m 1,58,59
 385 738 385 738 418 738 c 0,60,61
 468 738 468 738 468 686 c 0,62,63
 468 658 468 658 449 639.5 c 128,-1,64
 430 621 430 621 404.5 621 c 128,-1,65
 379 621 379 621 365 635 c 128,-1,66
 351 649 351 649 351 675.5 c 128,-1,67
 351 702 351 702 359 726 c 1,58,59
EndSplineSet
EndChar

StartChar: otilde
Encoding: 245 245 82
Width: 540
Flags: HMW
HStem: -12 85<222 317 222 321.5> 433 85<258 322.5> 582 89<345.5 390.5 345.5 398.5> 621 50 621 79<167.5 212.5> 681 20G
VStem: 34 124<227 304 227 306.5> 378 124<191.5 265.5>
LayerCount: 2
Fore
SplineSet
86 52.5 m 128,-1,1
 34 117 34 117 34 232.5 c 128,-1,2
 34 348 34 348 103 433 c 128,-1,3
 172 518 172 518 280 518 c 0,4,5
 502 518 502 518 502 268 c 0,6,7
 502 151 502 151 430 69.5 c 128,-1,8
 358 -12 358 -12 248 -12 c 128,-1,0
 138 -12 138 -12 86 52.5 c 128,-1,1
176 408 m 1,9,10
 158 350 158 350 158 292 c 128,-1,11
 158 234 158 234 162 202 c 128,-1,12
 166 170 166 170 177 138.5 c 0,13,14
 199.873015873 73 199.873015873 73 267.436507937 73 c 128,-1,15
 335 73 335 73 356.5 109 c 128,-1,16
 378 145 378 145 378 220 c 0,17,18
 378 433 378 433 277 433 c 0,19,20
 219 433 219 433 176 408 c 1,9,10
451 701 m 1,21,22
 461 682 461 682 461 655.5 c 128,-1,23
 461 629 461 629 436 605.5 c 128,-1,24
 411 582 411 582 378.5 582 c 128,-1,25
 346 582 346 582 279.5 601.5 c 128,-1,26
 213 621 213 621 174.5 621 c 128,-1,27
 136 621 136 621 107 591 c 1,28,29
 97 610 97 610 97 634.5 c 128,-1,30
 97 659 97 659 124 679.5 c 128,-1,31
 151 700 151 700 190 700 c 128,-1,32
 229 700 229 700 287.5 685.5 c 128,-1,33
 346 671 346 671 384 671 c 128,-1,34
 422 671 422 671 451 701 c 1,21,22
EndSplineSet
EndChar

StartChar: atilde
Encoding: 227 227 83
Width: 552
Flags: HMW
HStem: -6 89<178.5 224.5 178.5 225> 0 21G<408.5 449.5> 427 85<259.5 291> 582 89<352.5 397.5 352.5 405.5> 621 50 621 79<174.5 219.5> 681 20G
VStem: 20 122<200.5 254 200.5 271.5> 366 116<63.5 278.5>
LayerCount: 2
Fore
SplineSet
509 471 m 1,0,1
 482 355.5 482 355.5 482 240.25 c 128,-1,2
 482 125 482 125 508 12 c 1,3,4
 472 0 472 0 434 0 c 128,-1,5
 396 0 396 0 381 22.5 c 128,-1,6
 366 45 366 45 366 87.5 c 128,-1,7
 366 130 366 130 379 204 c 1,8,9
 308.161290323 51.6967741935 308.161290323 51.6967741935 242 12 c 0,10,11
 212 -6 212 -6 180 -6 c 0,12,13
 104 -6 104 -6 62 50.5 c 128,-1,14
 20 107 20 107 20 191 c 0,15,16
 20 319 20 319 91 415.5 c 128,-1,17
 162 512 162 512 275.5 512 c 128,-1,18
 389 512 389 512 509 471 c 1,0,1
378 411 m 1,19,20
 325 427 325 427 288 427 c 0,21,22
 213.4 427 213.4 427 176 394 c 1,23,24
 142 310 142 310 142 223 c 0,25,26
 142 177 142 177 156.5 130 c 128,-1,27
 171 83 171 83 201 83 c 0,28,29
 236 83 236 83 291 186 c 128,-1,30
 346 289 346 289 378 411 c 1,19,20
458 701 m 1,31,32
 468 682 468 682 468 655.5 c 128,-1,33
 468 629 468 629 443 605.5 c 128,-1,34
 418 582 418 582 385.5 582 c 128,-1,35
 353 582 353 582 286.5 601.5 c 128,-1,36
 220 621 220 621 181.5 621 c 128,-1,37
 143 621 143 621 114 591 c 1,38,39
 104 610 104 610 104 634.5 c 128,-1,40
 104 659 104 659 131 679.5 c 128,-1,41
 158 700 158 700 197 700 c 128,-1,42
 236 700 236 700 294.5 685.5 c 128,-1,43
 353 671 353 671 391 671 c 128,-1,44
 429 671 429 671 458 701 c 1,31,32
EndSplineSet
EndChar

StartChar: idieresis
Encoding: 239 239 84
Width: 266
Flags: HMW
HStem: -6 21G<113.5 149> 486 20G<120 154.5> 621 117<25.5 41.5 249.5 265.5>
VStem: -28 117<667 680> 60 126<36.5 246.5> 88 98<147.5 337.5> 88 124<246.5 455.5> 196 117<667 680>
LayerCount: 2
Fore
SplineSet
-20 726 m 1,0,1
 6 738 6 738 39 738 c 0,2,3
 89 738 89 738 89 686 c 0,4,5
 89 658 89 658 70 639.5 c 128,-1,6
 51 621 51 621 25.5 621 c 0,7,8
 0 621 0 621 -14 635 c 128,-1,9
 -28 649 -28 649 -28 675.5 c 0,10,11
 -28 702 -28 702 -20 726 c 1,0,1
204 726 m 1,12,13
 230 738 230 738 263 738 c 0,14,15
 313 738 313 738 313 686 c 0,16,17
 313 658 313 658 294 639.5 c 128,-1,18
 275 621 275 621 249.5 621 c 0,19,20
 224 621 224 621 210 635 c 128,-1,21
 196 649 196 649 196 675.5 c 0,22,23
 196 702 196 702 204 726 c 1,12,13
70 497 m 1,24,25
 102 506 102 506 134.5 506 c 0,26,27
 167 506 167 506 189.5 486.5 c 128,-1,28
 212 467 212 467 212 436.5 c 0,29,30
 212 406 212 406 199 329 c 128,-1,31
 186 252 186 252 186 172 c 0,32,33
 186 92 186 92 204 6 c 1,34,35
 172 -6 172 -6 136 -6 c 0,36,37
 60 -6 60 -6 60 59 c 0,38,39
 60 84 60 84 74 163.5 c 128,-1,40
 88 243 88 243 88 292 c 0,41,42
 88 425 88 425 70 497 c 1,24,25
EndSplineSet
EndChar

StartChar: circumflex
Encoding: 710 710 85
Width: 453
Flags: HMW
HStem: 572 21G<81 103 349 372> 750 20G<229 243>
LayerCount: 2
Fore
SplineSet
403 600 m 1,0,1
 390 572 390 572 366.5 572 c 128,-1,2
 343 572 343 572 297 597 c 128,-1,3
 251 622 251 622 213 652 c 1,4,5
 122 572 122 572 92.5 572 c 128,-1,6
 63 572 63 572 50 600 c 1,7,8
 92.8344370861 633.099337748 92.8344370861 633.099337748 111.917218543 655.549668874 c 128,-1,9
 131 678 131 678 151 704.5 c 128,-1,10
 171 731 171 731 172 732 c 0,11,12
 202 770 202 770 243 770 c 1,13,14
 272 719 272 719 319 668.5 c 128,-1,15
 366 618 366 618 403 600 c 1,0,1
EndSplineSet
EndChar

StartChar: ucircumflex
Encoding: 251 251 86
Width: 572
Flags: HMW
HStem: -6 101<222 224> 0 21G<431.5 466.5> 486 20G<117.5 159.5 430 464.5> 572 21G<140 162 408 431> 750 20G<288 302>
VStem: 93 99<130 342> 93 121<276.5 447.5> 395 109 395 127
LayerCount: 2
Fore
SplineSet
83 102 m 1,0,-1
 93 310 l 1,1,2
 93 407 93 407 65 494 c 1,3,4
 93 506 93 506 133.5 506 c 0,5,6
 214 506 214 506 214 417 c 0,7,8
 214 367 214 367 203 276.5 c 128,-1,9
 192 186 192 186 192 145 c 0,10,11
 192 95 192 95 237 95 c 0,12,13
 264 95 264 95 300.5 140.5 c 128,-1,14
 337 186 337 186 363.5 242.5 c 128,-1,15
 390 299 390 299 395 335 c 1,16,17
 389 445 389 445 378 494 c 1,18,19
 410 506 410 506 443.5 506 c 128,-1,20
 477 506 477 506 499.5 485 c 128,-1,21
 522 464 522 464 522 433 c 128,-1,22
 522 402 522 402 513 330 c 128,-1,23
 504 258 504 258 504 179.5 c 128,-1,24
 504 101 504 101 522 12 c 1,25,26
 483 0 483 0 451.5 0 c 0,27,28
 390 0 390 0 390 82 c 0,29,30
 390 118 390 118 398 182 c 1,31,32
 358 97 358 97 300.5 45.5 c 128,-1,33
 243 -6 243 -6 184 -6 c 0,34,35
 83 -6 83 -6 83 102 c 1,0,-1
462 600 m 1,36,37
 449 572 449 572 425.5 572 c 128,-1,38
 402 572 402 572 356 597 c 128,-1,39
 310 622 310 622 272 652 c 1,40,41
 181 572 181 572 151.5 572 c 128,-1,42
 122 572 122 572 109 600 c 1,43,44
 151.834437086 633.099337748 151.834437086 633.099337748 170.917218543 655.549668874 c 128,-1,45
 190 678 190 678 210 704.5 c 128,-1,46
 230 731 230 731 231 732 c 0,47,48
 261 770 261 770 302 770 c 1,49,50
 331 719 331 719 378 668.5 c 128,-1,51
 425 618 425 618 462 600 c 1,36,37
EndSplineSet
EndChar

StartChar: ocircumflex
Encoding: 244 244 87
Width: 540
Flags: HMW
HStem: -12 85<222 317 222 321.5> 433 85<258 322.5> 572 21G<139 161 407 430> 750 20G<287 301>
VStem: 34 124<227 304 227 306.5> 378 124<191.5 265.5>
LayerCount: 2
Fore
SplineSet
86 52.5 m 128,-1,1
 34 117 34 117 34 232.5 c 128,-1,2
 34 348 34 348 103 433 c 128,-1,3
 172 518 172 518 280 518 c 0,4,5
 502 518 502 518 502 268 c 0,6,7
 502 151 502 151 430 69.5 c 128,-1,8
 358 -12 358 -12 248 -12 c 128,-1,0
 138 -12 138 -12 86 52.5 c 128,-1,1
176 408 m 1,9,10
 158 350 158 350 158 292 c 128,-1,11
 158 234 158 234 162 202 c 128,-1,12
 166 170 166 170 177 138.5 c 0,13,14
 199.873015873 73 199.873015873 73 267.436507937 73 c 128,-1,15
 335 73 335 73 356.5 109 c 128,-1,16
 378 145 378 145 378 220 c 0,17,18
 378 433 378 433 277 433 c 0,19,20
 219 433 219 433 176 408 c 1,9,10
461 600 m 1,21,22
 448 572 448 572 424.5 572 c 128,-1,23
 401 572 401 572 355 597 c 128,-1,24
 309 622 309 622 271 652 c 1,25,26
 180 572 180 572 150.5 572 c 128,-1,27
 121 572 121 572 108 600 c 1,28,29
 150.834437086 633.099337748 150.834437086 633.099337748 169.917218543 655.549668874 c 128,-1,30
 189 678 189 678 209 704.5 c 128,-1,31
 229 731 229 731 230 732 c 0,32,33
 260 770 260 770 301 770 c 1,34,35
 330 719 330 719 377 668.5 c 128,-1,36
 424 618 424 618 461 600 c 1,21,22
EndSplineSet
EndChar

StartChar: ecircumflex
Encoding: 234 234 88
Width: 496
Flags: HMW
HStem: -12 84<214.5 290> -12 209<168 388> 223 77<208.5 237.5 205 279> 436 82<238.5 278.5> 572 21G<134 156 402 425> 750 20G<282 296>
VStem: 30 122<184.5 227 184.5 310> 343 111<360 389.5> 367 87
LayerCount: 2
Fore
SplineSet
152 227 m 1,0,1
 152 155 152 155 175 113.5 c 128,-1,2
 198 72 198 72 252 72 c 128,-1,3
 306 72 306 72 336.5 108.5 c 128,-1,4
 367 145 367 145 367 197 c 1,5,6
 401 197 401 197 426 180 c 128,-1,7
 451 163 451 163 451 133 c 0,8,9
 451 71 451 71 385 29.5 c 128,-1,10
 319 -12 319 -12 246 -12 c 0,11,12
 132 -12 132 -12 81 49.5 c 128,-1,13
 30 111 30 111 30 232 c 128,-1,14
 30 353 30 353 98.5 435.5 c 128,-1,15
 167 518 167 518 281 518 c 0,16,17
 359 518 359 518 406.5 482.5 c 128,-1,18
 454 447 454 447 454 372.5 c 128,-1,19
 454 298 454 298 386.5 260.5 c 128,-1,20
 319 223 319 223 222 223 c 0,21,22
 188 223 188 223 152 227 c 1,0,1
153 306 m 1,23,24
 183 300 183 300 216 300 c 0,25,26
 288 300 288 300 337 327 c 1,27,28
 343 351 343 351 343 365 c 0,29,30
 343 400 343 400 318 418 c 128,-1,31
 293 436 293 436 249.5 436 c 128,-1,32
 206 436 206 436 171 408 c 1,33,34
 153 356 153 356 153 306 c 1,23,24
456 600 m 1,35,36
 443 572 443 572 419.5 572 c 128,-1,37
 396 572 396 572 350 597 c 128,-1,38
 304 622 304 622 266 652 c 1,39,40
 175 572 175 572 145.5 572 c 128,-1,41
 116 572 116 572 103 600 c 1,42,43
 145.834437086 633.099337748 145.834437086 633.099337748 164.917218543 655.549668874 c 128,-1,44
 184 678 184 678 204 704.5 c 128,-1,45
 224 731 224 731 225 732 c 0,46,47
 255 770 255 770 296 770 c 1,48,49
 325 719 325 719 372 668.5 c 128,-1,50
 419 618 419 618 456 600 c 1,35,36
EndSplineSet
EndChar

StartChar: acircumflex
Encoding: 226 226 89
Width: 552
Flags: HMW
HStem: -6 89<178.5 224.5 178.5 225> 0 21G<408.5 449.5> 427 85<259.5 291> 572 21G<150 172 418 441> 750 20G<298 312>
VStem: 20 122<200.5 254 200.5 271.5> 366 116<63.5 278.5>
LayerCount: 2
Fore
SplineSet
509 471 m 1,0,1
 482 355.5 482 355.5 482 240.25 c 128,-1,2
 482 125 482 125 508 12 c 1,3,4
 472 0 472 0 434 0 c 128,-1,5
 396 0 396 0 381 22.5 c 128,-1,6
 366 45 366 45 366 87.5 c 128,-1,7
 366 130 366 130 379 204 c 1,8,9
 308.161290323 51.6967741935 308.161290323 51.6967741935 242 12 c 0,10,11
 212 -6 212 -6 180 -6 c 0,12,13
 104 -6 104 -6 62 50.5 c 128,-1,14
 20 107 20 107 20 191 c 0,15,16
 20 319 20 319 91 415.5 c 128,-1,17
 162 512 162 512 275.5 512 c 128,-1,18
 389 512 389 512 509 471 c 1,0,1
378 411 m 1,19,20
 325 427 325 427 288 427 c 0,21,22
 213.4 427 213.4 427 176 394 c 1,23,24
 142 310 142 310 142 223 c 0,25,26
 142 177 142 177 156.5 130 c 128,-1,27
 171 83 171 83 201 83 c 0,28,29
 236 83 236 83 291 186 c 128,-1,30
 346 289 346 289 378 411 c 1,19,20
472 600 m 1,31,32
 459 572 459 572 435.5 572 c 128,-1,33
 412 572 412 572 366 597 c 128,-1,34
 320 622 320 622 282 652 c 1,35,36
 191 572 191 572 161.5 572 c 128,-1,37
 132 572 132 572 119 600 c 1,38,39
 161.834437086 633.099337748 161.834437086 633.099337748 180.917218543 655.549668874 c 128,-1,40
 200 678 200 678 220 704.5 c 128,-1,41
 240 731 240 731 241 732 c 0,42,43
 271 770 271 770 312 770 c 1,44,45
 341 719 341 719 388 668.5 c 128,-1,46
 435 618 435 618 472 600 c 1,31,32
EndSplineSet
EndChar

StartChar: icircumflex
Encoding: 238 238 90
Width: 266
Flags: HMW
HStem: -6 21G<113.5 149> 486 20G<120 154.5> 572 21G<0 22 268 291> 750 20G<148 162>
VStem: 60 126<36.5 246.5> 88 98<147.5 337.5> 88 124<246.5 455.5>
LayerCount: 2
Fore
SplineSet
322 600 m 1,0,1
 309 572 309 572 285.5 572 c 128,-1,2
 262 572 262 572 216 597 c 128,-1,3
 170 622 170 622 132 652 c 1,4,5
 41 572 41 572 11.5 572 c 128,-1,6
 -18 572 -18 572 -31 600 c 1,7,8
 11.8344370861 633.099337748 11.8344370861 633.099337748 30.917218543 655.549668874 c 128,-1,9
 50 678 50 678 70 704.5 c 128,-1,10
 90 731 90 731 91 732 c 0,11,12
 121 770 121 770 162 770 c 1,13,14
 191 719 191 719 238 668.5 c 128,-1,15
 285 618 285 618 322 600 c 1,0,1
70 497 m 1,16,17
 102 506 102 506 134.5 506 c 128,-1,18
 167 506 167 506 189.5 486.5 c 128,-1,19
 212 467 212 467 212 436.5 c 128,-1,20
 212 406 212 406 199 329 c 128,-1,21
 186 252 186 252 186 172 c 128,-1,22
 186 92 186 92 204 6 c 1,23,24
 172 -6 172 -6 136 -6 c 0,25,26
 60 -6 60 -6 60 59 c 0,27,28
 60 84 60 84 74 163.5 c 128,-1,29
 88 243 88 243 88 292 c 0,30,31
 88 425 88 425 70 497 c 1,16,17
EndSplineSet
EndChar

StartChar: cedilla
Encoding: 184 184 91
Width: 316
Flags: HMW
HStem: -250 76<144.5 171 142 203.5> -110 61<170.5 249.5> -110 119<170.5 189.5>
VStem: 89 207<-206.5 -103.5> 122 174<-162.5 -50> 216 80<-149.5 -128.5>
LayerCount: 2
Fore
SplineSet
139 -120 m 1,0,1
 122 -93 122 -93 122 -65 c 0,2,3
 122 -20 122 -20 155 9 c 1,4,-1
 232 9 l 1,5,6
 178 -8 178 -8 178 -59 c 1,7,8
 200 -49 200 -49 230 -49 c 0,9,10
 260 -49 260 -49 278 -70 c 128,-1,11
 296 -91 296 -91 296 -126 c 0,12,13
 296 -180 296 -180 259 -215 c 128,-1,14
 222 -250 222 -250 167 -250 c 0,15,16
 132 -250 132 -250 110.5 -233.5 c 128,-1,17
 89 -217 89 -217 89 -184 c 0,18,19
 89 -172 89 -172 96 -158 c 1,20,21
 122 -174 122 -174 151.5 -174 c 0,22,23
 181 -174 181 -174 198.5 -164.5 c 128,-1,24
 216 -155 216 -155 216 -138 c 0,25,26
 216 -110 216 -110 177 -110 c 0,27,28
 157 -110 157 -110 139 -120 c 1,0,1
EndSplineSet
EndChar

StartChar: ccedilla
Encoding: 231 231 92
Width: 496
Flags: HMW
HStem: -250 76<222.5 249 220 281.5> -110 61<248.5 327.5> -110 186<248.5 267.5> 319 199<213.5 384.5> 430 88<249.5 295>
VStem: 30 123<177.5 248.5 177.5 292.5> 167 207<-206.5 -103.5> 200 174<-162.5 -54.5> 294 80<-149.5 -128.5> 344 116 376 84<92 198>
LayerCount: 2
Fore
SplineSet
217 -120 m 1,0,1
 200 -93 200 -93 200 -62.5 c 0,2,3
 200 -32 200 -32 215 -10 c 1,4,5
 126 -1 126 -1 78 55.5 c 128,-1,6
 30 112 30 112 30 209 c 0,7,8
 30 339 30 339 103 428.5 c 128,-1,9
 176 518 176 518 297 518 c 0,10,11
 366 518 366 518 409 490.5 c 128,-1,12
 452 463 452 463 452 409 c 0,13,14
 452 374 452 374 424 346.5 c 128,-1,15
 396 319 396 319 361 319 c 0,16,17
 353 319 353 319 341 321 c 1,18,19
 344 334 344 334 344 344 c 0,20,21
 344 380 344 380 325 405 c 128,-1,22
 306 430 306 430 262 430 c 0,23,24
 218 430 218 430 180 394 c 1,25,26
 153 324 153 324 153 219 c 0,27,28
 153 76 153 76 261 76 c 0,29,30
 319 76 319 76 347.5 113.5 c 128,-1,31
 376 151 376 151 376 198 c 1,32,33
 410 198 410 198 435 181 c 128,-1,34
 460 164 460 164 460 134 c 0,35,36
 460 75 460 75 404 36 c 128,-1,37
 348 -3 348 -3 276 -10 c 1,38,39
 256 -30 256 -30 256 -59 c 1,40,41
 278 -49 278 -49 308 -49 c 0,42,43
 338 -49 338 -49 356 -70 c 128,-1,44
 374 -91 374 -91 374 -126 c 0,45,46
 374 -180 374 -180 337 -215 c 128,-1,47
 300 -250 300 -250 245 -250 c 0,48,49
 210 -250 210 -250 188.5 -233.5 c 128,-1,50
 167 -217 167 -217 167 -184 c 0,51,52
 167 -172 167 -172 174 -158 c 1,53,54
 200 -174 200 -174 229.5 -174 c 0,55,56
 259 -174 259 -174 276.5 -164.5 c 128,-1,57
 294 -155 294 -155 294 -138 c 0,58,59
 294 -110 294 -110 255 -110 c 0,60,61
 235 -110 235 -110 217 -120 c 1,0,1
EndSplineSet
EndChar

StartChar: quoteleft
Encoding: 8216 8216 93
Width: 304
Flags: HMW
HStem: 441 20 688 21
VStem: 50 157<519.5 545 519.5 557>
LayerCount: 2
Fore
SplineSet
254 693 m 1,0,1
 215 674 215 674 194.5 651 c 128,-1,2
 174 628 174 628 163 591 c 1,3,4
 207 578 207 578 207 532 c 0,5,6
 207 504 207 504 189 457 c 1,7,8
 157 441 157 441 123 441 c 0,9,10
 89 441 89 441 69.5 460.5 c 128,-1,11
 50 480 50 480 50 514 c 0,12,13
 50 582 50 582 99 645.5 c 128,-1,14
 148 709 148 709 210 709 c 0,15,16
 235 709 235 709 254 693 c 1,0,1
EndSplineSet
EndChar

StartChar: three
Encoding: 51 51 94
Width: 557
Flags: HMW
HStem: -12 94<241 301.5 241 304.5> -12 212<113 304.5> 289 74<269 301 262 312.5> 414 248<141 344.5> 568 94<268.5 304.5>
VStem: 45 127<132 139> 72 122<471 488.5 466 548.5> 359 123<472.5 502.5> 379 133<158.5 222.5>
LayerCount: 2
Fore
SplineSet
200 419 m 1,0,1
 180 414 180 414 167 414 c 0,2,3
 127 414 127 414 99.5 436.5 c 128,-1,4
 72 459 72 459 72 497 c 0,5,6
 72 570 72 570 140 616 c 128,-1,7
 208 662 208 662 291.5 662 c 0,8,9
 375 662 375 662 428.5 621.5 c 128,-1,10
 482 581 482 581 482 504 c 0,11,12
 482 414 482 414 402 358 c 1,13,14
 455 341 455 341 483.5 303 c 128,-1,15
 512 265 512 265 512 214 c 0,16,17
 512 113 512 113 429 50.5 c 128,-1,18
 346 -12 346 -12 234 -12 c 0,19,20
 157 -12 157 -12 101 19 c 128,-1,21
 45 50 45 50 45 112 c 0,22,23
 45 152 45 152 72 176 c 128,-1,24
 99 200 99 200 140 200 c 0,25,26
 162 200 162 200 179 195 c 1,27,28
 172 175 172 175 172 157 c 0,29,30
 172 121 172 121 199 101.5 c 128,-1,31
 226 82 226 82 272.5 82 c 0,32,33
 319 82 319 82 349 111.5 c 128,-1,34
 379 141 379 141 379 189 c 0,35,36
 379 237 379 237 353 263 c 128,-1,37
 327 289 327 289 284 289 c 0,38,39
 261 289 261 289 244.5 301.5 c 128,-1,40
 228 314 228 314 228 332.5 c 0,41,42
 228 351 228 351 233 366 c 1,43,44
 251 363 251 363 269 363 c 0,45,46
 315 363 315 363 337 395 c 128,-1,47
 359 427 359 427 359 471 c 0,48,49
 359 515 359 515 337 541.5 c 128,-1,50
 315 568 315 568 277 568 c 0,51,52
 239 568 239 568 213 548 c 1,53,54
 194 514 194 514 194 478 c 0,55,56
 194 442 194 442 200 419 c 1,0,1
EndSplineSet
EndChar

StartChar: seven
Encoding: 55 55 95
Width: 500
Flags: HMW
HStem: -6 21G<160.5 193> 528 116<103.5 267.5> 560 97 639 20G
VStem: 105 142<34.5 70.5 7 117.5>
LayerCount: 2
Fore
SplineSet
58 659 m 1,0,1
 129 644 129 644 237 644 c 0,2,3
 269 644 269 644 328.5 650.5 c 128,-1,4
 388 657 388 657 418 657 c 128,-1,5
 448 657 448 657 464 643 c 128,-1,6
 480 629 480 629 480 592 c 128,-1,7
 480 555 480 555 454 503.5 c 128,-1,8
 428 452 428 452 365 353 c 128,-1,9
 302 254 302 254 274.5 176 c 128,-1,10
 247 98 247 98 247 7 c 1,11,12
 216 -6 216 -6 182 -6 c 128,-1,13
 148 -6 148 -6 126.5 10 c 128,-1,14
 105 26 105 26 105 61.5 c 128,-1,15
 105 97 105 97 142 167.5 c 128,-1,16
 179 238 179 238 225.5 303 c 0,17,18
 353.47107438 481.884297521 353.47107438 481.884297521 373 560 c 1,19,20
 333 557 333 557 249 542.5 c 128,-1,21
 165 528 165 528 128 528 c 128,-1,22
 91 528 91 528 68 549 c 128,-1,23
 45 570 45 570 45 598.5 c 128,-1,24
 45 627 45 627 58 659 c 1,0,1
EndSplineSet
EndChar

StartChar: two
Encoding: 50 50 96
Width: 511
Flags: HMW
HStem: -6 94 6 82 414 248<125 328.5> 568 94<252.5 288.5>
VStem: 44 141<88 148> 56 129 343 123<412.5 503.5>
LayerCount: 2
Fore
SplineSet
441.5 18.5 m 128,-1,1
 418 -6 418 -6 376 -6 c 128,-1,2
 334 -6 334 -6 229 0 c 128,-1,3
 124 6 124 6 67 6 c 1,4,5
 44 40 44 40 44 77.5 c 128,-1,6
 44 115 44 115 75 156.5 c 128,-1,7
 106 198 106 198 150 234.5 c 128,-1,8
 194 271 194 271 237.5 308 c 128,-1,9
 281 345 281 345 312 390 c 128,-1,10
 343 435 343 435 343 475.5 c 128,-1,11
 343 516 343 516 321 542 c 128,-1,12
 299 568 299 568 261 568 c 128,-1,13
 223 568 223 568 198 547 c 1,14,15
 178 517 178 517 178 478.5 c 128,-1,16
 178 440 178 440 184 419 c 1,17,18
 164 414 164 414 151 414 c 0,19,20
 111 414 111 414 83.5 436.5 c 128,-1,21
 56 459 56 459 56 497 c 0,22,23
 56 570 56 570 124 616 c 128,-1,24
 192 662 192 662 275 662 c 128,-1,25
 358 662 358 662 412 617.5 c 128,-1,26
 466 573 466 573 466 495 c 0,27,28
 466 449 466 449 437 402 c 128,-1,29
 408 355 408 355 367 315.5 c 128,-1,30
 326 276 326 276 284.5 238.5 c 0,31,32
 185 148.590361446 185 148.590361446 185 88 c 1,33,34
 342 90 342 90 453 138 c 1,35,36
 465 111 465 111 465 77 c 128,-1,0
 465 43 465 43 441.5 18.5 c 128,-1,1
EndSplineSet
EndChar

StartChar: zero
Encoding: 48 48 97
Width: 612
Flags: HMW
HStem: -12 94<254 362.5 254 367> 568 94<282 358>
VStem: 45 132<250 340.5 250 393> 435 132<285.5 394>
LayerCount: 2
Fore
SplineSet
429.5 253 m 128,-1,1
 435 293 435 293 435 339 c 128,-1,2
 435 385 435 385 430 422 c 128,-1,3
 425 459 425 459 411.5 494.5 c 0,4,5
 383.549295775 568 383.549295775 568 300 568 c 0,6,7
 247 568 247 568 210 527 c 1,8,9
 177 448 177 448 177 308 c 0,10,11
 177 179.724137931 177 179.724137931 214.5 128 c 0,12,13
 247.85 82 247.85 82 312 82 c 0,14,15
 348 82 348 82 373.5 106.5 c 128,-1,16
 399 131 399 131 411.5 172 c 128,-1,0
 424 213 424 213 429.5 253 c 128,-1,1
567 346 m 0,17,18
 567 196 567 196 488 92 c 128,-1,19
 409 -12 409 -12 272 -12 c 0,20,21
 191 -12 191 -12 138.5 31.5 c 128,-1,22
 86 75 86 75 65.5 141.5 c 128,-1,23
 45 208 45 208 45 298 c 0,24,25
 45 449 45 449 124.5 555.5 c 128,-1,26
 204 662 204 662 340 662 c 0,27,28
 421 662 421 662 473.5 617 c 128,-1,29
 526 572 526 572 546.5 504 c 128,-1,30
 567 436 567 436 567 346 c 0,17,18
EndSplineSet
EndChar

StartChar: one
Encoding: 49 49 98
Width: 402
Flags: HMW
HStem: -6 21G<263.5 304> 642 20G<280.5 305>
VStem: 203 130<56.5 348.5> 236 97
LayerCount: 2
Fore
SplineSet
45 514 m 1,0,1
 101.41025641 536.564102564 101.41025641 536.564102564 165 594 c 0,2,3
 196 622 196 622 223 642 c 128,-1,4
 250 662 250 662 289.5 662 c 128,-1,5
 329 662 329 662 357 648 c 1,6,7
 333 458 333 458 333 292 c 128,-1,8
 333 126 333 126 351 6 c 1,9,10
 323 -6 323 -6 286 -6 c 128,-1,11
 249 -6 249 -6 226 18 c 128,-1,12
 203 42 203 42 203 82.5 c 128,-1,13
 203 123 203 123 219 253 c 128,-1,14
 235 383 235 383 236 535 c 1,15,16
 225 525 225 525 199 495 c 0,17,18
 140.933333333 428 140.933333333 428 108.466666667 428 c 128,-1,19
 76 428 76 428 60.5 452 c 128,-1,20
 45 476 45 476 45 514 c 1,0,1
EndSplineSet
EndChar

StartChar: oe
Encoding: 339 339 99
Width: 823
Flags: HMW
HStem: -18 85<208 265.5 541.5 617> -18 210<532.5 715> 223 77<535.5 564.5 532 606> 433 85<244 306 191.5 308.5>
VStem: 20 124<227 304 227 306.5> 364 115<184.5 227 184.5 265.5> 670 108 694 84<84 192>
LayerCount: 2
Fore
SplineSet
89 433 m 128,-1,1
 158 518 158 518 271.5 518 c 128,-1,2
 385 518 385 518 438 448 c 1,3,4
 508 518 508 518 608 518 c 0,5,6
 686 518 686 518 733.5 482.5 c 128,-1,7
 781 447 781 447 781 372.5 c 128,-1,8
 781 298 781 298 713.5 260.5 c 128,-1,9
 646 223 646 223 549 223 c 0,10,11
 515 223 515 223 479 227 c 1,12,13
 479 67 479 67 584 67 c 0,14,15
 633 67 633 67 663.5 103.5 c 128,-1,16
 694 140 694 140 694 192 c 1,17,18
 728 192 728 192 753 175 c 128,-1,19
 778 158 778 158 778 128 c 0,20,21
 778 66 778 66 711.5 24 c 128,-1,22
 645 -18 645 -18 573 -18 c 0,23,24
 456 -18 456 -18 403 52 c 1,25,26
 331 -18 331 -18 227.5 -18 c 128,-1,27
 124 -18 124 -18 72 49 c 128,-1,28
 20 116 20 116 20 232 c 128,-1,0
 20 348 20 348 89 433 c 128,-1,1
162 408 m 1,29,30
 144 350 144 350 144 292 c 128,-1,31
 144 234 144 234 148 201 c 128,-1,32
 152 168 152 168 163 135.5 c 0,33,34
 186.184615385 67 186.184615385 67 253.592307692 67 c 128,-1,35
 321 67 321 67 342.5 105.5 c 128,-1,36
 364 144 364 144 364 220 c 0,37,38
 364 433 364 433 263 433 c 0,39,40
 205 433 205 433 162 408 c 1,29,30
480 306 m 1,41,42
 510 300 510 300 543 300 c 0,43,44
 614 300 614 300 664 327 c 1,45,46
 670 351 670 351 670 365 c 0,47,48
 670 400 670 400 645 418 c 128,-1,49
 620 436 620 436 576.5 436 c 128,-1,50
 533 436 533 436 498 408 c 1,51,52
 480 356 480 356 480 306 c 1,41,42
EndSplineSet
EndChar

StartChar: four
Encoding: 52 52 100
Width: 567
Flags: HMW
HStem: -6 21G<363.5 398.5> 176 88 642 20G<369 400>
VStem: 310 119 310 212<49.5 264> 330 99<281 468.5>
LayerCount: 2
Fore
SplineSet
450 6 m 1,0,1
 418 -6 418 -6 384.5 -6 c 0,2,3
 351 -6 351 -6 330.5 15.5 c 128,-1,4
 310 37 310 37 310 75 c 0,5,6
 310 85 310 85 317 176 c 1,7,8
 156 178 156 178 101 184 c 0,9,10
 25 192 25 192 25 259 c 1,11,12
 169 479 169 479 307 626 c 1,13,14
 339 662 339 662 379.5 662 c 0,15,16
 420 662 420 662 451 652 c 1,17,18
 429 502 429 502 429 281 c 1,19,20
 470 289 470 289 515 304 c 1,21,22
 522 282 522 282 522 249 c 0,23,24
 522 216 522 216 498 195 c 128,-1,25
 474 174 474 174 431 174 c 1,26,27
 436 73 436 73 450 6 c 1,0,1
136 273 m 1,28,29
 185 264 185 264 236.5 264 c 0,30,31
 288 264 288 264 323 267 c 1,32,33
 330 332 330 332 330 410.5 c 0,34,35
 330 489 330 489 327 524 c 1,36,37
 252 446 252 446 136 273 c 1,28,29
EndSplineSet
EndChar

StartChar: five
Encoding: 53 53 101
Width: 556
Flags: HMW
HStem: -12 94<240 300.5 240 307.5> -12 212<113 307.5> 295 109 316 88<291.5 311.5> 531 109 547 93 650 20G
VStem: 45 127<132 139> 378 133<166.5 238.5>
LayerCount: 2
Fore
SplineSet
198.5 101.5 m 128,-1,1
 225 82 225 82 271.5 82 c 128,-1,2
 318 82 318 82 348 115 c 128,-1,3
 378 148 378 148 378 202 c 0,4,5
 378 316 378 316 275 316 c 0,6,7
 256 316 256 316 206.5 305.5 c 128,-1,8
 157 295 157 295 124.5 295 c 128,-1,9
 92 295 92 295 64 307 c 1,10,11
 87 440 87 440 87 559 c 0,12,13
 87 640 87 640 176 640 c 0,14,15
 364 640 364 640 468 670 c 1,16,17
 480 630 480 630 480 598 c 128,-1,18
 480 566 480 566 456.5 548.5 c 128,-1,19
 433 531 433 531 397.5 531 c 128,-1,20
 362 531 362 531 292 538.5 c 128,-1,21
 222 546 222 546 207 547 c 1,22,23
 195 492 195 492 195 389 c 1,24,25
 267 404 267 404 305 404 c 0,26,27
 397 404 397 404 454 360 c 128,-1,28
 511 316 511 316 511 232 c 0,29,30
 511 123 511 123 429.5 55.5 c 128,-1,31
 348 -12 348 -12 233 -12 c 0,32,33
 156 -12 156 -12 100.5 19 c 128,-1,34
 45 50 45 50 45 112 c 0,35,36
 45 152 45 152 72 176 c 128,-1,37
 99 200 99 200 140 200 c 0,38,39
 162 200 162 200 179 195 c 1,40,41
 172 175 172 175 172 157 c 0,42,0
 172 121 172 121 198.5 101.5 c 128,-1,1
EndSplineSet
EndChar

StartChar: six
Encoding: 54 54 102
Width: 556
Flags: HMW
HStem: -12 94<232.5 307 232.5 331.5> 306 88<308 316.5> 464 198<245 429.5> 568 94<296.5 332>
VStem: 45 128<212.5 255 212.5 360> 378 120 378 133<170 232.5>
LayerCount: 2
Fore
SplineSet
176 340 m 1,0,1
 242 394 242 394 328 394 c 0,2,3
 414 394 414 394 462.5 351 c 128,-1,4
 511 308 511 308 511 232 c 0,5,6
 511 131 511 131 438.5 59.5 c 128,-1,7
 366 -12 366 -12 261 -12 c 0,8,9
 156 -12 156 -12 100.5 63 c 128,-1,10
 45 138 45 138 45 251 c 0,11,12
 45 364 45 364 76.5 453.5 c 128,-1,13
 108 543 108 543 179 602.5 c 128,-1,14
 250 662 250 662 348 662 c 0,15,16
 412 662 412 662 455 633.5 c 128,-1,17
 498 605 498 605 498 550 c 0,18,19
 498 511 498 511 471 487.5 c 128,-1,20
 444 464 444 464 412 464 c 0,21,22
 380 464 380 464 364 469 c 1,23,24
 371 489 371 489 371 507 c 0,25,26
 371 568 371 568 312 568 c 0,27,28
 266 568 266 568 226 539 c 1,29,30
 204 505 204 505 190 446.5 c 128,-1,31
 176 388 176 388 176 340 c 1,0,1
173 255 m 1,32,33
 173 82 173 82 275 82 c 0,34,35
 321 82 321 82 349.5 117 c 128,-1,36
 378 152 378 152 378 200.5 c 0,37,38
 378 249 378 249 354.5 277.5 c 128,-1,39
 331 306 331 306 286 306 c 0,40,41
 222 306 222 306 173 255 c 1,32,33
EndSplineSet
EndChar

StartChar: nine
Encoding: 57 57 103
Width: 556
Flags: HMW
HStem: -12 94<225 296 225 310> -12 192<126 310> 270 88<233.5 248> 568 94<255.5 312.5>
VStem: 45 133<434.5 477 434.5 497> 57 121 381 130<409 450.5>
LayerCount: 2
Fore
SplineSet
381 409 m 1,0,1
 381 479 381 479 355 523.5 c 128,-1,2
 329 568 329 568 271 568 c 0,3,4
 234 568 234 568 200 545 c 1,5,6
 178 508 178 508 178 463 c 128,-1,7
 178 418 178 418 200 388 c 128,-1,8
 222 358 222 358 261 358 c 0,9,10
 327 358 327 358 381 409 c 1,0,1
380 324 m 1,11,12
 312 270 312 270 227 270 c 128,-1,13
 142 270 142 270 93.5 313 c 128,-1,14
 45 356 45 356 45 432 c 0,15,16
 45 528 45 528 117.5 595 c 128,-1,17
 190 662 190 662 293.5 662 c 128,-1,18
 397 662 397 662 454 588.5 c 128,-1,19
 511 515 511 515 511 404.5 c 128,-1,20
 511 294 511 294 478.5 203 c 128,-1,21
 446 112 446 112 375.5 50 c 128,-1,22
 305 -12 305 -12 211 -12 c 0,23,24
 148 -12 148 -12 102.5 15.5 c 128,-1,25
 57 43 57 43 57 96 c 0,26,27
 57 134 57 134 84.5 157 c 128,-1,28
 112 180 112 180 143.5 180 c 128,-1,29
 175 180 175 180 191 175 c 1,30,31
 184 155 184 155 184 136 c 0,32,33
 184 82 184 82 243 82 c 0,34,35
 281 82 281 82 309 104.5 c 128,-1,36
 337 127 337 127 351.5 164 c 0,37,38
 380 236.724137931 380 236.724137931 380 324 c 1,11,12
EndSplineSet
EndChar

StartChar: eight
Encoding: 56 56 104
Width: 583
Flags: HMW
HStem: -12 93<256 320.5 256 337.5> 568 94<296 337>
VStem: 45 127<150 198.5> 78 125<455.5 495.5 455.5 533.5> 405 103<488 519> 421 117<152.5 223.5>
LayerCount: 2
Fore
SplineSet
538 212 m 0,0,1
 538 112 538 112 457.5 50 c 128,-1,2
 377 -12 377 -12 276.5 -12 c 128,-1,3
 176 -12 176 -12 110.5 33.5 c 128,-1,4
 45 79 45 79 45 160 c 0,5,6
 45 218 45 218 76.5 267 c 128,-1,7
 108 316 108 316 166 346 c 1,8,9
 78 392 78 392 78 475 c 128,-1,10
 78 558 78 558 156 610 c 128,-1,11
 234 662 234 662 320 662 c 128,-1,12
 406 662 406 662 457 623.5 c 128,-1,13
 508 585 508 585 508 511.5 c 128,-1,14
 508 438 508 438 426 366 c 1,15,16
 477 346 477 346 507.5 306.5 c 128,-1,17
 538 267 538 267 538 212 c 0,0,1
238 315 m 1,18,19
 172 262 172 262 172 182 c 0,20,21
 172 135 172 135 205 108 c 128,-1,22
 238 81 238 81 289 81 c 128,-1,23
 340 81 340 81 380.5 110 c 128,-1,24
 421 139 421 139 421 182.053571429 c 128,-1,25
 421 225.107142857 421 225.107142857 386.298586572 253.611875315 c 128,-1,26
 351.597173145 282.116607774 351.597173145 282.116607774 238 315 c 1,18,19
203 484 m 0,27,28
 203 428 203 428 354 394 c 1,29,30
 405 432 405 432 405 494 c 0,31,32
 405 530 405 530 378.5 549 c 128,-1,33
 352 568 352 568 305.5 568 c 128,-1,34
 259 568 259 568 220 542 c 1,35,36
 203 516 203 516 203 484 c 0,27,28
EndSplineSet
EndChar

StartChar: germandbls
Encoding: 223 223 105
Width: 651
Flags: HMW
HStem: -188 21G<126 161.5> -18 86<412.5 460 412.5 470> -18 199<307.5 470> 664 86<325.5 359.5>
VStem: 5 211 95 121 251 98 251 117<367 429.5> 410 114<575 621.5> 506 115<118 203.5>
LayerCount: 2
Fore
SplineSet
104 163 m 0,0,1
 104 181 104 181 95 397 c 1,2,3
 46 394 46 394 17 380 c 1,4,5
 5 402 5 402 5 426 c 128,-1,6
 5 450 5 450 22 465.5 c 128,-1,7
 39 481 39 481 62 481 c 128,-1,8
 85 481 85 481 95 480 c 1,9,10
 100 593 100 593 175 671.5 c 128,-1,11
 250 750 250 750 363 750 c 0,12,13
 431 750 431 750 477.5 719 c 128,-1,14
 524 688 524 688 524 628 c 0,15,16
 524 592 524 592 499.5 558.5 c 128,-1,17
 475 525 475 525 446 504.5 c 0,18,19
 368 449.362068966 368 449.362068966 368 419.181034483 c 128,-1,20
 368 389 368 389 394 370 c 128,-1,21
 420 351 420 351 457 336.5 c 128,-1,22
 494 322 494 322 531.5 303.5 c 128,-1,23
 569 285 569 285 595 249 c 128,-1,24
 621 213 621 213 621 162 c 0,25,26
 621 83 621 83 560.5 32.5 c 128,-1,27
 500 -18 500 -18 422.5 -18 c 128,-1,28
 345 -18 345 -18 293 12 c 128,-1,29
 241 42 241 42 241 100 c 0,30,31
 241 136 241 136 267.5 158.5 c 128,-1,32
 294 181 294 181 332 181 c 0,33,34
 340 181 340 181 352 179 c 1,35,36
 349 165 349 165 349 156 c 0,37,38
 349 115 349 115 373.5 91.5 c 128,-1,39
 398 68 398 68 434 68 c 128,-1,40
 470 68 470 68 488 88 c 128,-1,41
 506 108 506 108 506 141 c 128,-1,42
 506 174 506 174 479.5 198.5 c 128,-1,43
 453 223 453 223 415.5 237.5 c 128,-1,44
 378 252 378 252 341 268 c 128,-1,45
 304 284 304 284 277.5 313 c 128,-1,46
 251 342 251 342 251 378.5 c 128,-1,47
 251 415 251 415 276 447 c 128,-1,48
 301 479 301 479 330.5 502 c 0,49,50
 410 563.983050847 410 563.983050847 410 597.491525424 c 128,-1,51
 410 631 410 631 390.5 647.5 c 128,-1,52
 371 664 371 664 331 664 c 128,-1,53
 291 664 291 664 259 642 c 1,54,55
 208 581 208 581 208 473 c 1,56,-1
 216 -123 l 2,57,58
 216 -188 216 -188 139 -188 c 0,59,60
 113 -188 113 -188 71 -176 c 1,61,62
 104 -45 104 -45 104 163 c 0,0,1
EndSplineSet
EndChar

StartChar: guillemotleft
Encoding: 171 171 106
Width: 757
Flags: HMW
HStem: 76 21G<322 371 612 661> 512 20G
LayerCount: 2
Fore
SplineSet
413 116 m 1,0,1
 404 76 404 76 356.5 76 c 0,2,3
 309 76 309 76 219 144.5 c 128,-1,4
 129 213 129 213 50 297 c 1,5,6
 299 454 299 454 378 532 c 1,7,8
 417 521 417 521 417 487 c 128,-1,9
 417 453 417 453 367.5 404 c 128,-1,10
 318 355 318 355 229 287 c 1,11,12
 317 174 317 174 413 116 c 1,0,1
703 116 m 1,13,14
 694 76 694 76 646.5 76 c 0,15,16
 599 76 599 76 509 144.5 c 128,-1,17
 419 213 419 213 340 297 c 1,18,19
 589 454 589 454 668 532 c 1,20,21
 707 521 707 521 707 487 c 128,-1,22
 707 453 707 453 657.5 404 c 128,-1,23
 608 355 608 355 519 287 c 1,24,25
 607 174 607 174 703 116 c 1,13,14
EndSplineSet
EndChar

StartChar: guilsinglleft
Encoding: 8249 8249 107
Width: 467
Flags: HMW
HStem: 76 21G<322 371> 512 20G
LayerCount: 2
Fore
SplineSet
413 116 m 1,0,1
 404 76 404 76 356.5 76 c 0,2,3
 309 76 309 76 219 144.5 c 128,-1,4
 129 213 129 213 50 297 c 1,5,6
 299 454 299 454 378 532 c 1,7,8
 417 521 417 521 417 487 c 128,-1,9
 417 453 417 453 367.5 404 c 128,-1,10
 318 355 318 355 229 287 c 1,11,12
 317 174 317 174 413 116 c 1,0,1
EndSplineSet
EndChar

StartChar: guilsinglright
Encoding: 8250 8250 108
Width: 467
Flags: HMW
HStem: 76 21G 512 20G<96 145>
LayerCount: 2
Fore
SplineSet
54 492 m 1,0,1
 63 532 63 532 110.5 532 c 0,2,3
 158 532 158 532 248 463.5 c 128,-1,4
 338 395 338 395 417 311 c 1,5,6
 168 154 168 154 89 76 c 1,7,8
 50 87 50 87 50 121 c 128,-1,9
 50 155 50 155 99.5 204 c 128,-1,10
 149 253 149 253 238 321 c 1,11,12
 150 434 150 434 54 492 c 1,0,1
EndSplineSet
EndChar

StartChar: guillemotright
Encoding: 187 187 109
Width: 757
Flags: HMW
HStem: 76 21G 512 20G<96 145 386 435>
LayerCount: 2
Fore
SplineSet
344 492 m 1,0,1
 353 532 353 532 400.5 532 c 0,2,3
 448 532 448 532 538 463.5 c 128,-1,4
 628 395 628 395 707 311 c 1,5,6
 458 154 458 154 379 76 c 1,7,8
 340 87 340 87 340 121 c 128,-1,9
 340 155 340 155 389.5 204 c 128,-1,10
 439 253 439 253 528 321 c 1,11,12
 440 434 440 434 344 492 c 1,0,1
54 492 m 1,13,14
 63 532 63 532 110.5 532 c 0,15,16
 158 532 158 532 248 463.5 c 128,-1,17
 338 395 338 395 417 311 c 1,18,19
 168 154 168 154 89 76 c 1,20,21
 50 87 50 87 50 121 c 128,-1,22
 50 155 50 155 99.5 204 c 128,-1,23
 149 253 149 253 238 321 c 1,24,25
 150 434 150 434 54 492 c 1,13,14
EndSplineSet
EndChar

StartChar: question
Encoding: 63 63 110
Width: 515
Flags: HMW
HStem: -6 141<218.5 239> 657 93<231.5 280>
VStem: 55 122<548.5 575 534 630> 154 23 154 131<282 347 282 354> 327 133<537 605.5>
LayerCount: 2
Fore
SplineSet
309 518 m 128,-1,1
 327 549 327 549 327 583 c 128,-1,2
 327 617 327 617 309 637 c 128,-1,3
 291 657 291 657 255.5 657 c 128,-1,4
 220 657 220 657 198.5 625 c 128,-1,5
 177 593 177 593 177 554.5 c 128,-1,6
 177 516 177 516 183 487 c 1,7,8
 165 482 165 482 150 482 c 0,9,10
 110 482 110 482 82.5 508.5 c 128,-1,11
 55 535 55 535 55 575 c 0,12,13
 55 653 55 653 125 701.5 c 128,-1,14
 195 750 195 750 278 750 c 128,-1,15
 361 750 361 750 410.5 711.5 c 128,-1,16
 460 673 460 673 460 602 c 0,17,18
 460 559 460 559 432.5 515 c 128,-1,19
 405 471 405 471 372.5 440.5 c 128,-1,20
 340 410 340 410 312.5 368.5 c 128,-1,21
 285 327 285 327 285 288 c 0,22,23
 285 270 285 270 291 249 c 1,24,25
 266 230 266 230 233.5 230 c 128,-1,26
 201 230 201 230 177.5 249.5 c 128,-1,27
 154 269 154 269 154 299.5 c 128,-1,28
 154 330 154 330 172 359 c 128,-1,29
 190 388 190 388 215 412.5 c 128,-1,30
 240 437 240 437 265.5 462 c 128,-1,0
 291 487 291 487 309 518 c 128,-1,1
170 119 m 1,31,32
 200 135 200 135 228 135 c 0,33,34
 295 135 295 135 295 73 c 0,35,36
 295 40 295 40 272.5 17 c 128,-1,37
 250 -6 250 -6 218.5 -6 c 128,-1,38
 187 -6 187 -6 170.5 11.5 c 128,-1,39
 154 29 154 29 154 60.5 c 128,-1,40
 154 92 154 92 170 119 c 1,31,32
EndSplineSet
EndChar

StartChar: questiondown
Encoding: 191 191 111
Width: 515
Flags: HMW
HStem: -244 93<235 283.5 235 286> 371 141<276 296.5>
VStem: 55 133<-99.5 -31> 230 131<159 224> 338 23 338 122<-69 -42.5 -124 -28>
LayerCount: 2
Fore
SplineSet
206 -12 m 128,-1,1
 188 -43 188 -43 188 -77 c 128,-1,2
 188 -111 188 -111 206 -131 c 128,-1,3
 224 -151 224 -151 259.5 -151 c 128,-1,4
 295 -151 295 -151 316.5 -119 c 128,-1,5
 338 -87 338 -87 338 -48.5 c 128,-1,6
 338 -10 338 -10 332 19 c 1,7,8
 350 24 350 24 365 24 c 0,9,10
 405 24 405 24 432.5 -2.5 c 128,-1,11
 460 -29 460 -29 460 -69 c 0,12,13
 460 -147 460 -147 390 -195.5 c 128,-1,14
 320 -244 320 -244 237 -244 c 128,-1,15
 154 -244 154 -244 104.5 -205.5 c 128,-1,16
 55 -167 55 -167 55 -96 c 0,17,18
 55 -53 55 -53 82.5 -9 c 128,-1,19
 110 35 110 35 142.5 65.5 c 128,-1,20
 175 96 175 96 202.5 137.5 c 128,-1,21
 230 179 230 179 230 218 c 0,22,23
 230 236 230 236 224 257 c 1,24,25
 249 276 249 276 281.5 276 c 128,-1,26
 314 276 314 276 337.5 256.5 c 128,-1,27
 361 237 361 237 361 206.5 c 128,-1,28
 361 176 361 176 343 147 c 128,-1,29
 325 118 325 118 299.5 93.5 c 128,-1,30
 274 69 274 69 249 44 c 128,-1,0
 224 19 224 19 206 -12 c 128,-1,1
345 387 m 1,31,32
 315 371 315 371 287 371 c 0,33,34
 220 371 220 371 220 433 c 0,35,36
 220 466 220 466 242.5 489 c 128,-1,37
 265 512 265 512 296.5 512 c 128,-1,38
 328 512 328 512 344.5 494.5 c 128,-1,39
 361 477 361 477 361 445.5 c 128,-1,40
 361 414 361 414 345 387 c 1,31,32
EndSplineSet
EndChar

StartChar: at
Encoding: 64 64 112
Width: 794
Flags: HMW
HStem: -12 59<290.5 380> 134 98<333.5 349 599 644> 479 89<378 405> 659 59<363 486.5>
VStem: 35 78<264.5 397 264.5 440> 184 116<302.5 344.5 302.5 367.5> 459 103<247.5 370> 681 78<325.5 440.5>
LayerCount: 2
Fore
SplineSet
474 68 m 1,0,1
 485 55 485 55 485 38 c 0,2,3
 485 -12 485 -12 357 -12 c 0,4,5
 209 -12 209 -12 122 83 c 128,-1,6
 35 178 35 178 35 337 c 128,-1,7
 35 496 35 496 144 607 c 128,-1,8
 253 718 253 718 412 718 c 128,-1,9
 571 718 571 718 665 621.5 c 128,-1,10
 759 525 759 525 759 370 c 0,11,12
 759 271 759 271 714 202.5 c 128,-1,13
 669 134 669 134 583 134 c 0,14,15
 520 134 520 134 489.5 177 c 128,-1,16
 459 220 459 220 459 292 c 1,17,18
 405.252525253 171.858585859 405.252525253 171.858585859 360 146 c 0,19,20
 339 134 339 134 314 134 c 0,21,22
 249 134 249 134 216.5 177 c 128,-1,23
 184 220 184 220 184 291 c 0,24,25
 184 414 184 414 237.5 491 c 128,-1,26
 291 568 291 568 393 568 c 128,-1,27
 495 568 495 568 582 540 c 1,28,29
 562 445 562 445 562 337 c 0,30,31
 562 294 562 294 576 263 c 128,-1,32
 590 232 590 232 623 232 c 0,33,34
 681 232 681 232 681 351 c 0,35,36
 681 488 681 488 605 573.5 c 128,-1,37
 529 659 529 659 397 659 c 0,38,39
 293 659 293 659 203 593 c 1,40,41
 162 550 162 550 137.5 484.5 c 128,-1,42
 113 419 113 419 113 351 c 0,43,44
 113 216 113 216 182 131.5 c 128,-1,45
 251 47 251 47 377 47 c 0,46,47
 436 47 436 47 474 68 c 1,0,1
461 468 m 1,48,49
 421 479 421 479 386 479 c 128,-1,50
 351 479 351 479 325 460 c 1,51,52
 300 404 300 404 300 323 c 0,53,54
 300 287 300 287 313 259.5 c 128,-1,55
 326 232 326 232 354 232 c 0,56,57
 385 232 385 232 420.5 324 c 128,-1,58
 456 416 456 416 461 468 c 1,48,49
EndSplineSet
EndChar

StartChar: quotedbl
Encoding: 34 34 113
Width: 454
Flags: HMW
HStem: 551 199<77 155.5 129.5 313>
VStem: 87 114<676.5 707> 290 114<676.5 707>
LayerCount: 2
Fore
SplineSet
50 569 m 1,0,1
 87 635 87 635 87 700 c 0,2,3
 87 723 87 723 83 743 c 1,4,5
 115 750 115 750 136 750 c 0,6,7
 201 750 201 750 201 694 c 0,8,9
 201 652 201 652 161.5 601.5 c 128,-1,10
 122 551 122 551 83 551 c 0,11,12
 62 551 62 551 50 569 c 1,0,1
253 569 m 1,13,14
 290 635 290 635 290 700 c 0,15,16
 290 723 290 723 286 743 c 1,17,18
 317 750 317 750 339 750 c 0,19,20
 404 750 404 750 404 694 c 0,21,22
 404 652 404 652 364.5 601.5 c 128,-1,23
 325 551 325 551 286 551 c 0,24,25
 265 551 265 551 253 569 c 1,13,14
EndSplineSet
EndChar

StartChar: quotedblright
Encoding: 8221 8221 114
Width: 504
Flags: HMW
HStem: 442 21G<86 137 286 337> 690 20G<169 203 369 403>
VStem: 97 157<606 631.5> 297 157<606 631.5>
LayerCount: 2
Fore
SplineSet
50 458 m 1,0,1
 89 477 89 477 109.5 500 c 128,-1,2
 130 523 130 523 141 560 c 1,3,4
 97 573 97 573 97 619 c 0,5,6
 97 647 97 647 115 694 c 1,7,8
 147 710 147 710 181 710 c 0,9,10
 215 710 215 710 234.5 690.5 c 128,-1,11
 254 671 254 671 254 637 c 0,12,13
 254 569 254 569 205 505.5 c 128,-1,14
 156 442 156 442 94 442 c 0,15,16
 69 442 69 442 50 458 c 1,0,1
250 458 m 1,17,18
 289 477 289 477 309.5 500 c 128,-1,19
 330 523 330 523 341 560 c 1,20,21
 297 573 297 573 297 619 c 0,22,23
 297 647 297 647 315 694 c 1,24,25
 347 710 347 710 381 710 c 0,26,27
 415 710 415 710 434.5 690.5 c 128,-1,28
 454 671 454 671 454 637 c 0,29,30
 454 569 454 569 405 505.5 c 128,-1,31
 356 442 356 442 294 442 c 0,32,33
 269 442 269 442 250 458 c 1,17,18
EndSplineSet
EndChar

StartChar: quotedblleft
Encoding: 8220 8220 115
Width: 504
Flags: HMW
HStem: 441 20 688 21
VStem: 50 157<519.5 545 519.5 557> 250 157<519.5 545 519.5 557>
LayerCount: 2
Fore
SplineSet
254 693 m 1,0,1
 215 674 215 674 194.5 651 c 128,-1,2
 174 628 174 628 163 591 c 1,3,4
 207 578 207 578 207 532 c 0,5,6
 207 504 207 504 189 457 c 1,7,8
 157 441 157 441 123 441 c 0,9,10
 89 441 89 441 69.5 460.5 c 128,-1,11
 50 480 50 480 50 514 c 0,12,13
 50 582 50 582 99 645.5 c 128,-1,14
 148 709 148 709 210 709 c 0,15,16
 235 709 235 709 254 693 c 1,0,1
454 693 m 1,17,18
 415 674 415 674 394.5 651 c 128,-1,19
 374 628 374 628 363 591 c 1,20,21
 407 578 407 578 407 532 c 0,22,23
 407 504 407 504 389 457 c 1,24,25
 357 441 357 441 323 441 c 0,26,27
 289 441 289 441 269.5 460.5 c 128,-1,28
 250 480 250 480 250 514 c 0,29,30
 250 582 250 582 299 645.5 c 128,-1,31
 348 709 348 709 410 709 c 0,32,33
 435 709 435 709 454 693 c 1,17,18
EndSplineSet
EndChar

StartChar: Eacute
Encoding: 201 201 117
Width: 573
Flags: HMW
HStem: -6 100<266 464.5> 6 88 305 111<303 411.5> 330 86<197 353> 592 112 612 92<207 243> 702 20G 772 178<266 398.5>
VStem: 64 133 81 116<290 478.5>
LayerCount: 2
Fore
SplineSet
511 138 m 1,0,1
 523 111 523 111 523 77 c 128,-1,2
 523 43 523 43 499.5 18.5 c 128,-1,3
 476 -6 476 -6 442 -6 c 0,4,5
 336 -6 336 -6 110 6 c 0,6,7
 92 7 92 7 78 17.5 c 128,-1,8
 64 28 64 28 64 44 c 0,9,10
 64 97 64 97 72.5 223 c 128,-1,11
 81 349 81 349 81 458.5 c 0,12,13
 81 568 81 568 60 710 c 1,14,15
 134 704 134 704 259 704 c 0,16,17
 384 704 384 704 498 722 c 1,18,19
 510 700 510 700 510 669.5 c 0,20,21
 510 639 510 639 486.5 615.5 c 128,-1,22
 463 592 463 592 428.5 592 c 0,23,24
 394 592 394 592 318.5 602 c 128,-1,25
 243 612 243 612 207 612 c 1,26,27
 199 511 199 511 198 422 c 1,28,29
 261 416 261 416 333.5 416 c 0,30,31
 406 416 406 416 458 437 c 1,32,33
 470 415 470 415 470 384.5 c 0,34,35
 470 354 470 354 446.5 329.5 c 128,-1,36
 423 305 423 305 390.5 305 c 0,37,38
 358 305 358 305 294 317.5 c 128,-1,39
 230 330 230 330 197 330 c 1,40,41
 197 172 197 172 204 98 c 1,42,43
 252 94 252 94 279 94 c 0,44,45
 411 94 411 94 511 138 c 1,0,1
235 810 m 1,46,47
 325 860 325 860 374 950 c 1,48,49
 414 950 414 950 441.5 935.5 c 128,-1,50
 469 921 469 921 469 893 c 0,51,52
 469 853 469 853 394.5 812.5 c 128,-1,53
 320 772 320 772 276 772 c 0,54,55
 243 772 243 772 235 810 c 1,46,47
EndSplineSet
EndChar

StartChar: Oacute
Encoding: 211 211 119
Width: 692
Flags: HMW
HStem: -12 94<289 423 289 426.5> 630 92<309 403> 772 178<310 442.5>
VStem: 30 132<269 382 269 436.5> 530 132<303 437>
LayerCount: 2
Fore
SplineSet
530 364 m 0,0,1
 530 483 530 483 481.5 556.5 c 128,-1,2
 433 630 433 630 330 630 c 0,3,4
 268 630 268 630 220 590 c 1,5,6
 193 548 193 548 177.5 477 c 128,-1,7
 162 406 162 406 162 342 c 0,8,9
 162 224 162 224 210 153 c 128,-1,10
 258 82 258 82 362 82 c 0,11,12
 419 82 419 82 459 128.5 c 0,13,14
 530 211.0375 530 211.0375 530 364 c 0,0,1
106 84.5 m 128,-1,16
 30 181 30 181 30 337.5 c 128,-1,17
 30 494 30 494 124 608 c 128,-1,18
 218 722 218 722 363.5 722 c 128,-1,19
 509 722 509 722 585.5 624 c 128,-1,20
 662 526 662 526 662 369 c 128,-1,21
 662 212 662 212 568 100 c 128,-1,22
 474 -12 474 -12 328 -12 c 128,-1,15
 182 -12 182 -12 106 84.5 c 128,-1,16
279 810 m 1,23,24
 369 860 369 860 418 950 c 1,25,26
 458 950 458 950 485.5 935.5 c 128,-1,27
 513 921 513 921 513 893 c 0,28,29
 513 853 513 853 438.5 812.5 c 128,-1,30
 364 772 364 772 320 772 c 0,31,32
 287 772 287 772 279 810 c 1,23,24
EndSplineSet
Substitution2: "'swsh' Swash in Latin lookup 3 subtable" Oacute.swash
EndChar

StartChar: Uacute
Encoding: 218 218 120
Width: 671
Flags: HMW
HStem: -12 97<280.5 346.5 280.5 354> 690 20G<112 149.5> 696 20G<506 543.5> 772 178<279 411.5>
VStem: 65 121<200.5 252> 78 108 78 137<435 652.5> 477 115<360 413.5 318.5 457> 477 132
LayerCount: 2
Fore
SplineSet
215 629 m 0,0,1
 215 554 215 554 200.5 431 c 128,-1,2
 186 308 186 308 186 241 c 0,3,4
 186 174 186 174 222 129.5 c 128,-1,5
 258 85 258 85 329 85 c 0,6,7
 358 85 358 85 399 99 c 128,-1,8
 440 113 440 113 464 135 c 1,9,10
 477 246 477 246 477 420.5 c 0,11,12
 477 595 477 595 452 704 c 1,13,14
 484 716 484 716 520 716 c 128,-1,15
 556 716 556 716 582.5 693 c 128,-1,16
 609 670 609 670 609 633 c 0,17,18
 609 596 609 596 600.5 506 c 128,-1,19
 592 416 592 416 592 304.5 c 0,20,21
 592 193 592 193 602 108 c 1,22,23
 456 -12 456 -12 306 -12 c 0,24,25
 192 -12 192 -12 128.5 46.5 c 128,-1,26
 65 105 65 105 65 216 c 0,27,28
 65 251 65 251 71.5 342.5 c 128,-1,29
 78 434 78 434 78 476 c 0,30,31
 78 627 78 627 58 698 c 1,32,33
 90 710 90 710 126 710 c 128,-1,34
 162 710 162 710 188.5 687 c 128,-1,35
 215 664 215 664 215 629 c 0,0,1
248 810 m 1,36,37
 338 860 338 860 387 950 c 1,38,39
 427 950 427 950 454.5 935.5 c 128,-1,40
 482 921 482 921 482 893 c 0,41,42
 482 853 482 853 407.5 812.5 c 128,-1,43
 333 772 333 772 289 772 c 0,44,45
 256 772 256 772 248 810 c 1,36,37
EndSplineSet
EndChar

StartChar: Yacute
Encoding: 221 221 121
Width: 581
Flags: HMW
HStem: 0 21G<277.5 315> 690 20G<74.5 142.5> 696 20G<469 493> 772 178<265 397.5>
VStem: 212 143<57.5 200> 469 106<671 684 615 716>
LayerCount: 2
Fore
SplineSet
5 658 m 1,0,1
 29 710 29 710 93 710 c 0,2,3
 212 710 212 710 318 368 c 1,4,5
 380 461 380 461 424.5 557.5 c 128,-1,6
 469 654 469 654 469 716 c 1,7,8
 575 716 575 716 575 660 c 0,9,10
 575 621 575 621 527 544 c 128,-1,11
 479 467 479 467 423.5 385.5 c 128,-1,12
 368 304 368 304 358 266 c 1,13,14
 355 227 355 227 355 170 c 0,15,16
 355 113 355 113 369 12 c 1,17,18
 337 0 337 0 301 0 c 128,-1,19
 265 0 265 0 238.5 23 c 128,-1,20
 212 46 212 46 212 81.5 c 0,21,22
 212 117 212 117 224 263 c 1,23,24
 147 563 147 563 5 658 c 1,0,1
234 810 m 1,25,26
 324 860 324 860 373 950 c 1,27,28
 413 950 413 950 440.5 935.5 c 128,-1,29
 468 921 468 921 468 893 c 0,30,31
 468 853 468 853 393.5 812.5 c 128,-1,32
 319 772 319 772 275 772 c 0,33,34
 242 772 242 772 234 810 c 1,25,26
EndSplineSet
Substitution2: "'swsh' Swash in Latin lookup 3 subtable" Yacute.swash
Substitution2: "'init' Initial Forms in Latin lookup 1 subtable" Yacute.ini
EndChar

StartChar: Odieresis
Encoding: 214 214 124
Width: 692
Flags: HMW
HStem: -12 94<289 423 289 426.5> 630 92<309 403> 821 117<235.5 251.5 459.5 475.5>
VStem: 30 132<269 382 269 436.5> 182 117<867 880> 406 117<867 880> 530 132<303 437>
LayerCount: 2
Fore
SplineSet
530 364 m 0,0,1
 530 483 530 483 481.5 556.5 c 128,-1,2
 433 630 433 630 330 630 c 0,3,4
 268 630 268 630 220 590 c 1,5,6
 193 548 193 548 177.5 477 c 128,-1,7
 162 406 162 406 162 342 c 0,8,9
 162 224 162 224 210 153 c 128,-1,10
 258 82 258 82 362 82 c 0,11,12
 419 82 419 82 459 128.5 c 0,13,14
 530 211.0375 530 211.0375 530 364 c 0,0,1
106 84.5 m 128,-1,16
 30 181 30 181 30 337.5 c 128,-1,17
 30 494 30 494 124 608 c 128,-1,18
 218 722 218 722 363.5 722 c 128,-1,19
 509 722 509 722 585.5 624 c 128,-1,20
 662 526 662 526 662 369 c 128,-1,21
 662 212 662 212 568 100 c 128,-1,22
 474 -12 474 -12 328 -12 c 128,-1,15
 182 -12 182 -12 106 84.5 c 128,-1,16
190 926 m 1,23,24
 215 938 215 938 249 938 c 0,25,26
 299 938 299 938 299 886 c 0,27,28
 299 858 299 858 280 839.5 c 128,-1,29
 261 821 261 821 235.5 821 c 128,-1,30
 210 821 210 821 196 835 c 128,-1,31
 182 849 182 849 182 875.5 c 128,-1,32
 182 902 182 902 190 926 c 1,23,24
414 926 m 1,33,34
 439 938 439 938 473 938 c 0,35,36
 523 938 523 938 523 886 c 0,37,38
 523 858 523 858 504 839.5 c 128,-1,39
 485 821 485 821 459.5 821 c 128,-1,40
 434 821 434 821 420 835 c 128,-1,41
 406 849 406 849 406 875.5 c 128,-1,42
 406 902 406 902 414 926 c 1,33,34
EndSplineSet
Substitution2: "'swsh' Swash in Latin lookup 3 subtable" Odieresis.swash
EndChar

StartChar: Udieresis
Encoding: 220 220 125
Width: 671
Flags: HMW
HStem: -12 97<280.5 346.5 280.5 354> 690 20G<112 149.5> 696 20G<506 543.5> 821 117<221.5 237.5 445.5 461.5>
VStem: 65 121<200.5 252> 78 108 78 137<435 652.5> 168 117<867 880> 392 117<867 880> 477 115<360 413.5 318.5 457> 477 132
LayerCount: 2
Fore
SplineSet
215 629 m 0,0,1
 215 554 215 554 200.5 431 c 128,-1,2
 186 308 186 308 186 241 c 0,3,4
 186 174 186 174 222 129.5 c 128,-1,5
 258 85 258 85 329 85 c 0,6,7
 358 85 358 85 399 99 c 128,-1,8
 440 113 440 113 464 135 c 1,9,10
 477 246 477 246 477 420.5 c 0,11,12
 477 595 477 595 452 704 c 1,13,14
 484 716 484 716 520 716 c 128,-1,15
 556 716 556 716 582.5 693 c 128,-1,16
 609 670 609 670 609 633 c 0,17,18
 609 596 609 596 600.5 506 c 128,-1,19
 592 416 592 416 592 304.5 c 0,20,21
 592 193 592 193 602 108 c 1,22,23
 456 -12 456 -12 306 -12 c 0,24,25
 192 -12 192 -12 128.5 46.5 c 128,-1,26
 65 105 65 105 65 216 c 0,27,28
 65 251 65 251 71.5 342.5 c 128,-1,29
 78 434 78 434 78 476 c 0,30,31
 78 627 78 627 58 698 c 1,32,33
 90 710 90 710 126 710 c 128,-1,34
 162 710 162 710 188.5 687 c 128,-1,35
 215 664 215 664 215 629 c 0,0,1
176 926 m 1,36,37
 202 938 202 938 235 938 c 0,38,39
 285 938 285 938 285 886 c 0,40,41
 285 858 285 858 266 839.5 c 128,-1,42
 247 821 247 821 221.5 821 c 0,43,44
 196 821 196 821 182 835 c 128,-1,45
 168 849 168 849 168 875.5 c 0,46,47
 168 902 168 902 176 926 c 1,36,37
400 926 m 1,48,49
 426 938 426 938 459 938 c 0,50,51
 509 938 509 938 509 886 c 0,52,53
 509 858 509 858 490 839.5 c 128,-1,54
 471 821 471 821 445.5 821 c 0,55,56
 420 821 420 821 406 835 c 128,-1,57
 392 849 392 849 392 875.5 c 0,58,59
 392 902 392 902 400 926 c 1,48,49
EndSplineSet
EndChar

StartChar: Ydieresis
Encoding: 376 376 126
Width: 581
Flags: HMW
HStem: 0 21G<277.5 315> 690 20G<74.5 142.5> 696 20G<469 493> 821 117<201.5 217.5 425.5 441.5>
VStem: 148 117<867 880> 212 143<57.5 200> 372 117<867 880> 469 106<671 684 615 716>
LayerCount: 2
Fore
SplineSet
5 658 m 1,0,1
 29 710 29 710 93 710 c 0,2,3
 212 710 212 710 318 368 c 1,4,5
 380 461 380 461 424.5 557.5 c 128,-1,6
 469 654 469 654 469 716 c 1,7,8
 575 716 575 716 575 660 c 0,9,10
 575 621 575 621 527 544 c 128,-1,11
 479 467 479 467 423.5 385.5 c 128,-1,12
 368 304 368 304 358 266 c 1,13,14
 355 227 355 227 355 170 c 0,15,16
 355 113 355 113 369 12 c 1,17,18
 337 0 337 0 301 0 c 128,-1,19
 265 0 265 0 238.5 23 c 128,-1,20
 212 46 212 46 212 81.5 c 0,21,22
 212 117 212 117 224 263 c 1,23,24
 147 563 147 563 5 658 c 1,0,1
156 926 m 1,25,26
 181 938 181 938 215 938 c 0,27,28
 265 938 265 938 265 886 c 0,29,30
 265 858 265 858 246 839.5 c 128,-1,31
 227 821 227 821 201.5 821 c 0,32,33
 176 821 176 821 162 835 c 128,-1,34
 148 849 148 849 148 875.5 c 0,35,36
 148 902 148 902 156 926 c 1,25,26
380 926 m 1,37,38
 405 938 405 938 439 938 c 0,39,40
 489 938 489 938 489 886 c 0,41,42
 489 858 489 858 470 839.5 c 128,-1,43
 451 821 451 821 425.5 821 c 0,44,45
 400 821 400 821 386 835 c 128,-1,46
 372 849 372 849 372 875.5 c 0,47,48
 372 902 372 902 380 926 c 1,37,38
EndSplineSet
Substitution2: "'swsh' Swash in Latin lookup 3 subtable" Ydieresis.swash
Substitution2: "'init' Initial Forms in Latin lookup 1 subtable" Ydieresis.ini
EndChar

StartChar: Atilde
Encoding: 195 195 129
Width: 615
Flags: HMW
HStem: -6 21G<480 531.5> 0 21G<71 101.5> 192 90<269.5 275.5 253 305> 696 20G<287 337> 782 89<378.5 423.5 378.5 431.5> 821 50 821 79<200.5 245.5> 881 20G
VStem: 10 121<17.5 123>
LayerCount: 2
Fore
SplineSet
224 702 m 1,0,1
 266 716 266 716 300 716 c 0,2,3
 352 716 352 716 381 679.5 c 128,-1,4
 410 643 410 643 426 576 c 0,5,6
 431 556 431 556 446.5 488 c 128,-1,7
 462 420 462 420 472 377.5 c 0,8,9
 502.791208791 246.637362637 502.791208791 246.637362637 528.395604396 174.818681319 c 128,-1,10
 554 103 554 103 610 60 c 1,11,12
 598 30 598 30 570.5 12 c 128,-1,13
 543 -6 543 -6 511 -6 c 0,14,15
 438 -6 438 -6 404 104 c 0,16,17
 388 155 388 155 375 204 c 1,18,19
 340 192 340 192 288.5 192 c 128,-1,20
 237 192 237 192 162 203 c 1,21,22
 131 82 131 82 131 21 c 0,23,24
 131 8 131 8 132 2 c 1,25,26
 119 0 119 0 88 0 c 128,-1,27
 57 0 57 0 33.5 19.5 c 128,-1,28
 10 39 10 39 10 75 c 0,29,30
 10 125 10 125 106 368 c 128,-1,31
 202 611 202 611 224 702 c 1,0,1
185 287 m 1,32,33
 225 282 225 282 266.5 282 c 128,-1,34
 308 282 308 282 355 291 c 1,35,36
 346 332 346 332 294 605 c 1,37,38
 232 444 232 444 185 287 c 1,32,33
484 901 m 1,39,40
 494 882 494 882 494 855.5 c 128,-1,41
 494 829 494 829 469 805.5 c 128,-1,42
 444 782 444 782 411.5 782 c 128,-1,43
 379 782 379 782 312.5 801.5 c 128,-1,44
 246 821 246 821 207.5 821 c 128,-1,45
 169 821 169 821 140 791 c 1,46,47
 130 810 130 810 130 834.5 c 128,-1,48
 130 859 130 859 157 879.5 c 128,-1,49
 184 900 184 900 223 900 c 128,-1,50
 262 900 262 900 320.5 885.5 c 128,-1,51
 379 871 379 871 417 871 c 128,-1,52
 455 871 455 871 484 901 c 1,39,40
EndSplineSet
Substitution2: "'swsh' Swash in Latin lookup 3 subtable" Atilde.swash
Substitution2: "'init' Initial Forms in Latin lookup 1 subtable" Atilde.ini
EndChar

StartChar: Edieresis
Encoding: 203 203 130
Width: 573
Flags: HMW
HStem: -6 100<266 464.5> 6 88 305 111<303 411.5> 330 86<197 353> 592 112 612 92<207 243> 702 20G 821 117<186.5 202.5 410.5 426.5>
VStem: 64 133 81 116<290 478.5> 133 117<867 880> 357 117<867 880>
LayerCount: 2
Fore
SplineSet
511 138 m 1,0,1
 523 111 523 111 523 77 c 128,-1,2
 523 43 523 43 499.5 18.5 c 128,-1,3
 476 -6 476 -6 442 -6 c 0,4,5
 336 -6 336 -6 110 6 c 0,6,7
 92 7 92 7 78 17.5 c 128,-1,8
 64 28 64 28 64 44 c 0,9,10
 64 97 64 97 72.5 223 c 128,-1,11
 81 349 81 349 81 458.5 c 0,12,13
 81 568 81 568 60 710 c 1,14,15
 134 704 134 704 259 704 c 0,16,17
 384 704 384 704 498 722 c 1,18,19
 510 700 510 700 510 669.5 c 0,20,21
 510 639 510 639 486.5 615.5 c 128,-1,22
 463 592 463 592 428.5 592 c 0,23,24
 394 592 394 592 318.5 602 c 128,-1,25
 243 612 243 612 207 612 c 1,26,27
 199 511 199 511 198 422 c 1,28,29
 261 416 261 416 333.5 416 c 0,30,31
 406 416 406 416 458 437 c 1,32,33
 470 415 470 415 470 384.5 c 0,34,35
 470 354 470 354 446.5 329.5 c 128,-1,36
 423 305 423 305 390.5 305 c 0,37,38
 358 305 358 305 294 317.5 c 128,-1,39
 230 330 230 330 197 330 c 1,40,41
 197 172 197 172 204 98 c 1,42,43
 252 94 252 94 279 94 c 0,44,45
 411 94 411 94 511 138 c 1,0,1
141 926 m 1,46,47
 167 938 167 938 200 938 c 0,48,49
 250 938 250 938 250 886 c 0,50,51
 250 858 250 858 231 839.5 c 128,-1,52
 212 821 212 821 186.5 821 c 0,53,54
 161 821 161 821 147 835 c 128,-1,55
 133 849 133 849 133 875.5 c 0,56,57
 133 902 133 902 141 926 c 1,46,47
365 926 m 1,58,59
 390 938 390 938 424 938 c 0,60,61
 474 938 474 938 474 886 c 0,62,63
 474 858 474 858 455 839.5 c 128,-1,64
 436 821 436 821 410.5 821 c 0,65,66
 385 821 385 821 371 835 c 128,-1,67
 357 849 357 849 357 875.5 c 0,68,69
 357 902 357 902 365 926 c 1,58,59
EndSplineSet
EndChar

StartChar: Ccedilla
Encoding: 199 199 131
Width: 612
Flags: HMW
HStem: -250 76<283.5 310 281 342.5> -110 61<309.5 388.5> -11 96 625 97<307 367>
VStem: 25 134<279 385.5 279 434.5> 228 207<-206.5 -103.5> 261 174<-162.5 -54.5> 355 80<-149.5 -128.5> 445 147 473 119<237.5 245.5 151 294>
LayerCount: 2
Fore
SplineSet
278 -120 m 1,0,1
 261 -93 261 -93 261 -62.5 c 128,-1,2
 261 -32 261 -32 276 -10 c 1,3,4
 153 2 153 2 89 93.5 c 128,-1,5
 25 185 25 185 25 328 c 0,6,7
 25 495 25 495 116.5 608.5 c 128,-1,8
 208 722 208 722 364 722 c 0,9,10
 451 722 451 722 516 671 c 128,-1,11
 581 620 581 620 581 539 c 0,12,13
 581 496 581 496 557 468 c 128,-1,14
 533 440 533 440 498 440 c 128,-1,15
 463 440 463 440 442 449 c 1,16,17
 445 465 445 465 445 483 c 0,18,19
 444 546 444 546 414 585.5 c 128,-1,20
 384 625 384 625 326.5 625 c 128,-1,21
 269 625 269 625 220 588 c 1,22,23
 191 546 191 546 175 478 c 128,-1,24
 159 410 159 410 159 344 c 0,25,26
 159 234 159 234 201.5 159.5 c 128,-1,27
 244 85 244 85 334 85 c 0,28,29
 416.786885246 85 416.786885246 85 446.5 147.5 c 0,30,31
 473 203.24137931 473 203.24137931 473 294 c 1,32,33
 524 294 524 294 558 275.5 c 128,-1,34
 592 257 592 257 592 215 c 0,35,36
 592 123 592 123 515 60 c 128,-1,37
 438 -3 438 -3 336 -11 c 1,38,39
 317 -30 317 -30 317 -59 c 1,40,41
 339 -49 339 -49 369 -49 c 128,-1,42
 399 -49 399 -49 417 -70 c 128,-1,43
 435 -91 435 -91 435 -126 c 0,44,45
 435 -180 435 -180 398 -215 c 128,-1,46
 361 -250 361 -250 306 -250 c 0,47,48
 271 -250 271 -250 249.5 -233.5 c 128,-1,49
 228 -217 228 -217 228 -184 c 0,50,51
 228 -172 228 -172 235 -158 c 1,52,53
 261 -174 261 -174 290.5 -174 c 128,-1,54
 320 -174 320 -174 337.5 -164.5 c 128,-1,55
 355 -155 355 -155 355 -138 c 0,56,57
 355 -110 355 -110 316 -110 c 0,58,59
 296 -110 296 -110 278 -120 c 1,0,1
EndSplineSet
EndChar

StartChar: periodcentered
Encoding: 183 183 132
Width: 257
Flags: HMW
HStem: 174 157<122 144.5>
VStem: 50 157<237.5 258.5>
LayerCount: 2
Fore
SplineSet
68 314 m 1,0,1
 100 331 100 331 133 331 c 0,2,3
 207 331 207 331 207 262 c 0,4,5
 207 225 207 225 182 199.5 c 128,-1,6
 157 174 157 174 122 174 c 0,7,8
 87 174 87 174 68.5 194 c 128,-1,9
 50 214 50 214 50 248.5 c 0,10,11
 50 283 50 283 68 314 c 1,0,1
EndSplineSet
EndChar

StartChar: bullet
Encoding: 8226 8226 133
Width: 335
Flags: HMW
HStem: 135 235<163 191.5>
VStem: 50 235<230 252.5>
LayerCount: 2
Fore
SplineSet
77 345 m 1,0,1
 130 370 130 370 181.5 370 c 0,2,3
 233 370 233 370 259 342.5 c 128,-1,4
 285 315 285 315 285 263 c 0,5,6
 285 211 285 211 247.5 173 c 128,-1,7
 210 135 210 135 160.5 135 c 0,8,9
 111 135 111 135 80.5 160.5 c 128,-1,10
 50 186 50 186 50 231.5 c 0,11,12
 50 277 50 277 77 345 c 1,0,1
EndSplineSet
EndChar

StartChar: bar
Encoding: 124 124 134
Width: 252
Flags: HMW
HStem: -250 21G<104 130.5> 910 20G<121.5 147.5>
VStem: 70 95 87 78<265.5 462 184 489.5> 87 95
LayerCount: 2
Fore
SplineSet
176 -237 m 1,0,1
 148 -250 148 -250 122.5 -250 c 0,2,3
 97 -250 97 -250 83.5 -234.5 c 128,-1,4
 70 -219 70 -219 70 -184.5 c 0,5,6
 70 -150 70 -150 78.5 50.5 c 128,-1,7
 87 251 87 251 87 479.5 c 0,8,9
 87 708 87 708 76 917 c 1,10,11
 104 930 104 930 129.5 930 c 0,12,13
 155 930 155 930 168.5 914.5 c 128,-1,14
 182 899 182 899 182 875 c 0,15,16
 182 806 182 806 173.5 641 c 128,-1,17
 165 476 165 476 165 247 c 0,18,19
 165 18 165 18 176 -237 c 1,0,1
EndSplineSet
EndChar

StartChar: asterisk
Encoding: 42 42 135
Width: 484
Flags: HMW
HStem: 327 21G 328 21G<283.5 318> 484 226<234.5 380.5> 523 106<42 122.5>
LayerCount: 2
Fore
SplineSet
42 523 m 1,0,1
 51 578 51 578 64 603.5 c 128,-1,2
 77 629 77 629 104 629 c 0,3,4
 143 629 143 629 216 554 c 1,5,6
 216 627 216 627 190 705 c 1,7,8
 230 710 230 710 244 710 c 0,9,10
 312 710 312 710 312 661 c 0,11,12
 312 616 312 616 273 548 c 1,13,14
 361 583 361 583 408 619 c 1,15,16
 437 559 437 559 437 532 c 0,17,18
 437 484 437 484 361 484 c 0,19,20
 325 484 325 484 285 493 c 1,21,22
 339 423 339 423 394 386 c 1,23,24
 334 328 334 328 306 328 c 0,25,26
 282.086956522 328 282.086956522 328 270.5 348.5 c 0,27,28
 250.784530387 383.38121547 250.784530387 383.38121547 245.392265193 411.690607735 c 128,-1,29
 240 440 240 440 235 465 c 1,30,31
 181 378 181 378 168 327 c 1,32,33
 85 370 85 370 85 403 c 0,34,35
 85 428 85 428 117.5 455.5 c 128,-1,36
 150 483 150 483 194 502 c 1,37,38
 112 523 112 523 42 523 c 1,0,1
EndSplineSet
EndChar

StartChar: slash
Encoding: 47 47 136
Width: 585
Flags: HMW
HStem: -6 21G<102 133.5> 696 20G<448.5 481>
LayerCount: 2
Fore
SplineSet
36 34 m 1,0,1
 99.4488188976 93.7165354331 99.4488188976 93.7165354331 170 226 c 0,2,3
 218 316 218 316 230.5 339.5 c 128,-1,4
 243 363 243 363 304.5 497 c 128,-1,5
 366 631 366 631 377 652 c 0,6,7
 412 716 412 716 465 716 c 128,-1,8
 518 716 518 716 545 678 c 1,9,10
 478.214285714 599.428571429 478.214285714 599.428571429 368 379 c 0,11,12
 357 357 357 357 318 278.5 c 0,13,14
 223.148148148 87.5802469136 223.148148148 87.5802469136 206 59 c 0,15,16
 168 -6 168 -6 115.5 -6 c 128,-1,17
 63 -6 63 -6 36 34 c 1,0,1
EndSplineSet
EndChar

StartChar: endash
Encoding: 8211 8211 137
Width: 575
Flags: HMW
HStem: 193 96<292 464> 208 96<111 283>
LayerCount: 2
Fore
SplineSet
508 304 m 1,0,1
 520 284 520 284 520 256 c 0,2,3
 520 228 520 228 498 210.5 c 128,-1,4
 476 193 476 193 447 193 c 0,5,6
 418 193 418 193 352.5 200.5 c 128,-1,7
 287 208 287 208 208.5 208 c 0,8,9
 130 208 130 208 67 193 c 1,10,11
 55 213 55 213 55 241 c 0,12,13
 55 269 55 269 77 286.5 c 128,-1,14
 99 304 99 304 128 304 c 0,15,16
 157 304 157 304 222.5 296.5 c 128,-1,17
 288 289 288 289 367 289 c 0,18,19
 446 289 446 289 508 304 c 1,0,1
EndSplineSet
EndChar

StartChar: emdash
Encoding: 8212 8212 138
Width: 875
Flags: HMW
HStem: 193 96 208 96
LayerCount: 2
Fore
SplineSet
808 304 m 1,0,1
 820 284 820 284 820 256 c 0,2,3
 820 228 820 228 798.5 210.5 c 128,-1,4
 777 193 777 193 739.5 193 c 0,5,6
 702 193 702 193 586.5 200.5 c 128,-1,7
 471 208 471 208 326 208 c 0,8,9
 181 208 181 208 67 193 c 1,10,11
 55 213 55 213 55 241 c 0,12,13
 55 269 55 269 77 286.5 c 128,-1,14
 99 304 99 304 135.5 304 c 0,15,16
 172 304 172 304 288 296.5 c 128,-1,17
 404 289 404 289 549 289 c 0,18,19
 694 289 694 289 808 304 c 1,0,1
EndSplineSet
EndChar

StartChar: minus
Encoding: 8722 8722 139
Width: 525
Flags: HMW
HStem: 193 96<276 414> 208 96<111 257>
LayerCount: 2
Fore
SplineSet
458 304 m 1,0,1
 470 284 470 284 470 256 c 0,2,3
 470 228 470 228 448 210.5 c 128,-1,4
 426 193 426 193 398.5 193 c 0,5,6
 371 193 371 193 315.5 200.5 c 128,-1,7
 260 208 260 208 191 208 c 0,8,9
 122 208 122 208 67 193 c 1,10,11
 55 213 55 213 55 241 c 0,12,13
 55 269 55 269 77 286.5 c 128,-1,14
 99 304 99 304 126.5 304 c 0,15,16
 154 304 154 304 213 296.5 c 128,-1,17
 272 289 272 289 339.5 289 c 0,18,19
 407 289 407 289 458 304 c 1,0,1
EndSplineSet
EndChar

StartChar: hyphen
Encoding: 45 45 140
Width: 485
Flags: HMW
HStem: 193 95<328.5 346.5 294 371.5> 209 95<138.5 156.5 113.5 191>
LayerCount: 2
Fore
SplineSet
418 304 m 1,0,1
 430 283 430 283 430 255.5 c 0,2,3
 430 228 430 228 407.5 210.5 c 128,-1,4
 385 193 385 193 358.5 193 c 0,5,6
 332 193 332 193 263.5 201 c 128,-1,7
 195 209 195 209 145.5 209 c 0,8,9
 96 209 96 209 67 193 c 1,10,11
 55 214 55 214 55 241.5 c 0,12,13
 55 269 55 269 77.5 286.5 c 128,-1,14
 100 304 100 304 126.5 304 c 0,15,16
 153 304 153 304 221.5 296 c 128,-1,17
 290 288 290 288 339.5 288 c 0,18,19
 389 288 389 288 418 304 c 1,0,1
EndSplineSet
EndChar

StartChar: plus
Encoding: 43 43 141
Width: 521
Flags: HMW
HStem: 41 21G<248.5 278> 193 96 208 96 436 20G<243 272.5>
VStem: 204 96<99.5 202> 221 96<295 397.5>
LayerCount: 2
Fore
SplineSet
214 208 m 1,0,1
 119 207 119 207 67 193 c 1,2,3
 55 214 55 214 55 241.5 c 0,4,5
 55 269 55 269 77.5 286.5 c 128,-1,6
 100 304 100 304 136 304 c 0,7,8
 147 304 147 304 221 295 c 1,9,10
 221 393 221 393 206 444 c 1,11,12
 227 456 227 456 254.5 456 c 0,13,14
 282 456 282 456 299.5 433.5 c 128,-1,15
 317 411 317 411 317 375 c 0,16,17
 317 372 317 372 307 289 c 1,18,19
 402 290 402 290 454 304 c 1,20,21
 466 283 466 283 466 255.5 c 0,22,23
 466 228 466 228 443.5 210.5 c 128,-1,24
 421 193 421 193 385 193 c 0,25,26
 374 193 374 193 300 202 c 1,27,28
 300 104 300 104 315 53 c 1,29,30
 294 41 294 41 266.5 41 c 0,31,32
 239 41 239 41 221.5 63.5 c 128,-1,33
 204 86 204 86 204 122 c 0,34,35
 204 125 204 125 214 208 c 1,0,1
EndSplineSet
EndChar

StartChar: equal
Encoding: 61 61 142
Width: 525
Flags: HMW
HStem: 110 96<276 414> 125 96<111 257> 276 96<276 414> 291 96<111 257>
LayerCount: 2
Fore
SplineSet
458 221 m 1,0,1
 470 201 470 201 470 173 c 0,2,3
 470 145 470 145 448 127.5 c 128,-1,4
 426 110 426 110 398.5 110 c 0,5,6
 371 110 371 110 315.5 117.5 c 128,-1,7
 260 125 260 125 191 125 c 0,8,9
 122 125 122 125 67 110 c 1,10,11
 55 130 55 130 55 158 c 0,12,13
 55 186 55 186 77 203.5 c 128,-1,14
 99 221 99 221 126.5 221 c 0,15,16
 154 221 154 221 213 213.5 c 128,-1,17
 272 206 272 206 339.5 206 c 0,18,19
 407 206 407 206 458 221 c 1,0,1
458 387 m 1,20,21
 470 367 470 367 470 339 c 0,22,23
 470 311 470 311 448 293.5 c 128,-1,24
 426 276 426 276 398.5 276 c 0,25,26
 371 276 371 276 315.5 283.5 c 128,-1,27
 260 291 260 291 191 291 c 0,28,29
 122 291 122 291 67 276 c 1,30,31
 55 296 55 296 55 324 c 0,32,33
 55 352 55 352 77 369.5 c 128,-1,34
 99 387 99 387 126.5 387 c 0,35,36
 154 387 154 387 213 379.5 c 128,-1,37
 272 372 272 372 339.5 372 c 0,38,39
 407 372 407 372 458 387 c 1,20,21
EndSplineSet
EndChar

StartChar: parenleft
Encoding: 40 40 143
Width: 363
Flags: HMW
HStem: -102 21G<206.5 259> 798 20G<217 245>
VStem: 55 108<256 440.5>
LayerCount: 2
Fore
SplineSet
217 818 m 1,0,1
 308 818 308 818 308 752 c 0,2,3
 308 733 308 733 293 707.5 c 128,-1,4
 278 682 278 682 257 650.5 c 128,-1,5
 236 619 236 619 214.5 578.5 c 128,-1,6
 193 538 193 538 178 472.5 c 128,-1,7
 163 407 163 407 163 330 c 0,8,9
 163 99 163 99 301 -70 c 1,10,11
 279 -102 279 -102 250 -102 c 0,12,13
 207 -102 207 -102 161.5 -38 c 128,-1,14
 116 26 116 26 85.5 132.5 c 128,-1,15
 55 239 55 239 55 350 c 0,16,17
 55 621 55 621 217 818 c 1,0,1
EndSplineSet
EndChar

StartChar: parenright
Encoding: 41 41 144
Width: 363
Flags: HMW
HStem: -102 20 797 21
VStem: 200 108<275.5 460>
LayerCount: 2
Fore
SplineSet
146 -102 m 1,0,1
 55 -102 55 -102 55 -36 c 0,2,3
 55 -17 55 -17 70 8.5 c 128,-1,4
 85 34 85 34 106 65.5 c 128,-1,5
 127 97 127 97 148.5 137.5 c 128,-1,6
 170 178 170 178 185 243.5 c 128,-1,7
 200 309 200 309 200 386 c 0,8,9
 200 617 200 617 62 786 c 1,10,11
 84 818 84 818 113 818 c 0,12,13
 156 818 156 818 201.5 754 c 128,-1,14
 247 690 247 690 277.5 583.5 c 128,-1,15
 308 477 308 477 308 366 c 0,16,17
 308 95 308 95 146 -102 c 1,0,1
EndSplineSet
EndChar

StartChar: dollar
Encoding: 36 36 145
Width: 582
Flags: HMW
HStem: -130 210<276.5 298> -5 85 -5 247 451 211 572 90 572 178<279.5 303 279 323.5>
VStem: 55 122 55 134<436 507.5 436 514.5> 245 92 389 125<484.5 590.5> 411 103 411 126<154.5 247.5>
LayerCount: 2
Fore
SplineSet
322 -1 m 1,0,1
 324.722222222 -71.7777777778 324.722222222 -71.7777777778 331 -122 c 1,2,3
 307 -130 307 -130 290 -130 c 0,4,5
 245 -130 245 -130 245 -91 c 0,6,7
 245 -50 245 -50 248 -5 c 1,8,9
 163 -2 163 -2 104 38.5 c 128,-1,10
 45 79 45 79 45 152 c 0,11,12
 45 192 45 192 71 217 c 128,-1,13
 97 242 97 242 133.5 242 c 128,-1,14
 170 242 170 242 185 234 c 1,15,16
 177 197 177 197 177 185 c 0,17,18
 177 135 177 135 209 107.5 c 128,-1,19
 241 80 241 80 293 80 c 128,-1,20
 345 80 345 80 378 103.5 c 128,-1,21
 411 127 411 127 411 167 c 128,-1,22
 411 207 411 207 384.5 232.5 c 128,-1,23
 358 258 358 258 318.5 271 c 128,-1,24
 279 284 279 284 233 300.5 c 128,-1,25
 187 317 187 317 147.5 334 c 128,-1,26
 108 351 108 351 81.5 384.5 c 128,-1,27
 55 418 55 418 55 464 c 0,28,29
 55 536 55 536 113.5 587.5 c 128,-1,30
 172 639 172 639 258 655 c 1,31,-1
 251 742 l 1,32,33
 269 750 269 750 289.5 750 c 128,-1,34
 310 750 310 750 323.5 734.5 c 128,-1,35
 337 719 337 719 337 695.5 c 128,-1,36
 337 672 337 672 336 662 c 1,37,38
 408 659 408 659 461 632 c 128,-1,39
 514 605 514 605 514 550 c 0,40,41
 514 508 514 508 484.5 479.5 c 128,-1,42
 455 451 455 451 412 451 c 0,43,44
 399 451 399 451 384 454 c 1,45,46
 389 471 389 471 389 491 c 0,47,48
 389 535 389 535 365 553.5 c 128,-1,49
 341 572 341 572 295.5 572 c 128,-1,50
 250 572 250 572 217 557 c 1,51,52
 189 531 189 531 189 497 c 128,-1,53
 189 463 189 463 225 441.5 c 128,-1,54
 261 420 261 420 312 405 c 128,-1,55
 363 390 363 390 414 370.5 c 128,-1,56
 465 351 465 351 501 311 c 128,-1,57
 537 271 537 271 537 212 c 0,58,59
 537 129 537 129 476 71.5 c 128,-1,60
 415 14 415 14 322 -1 c 1,0,1
EndSplineSet
EndChar

StartChar: Agrave
Encoding: 192 192 147
Width: 615
Flags: HMW
HStem: -6 21G<480 531.5> 0 21G<71 101.5> 192 90<269.5 275.5 253 305> 696 20G<287 337> 772 178<238.5 371>
VStem: 10 121<17.5 123>
LayerCount: 2
Fore
SplineSet
224 702 m 1,0,1
 266 716 266 716 300 716 c 0,2,3
 352 716 352 716 381 679.5 c 128,-1,4
 410 643 410 643 426 576 c 0,5,6
 431 556 431 556 446.5 488 c 128,-1,7
 462 420 462 420 472 377.5 c 0,8,9
 502.791208791 246.637362637 502.791208791 246.637362637 528.395604396 174.818681319 c 128,-1,10
 554 103 554 103 610 60 c 1,11,12
 598 30 598 30 570.5 12 c 128,-1,13
 543 -6 543 -6 511 -6 c 0,14,15
 438 -6 438 -6 404 104 c 0,16,17
 388 155 388 155 375 204 c 1,18,19
 340 192 340 192 288.5 192 c 128,-1,20
 237 192 237 192 162 203 c 1,21,22
 131 82 131 82 131 21 c 0,23,24
 131 8 131 8 132 2 c 1,25,26
 119 0 119 0 88 0 c 128,-1,27
 57 0 57 0 33.5 19.5 c 128,-1,28
 10 39 10 39 10 75 c 0,29,30
 10 125 10 125 106 368 c 128,-1,31
 202 611 202 611 224 702 c 1,0,1
185 287 m 1,32,33
 225 282 225 282 266.5 282 c 128,-1,34
 308 282 308 282 355 291 c 1,35,36
 346 332 346 332 294 605 c 1,37,38
 232 444 232 444 185 287 c 1,32,33
402 810 m 1,39,40
 394 772 394 772 361 772 c 0,41,42
 317 772 317 772 242.5 812.5 c 128,-1,43
 168 853 168 853 168 893 c 0,44,45
 168 921 168 921 195.5 935.5 c 128,-1,46
 223 950 223 950 263 950 c 1,47,48
 312 860 312 860 402 810 c 1,39,40
EndSplineSet
Substitution2: "'swsh' Swash in Latin lookup 3 subtable" Agrave.swash
Substitution2: "'init' Initial Forms in Latin lookup 1 subtable" Agrave.ini
EndChar

StartChar: Ecircumflex
Encoding: 202 202 148
Width: 573
Flags: HMW
HStem: -6 100<266 464.5> 6 88 305 111<303 411.5> 330 86<197 353> 592 112 612 92<207 243> 702 20G 772 21G<157 179 425 448> 950 20G<305 319>
VStem: 64 133 81 116<290 478.5>
LayerCount: 2
Fore
SplineSet
511 138 m 1,0,1
 523 111 523 111 523 77 c 128,-1,2
 523 43 523 43 499.5 18.5 c 128,-1,3
 476 -6 476 -6 442 -6 c 0,4,5
 336 -6 336 -6 110 6 c 0,6,7
 92 7 92 7 78 17.5 c 128,-1,8
 64 28 64 28 64 44 c 0,9,10
 64 97 64 97 72.5 223 c 128,-1,11
 81 349 81 349 81 458.5 c 128,-1,12
 81 568 81 568 60 710 c 1,13,14
 134 704 134 704 259 704 c 128,-1,15
 384 704 384 704 498 722 c 1,16,17
 510 700 510 700 510 669.5 c 128,-1,18
 510 639 510 639 486.5 615.5 c 128,-1,19
 463 592 463 592 428.5 592 c 128,-1,20
 394 592 394 592 318.5 602 c 128,-1,21
 243 612 243 612 207 612 c 1,22,23
 199 511 199 511 198 422 c 1,24,25
 261 416 261 416 333.5 416 c 128,-1,26
 406 416 406 416 458 437 c 1,27,28
 470 415 470 415 470 384.5 c 128,-1,29
 470 354 470 354 446.5 329.5 c 128,-1,30
 423 305 423 305 390.5 305 c 128,-1,31
 358 305 358 305 294 317.5 c 128,-1,32
 230 330 230 330 197 330 c 1,33,34
 197 172 197 172 204 98 c 1,35,36
 252 94 252 94 279 94 c 0,37,38
 411 94 411 94 511 138 c 1,0,1
479 800 m 1,39,40
 466 772 466 772 442.5 772 c 128,-1,41
 419 772 419 772 373 797 c 128,-1,42
 327 822 327 822 289 852 c 1,43,44
 198 772 198 772 168.5 772 c 128,-1,45
 139 772 139 772 126 800 c 1,46,47
 168.834437086 833.099337748 168.834437086 833.099337748 187.917218543 855.549668874 c 128,-1,48
 207 878 207 878 227 904.5 c 128,-1,49
 247 931 247 931 248 932 c 0,50,51
 278 970 278 970 319 970 c 1,52,53
 348 919 348 919 395 868.5 c 128,-1,54
 442 818 442 818 479 800 c 1,39,40
EndSplineSet
EndChar

StartChar: Egrave
Encoding: 200 200 149
Width: 573
Flags: HMW
HStem: -6 100<266 464.5> 6 88 305 111<303 411.5> 330 86<197 353> 592 112 612 92<207 243> 702 20G 772 178<235.5 368>
VStem: 64 133 81 116<290 478.5>
LayerCount: 2
Fore
SplineSet
511 138 m 1,0,1
 523 111 523 111 523 77 c 128,-1,2
 523 43 523 43 499.5 18.5 c 128,-1,3
 476 -6 476 -6 442 -6 c 0,4,5
 336 -6 336 -6 110 6 c 0,6,7
 92 7 92 7 78 17.5 c 128,-1,8
 64 28 64 28 64 44 c 0,9,10
 64 97 64 97 72.5 223 c 128,-1,11
 81 349 81 349 81 458.5 c 0,12,13
 81 568 81 568 60 710 c 1,14,15
 134 704 134 704 259 704 c 0,16,17
 384 704 384 704 498 722 c 1,18,19
 510 700 510 700 510 669.5 c 0,20,21
 510 639 510 639 486.5 615.5 c 128,-1,22
 463 592 463 592 428.5 592 c 0,23,24
 394 592 394 592 318.5 602 c 128,-1,25
 243 612 243 612 207 612 c 1,26,27
 199 511 199 511 198 422 c 1,28,29
 261 416 261 416 333.5 416 c 0,30,31
 406 416 406 416 458 437 c 1,32,33
 470 415 470 415 470 384.5 c 0,34,35
 470 354 470 354 446.5 329.5 c 128,-1,36
 423 305 423 305 390.5 305 c 0,37,38
 358 305 358 305 294 317.5 c 128,-1,39
 230 330 230 330 197 330 c 1,40,41
 197 172 197 172 204 98 c 1,42,43
 252 94 252 94 279 94 c 0,44,45
 411 94 411 94 511 138 c 1,0,1
399 810 m 1,46,47
 391 772 391 772 358 772 c 0,48,49
 314 772 314 772 239.5 812.5 c 128,-1,50
 165 853 165 853 165 893 c 0,51,52
 165 921 165 921 192.5 935.5 c 128,-1,53
 220 950 220 950 260 950 c 1,54,55
 309 860 309 860 399 810 c 1,46,47
EndSplineSet
EndChar

StartChar: Igrave
Encoding: 204 204 151
Width: 278
Flags: HMW
HStem: 0 21G<126.5 164> 690 20G<114 151.5> 772 178<71.5 204>
VStem: 61 136<57.5 353.5> 81 116<237.5 472.5> 81 136<356.5 652.5>
LayerCount: 2
Fore
SplineSet
218 12 m 1,0,1
 186 0 186 0 150 0 c 128,-1,2
 114 0 114 0 87.5 23 c 128,-1,3
 61 46 61 46 61 86 c 0,4,5
 61 126 61 126 71 239.5 c 128,-1,6
 81 353 81 353 81 421 c 0,7,8
 81 596 81 596 60 698 c 1,9,10
 92 710 92 710 128 710 c 128,-1,11
 164 710 164 710 190.5 687 c 128,-1,12
 217 664 217 664 217 624 c 0,13,14
 217 584 217 584 207 470.5 c 128,-1,15
 197 357 197 357 197 289 c 0,16,17
 197 114 197 114 218 12 c 1,0,1
235 810 m 1,18,19
 227 772 227 772 194 772 c 0,20,21
 150 772 150 772 75.5 812.5 c 128,-1,22
 1 853 1 853 1 893 c 0,23,24
 1 921 1 921 28.5 935.5 c 128,-1,25
 56 950 56 950 96 950 c 1,26,27
 145 860 145 860 235 810 c 1,18,19
EndSplineSet
Substitution2: "'swsh' Swash in Latin lookup 3 subtable" Igrave.swash
EndChar

StartChar: Ocircumflex
Encoding: 212 212 152
Width: 692
Flags: HMW
HStem: -12 94<289 423 289 426.5> 630 92<309 403> 772 21G<213 235 481 504> 950 20G<361 375>
VStem: 30 132<269 382 269 436.5> 530 132<303 437>
LayerCount: 2
Fore
SplineSet
530 364 m 0,0,1
 530 483 530 483 481.5 556.5 c 128,-1,2
 433 630 433 630 330 630 c 0,3,4
 268 630 268 630 220 590 c 1,5,6
 193 548 193 548 177.5 477 c 128,-1,7
 162 406 162 406 162 342 c 0,8,9
 162 224 162 224 210 153 c 128,-1,10
 258 82 258 82 362 82 c 0,11,12
 419 82 419 82 459 128.5 c 0,13,14
 530 211.0375 530 211.0375 530 364 c 0,0,1
106 84.5 m 128,-1,16
 30 181 30 181 30 337.5 c 128,-1,17
 30 494 30 494 124 608 c 128,-1,18
 218 722 218 722 363.5 722 c 128,-1,19
 509 722 509 722 585.5 624 c 128,-1,20
 662 526 662 526 662 369 c 128,-1,21
 662 212 662 212 568 100 c 128,-1,22
 474 -12 474 -12 328 -12 c 128,-1,15
 182 -12 182 -12 106 84.5 c 128,-1,16
535 800 m 1,23,24
 522 772 522 772 498.5 772 c 128,-1,25
 475 772 475 772 429 797 c 128,-1,26
 383 822 383 822 345 852 c 1,27,28
 254 772 254 772 224.5 772 c 128,-1,29
 195 772 195 772 182 800 c 1,30,31
 224.834437086 833.099337748 224.834437086 833.099337748 243.917218543 855.549668874 c 128,-1,32
 263 878 263 878 283 904.5 c 128,-1,33
 303 931 303 931 304 932 c 0,34,35
 334 970 334 970 375 970 c 1,36,37
 404 919 404 919 451 868.5 c 128,-1,38
 498 818 498 818 535 800 c 1,23,24
EndSplineSet
Substitution2: "'swsh' Swash in Latin lookup 3 subtable" Ocircumflex.swash
EndChar

StartChar: Ograve
Encoding: 210 210 153
Width: 692
Flags: HMW
HStem: -12 94<289 423 289 426.5> 630 92<309 403> 772 178<269.5 402>
VStem: 30 132<269 382 269 436.5> 530 132<303 437>
LayerCount: 2
Fore
SplineSet
530 364 m 0,0,1
 530 483 530 483 481.5 556.5 c 128,-1,2
 433 630 433 630 330 630 c 0,3,4
 268 630 268 630 220 590 c 1,5,6
 193 548 193 548 177.5 477 c 128,-1,7
 162 406 162 406 162 342 c 0,8,9
 162 224 162 224 210 153 c 128,-1,10
 258 82 258 82 362 82 c 0,11,12
 419 82 419 82 459 128.5 c 0,13,14
 530 211.0375 530 211.0375 530 364 c 0,0,1
106 84.5 m 128,-1,16
 30 181 30 181 30 337.5 c 128,-1,17
 30 494 30 494 124 608 c 128,-1,18
 218 722 218 722 363.5 722 c 128,-1,19
 509 722 509 722 585.5 624 c 128,-1,20
 662 526 662 526 662 369 c 128,-1,21
 662 212 662 212 568 100 c 128,-1,22
 474 -12 474 -12 328 -12 c 128,-1,15
 182 -12 182 -12 106 84.5 c 128,-1,16
433 810 m 1,23,24
 425 772 425 772 392 772 c 0,25,26
 348 772 348 772 273.5 812.5 c 128,-1,27
 199 853 199 853 199 893 c 0,28,29
 199 921 199 921 226.5 935.5 c 128,-1,30
 254 950 254 950 294 950 c 1,31,32
 343 860 343 860 433 810 c 1,23,24
EndSplineSet
Substitution2: "'swsh' Swash in Latin lookup 3 subtable" Ograve.swash
EndChar

StartChar: Ucircumflex
Encoding: 219 219 154
Width: 671
Flags: HMW
HStem: -12 97<280.5 346.5 280.5 354> 690 20G<112 149.5> 696 20G<506 543.5> 772 21G<193 215 461 484> 950 20G<341 355>
VStem: 65 121<200.5 252> 78 108 78 137<435 652.5> 477 115<360 413.5 318.5 457> 477 132
LayerCount: 2
Fore
SplineSet
215 629 m 0,0,1
 215 554 215 554 200.5 431 c 128,-1,2
 186 308 186 308 186 241 c 128,-1,3
 186 174 186 174 222 129.5 c 128,-1,4
 258 85 258 85 329 85 c 0,5,6
 358 85 358 85 399 99 c 128,-1,7
 440 113 440 113 464 135 c 1,8,9
 477 246 477 246 477 420.5 c 128,-1,10
 477 595 477 595 452 704 c 1,11,12
 484 716 484 716 520 716 c 128,-1,13
 556 716 556 716 582.5 693 c 128,-1,14
 609 670 609 670 609 633 c 128,-1,15
 609 596 609 596 600.5 506 c 128,-1,16
 592 416 592 416 592 304.5 c 128,-1,17
 592 193 592 193 602 108 c 1,18,19
 456 -12 456 -12 306 -12 c 0,20,21
 192 -12 192 -12 128.5 46.5 c 128,-1,22
 65 105 65 105 65 216 c 0,23,24
 65 251 65 251 71.5 342.5 c 128,-1,25
 78 434 78 434 78 476 c 0,26,27
 78 627 78 627 58 698 c 1,28,29
 90 710 90 710 126 710 c 128,-1,30
 162 710 162 710 188.5 687 c 128,-1,31
 215 664 215 664 215 629 c 0,0,1
515 800 m 1,32,33
 502 772 502 772 478.5 772 c 128,-1,34
 455 772 455 772 409 797 c 128,-1,35
 363 822 363 822 325 852 c 1,36,37
 234 772 234 772 204.5 772 c 128,-1,38
 175 772 175 772 162 800 c 1,39,40
 204.834437086 833.099337748 204.834437086 833.099337748 223.917218543 855.549668874 c 128,-1,41
 243 878 243 878 263 904.5 c 128,-1,42
 283 931 283 931 284 932 c 0,43,44
 314 970 314 970 355 970 c 1,45,46
 384 919 384 919 431 868.5 c 128,-1,47
 478 818 478 818 515 800 c 1,32,33
EndSplineSet
EndChar

StartChar: Ugrave
Encoding: 217 217 155
Width: 671
Flags: HMW
HStem: -12 97<280.5 346.5 280.5 354> 690 20G<112 149.5> 696 20G<506 543.5> 772 178<232.5 365>
VStem: 65 121<200.5 252> 78 108 78 137<435 652.5> 477 115<360 413.5 318.5 457> 477 132
LayerCount: 2
Fore
SplineSet
215 629 m 0,0,1
 215 554 215 554 200.5 431 c 128,-1,2
 186 308 186 308 186 241 c 0,3,4
 186 174 186 174 222 129.5 c 128,-1,5
 258 85 258 85 329 85 c 0,6,7
 358 85 358 85 399 99 c 128,-1,8
 440 113 440 113 464 135 c 1,9,10
 477 246 477 246 477 420.5 c 0,11,12
 477 595 477 595 452 704 c 1,13,14
 484 716 484 716 520 716 c 128,-1,15
 556 716 556 716 582.5 693 c 128,-1,16
 609 670 609 670 609 633 c 0,17,18
 609 596 609 596 600.5 506 c 128,-1,19
 592 416 592 416 592 304.5 c 0,20,21
 592 193 592 193 602 108 c 1,22,23
 456 -12 456 -12 306 -12 c 0,24,25
 192 -12 192 -12 128.5 46.5 c 128,-1,26
 65 105 65 105 65 216 c 0,27,28
 65 251 65 251 71.5 342.5 c 128,-1,29
 78 434 78 434 78 476 c 0,30,31
 78 627 78 627 58 698 c 1,32,33
 90 710 90 710 126 710 c 128,-1,34
 162 710 162 710 188.5 687 c 128,-1,35
 215 664 215 664 215 629 c 0,0,1
396 810 m 1,36,37
 388 772 388 772 355 772 c 0,38,39
 311 772 311 772 236.5 812.5 c 128,-1,40
 162 853 162 853 162 893 c 0,41,42
 162 921 162 921 189.5 935.5 c 128,-1,43
 217 950 217 950 257 950 c 1,44,45
 306 860 306 860 396 810 c 1,36,37
EndSplineSet
EndChar

StartChar: ampersand
Encoding: 38 38 156
Width: 742
Flags: HMW
HStem: -12 100<237 263> -4 21G<625.5 682> 636 88<298.5 328.5>
VStem: 40 124<163 210.5> 100 125<528 559 528 573> 367 103<554 594.5> 543 128<334 371.5>
LayerCount: 2
Fore
SplineSet
532 458 m 1,0,1
 556 466 556 466 588.5 466 c 128,-1,2
 621 466 621 466 646 442.5 c 128,-1,3
 671 419 671 419 671 377 c 0,4,5
 671 260 671 260 555 142 c 1,6,7
 659 85 659 85 738 85 c 1,8,9
 738 -4 738 -4 653 -4 c 0,10,11
 574 -4 574 -4 459 65 c 1,12,13
 340 -12 340 -12 225 -12 c 0,14,15
 136 -12 136 -12 88 33.5 c 128,-1,16
 40 79 40 79 40 166 c 0,17,18
 40 278 40 278 148 368 c 1,19,20
 100 451 100 451 100 514 c 0,21,22
 100 600 100 600 171.5 662 c 128,-1,23
 243 724 243 724 334 724 c 0,24,25
 396 724 396 724 433 693.5 c 128,-1,26
 470 663 470 663 470 606 c 0,27,28
 470 560.2 470 560.2 452.5 533.6 c 128,-1,29
 435 507 435 507 425.5 494 c 128,-1,30
 416 481 416 481 393.5 462 c 128,-1,31
 371 443 371 443 360.5 434.5 c 128,-1,32
 350 426 350 426 322 405.5 c 128,-1,33
 294 385 294 385 286 379 c 1,34,35
 348 286 348 286 473 195 c 1,36,37
 543 277 543 277 543 355 c 0,38,39
 543 408 543 408 532 458 c 1,0,1
197 296 m 1,40,41
 164 250 164 250 164 199 c 0,42,43
 164 88 164 88 273 88 c 0,44,45
 327 88 327 88 381 119 c 1,46,47
 266 207 266 207 197 296 c 1,40,41
358.5 540 m 0,48,49
 367 557 367 557 367 580.5 c 128,-1,50
 367 604 367 604 352 620 c 128,-1,51
 337 636 337 636 305.5 636 c 128,-1,52
 274 636 274 636 246 620 c 1,53,54
 225 591 225 591 225 544 c 128,-1,55
 225 497 225 497 250 442 c 1,56,57
 339.975609756 502.951219512 339.975609756 502.951219512 358.5 540 c 0,48,49
EndSplineSet
EndChar

StartChar: fi
Encoding: 64257 64257 157
Width: 591
Flags: HMW
HStem: -188 21G<126 161.5> -6 21G<445 480> 402 71<208 348.5> 402 92<309.5 476.5> 584 166<293 482> 664 86<334.5 356>
VStem: 5 211 95 121 390 124<37 243.5> 414 100<242.5 243.5 166.5 305.5> 414 127
LayerCount: 2
Fore
SplineSet
104 163 m 0,0,1
 104 181 104 181 95 397 c 1,2,3
 46 394 46 394 17 380 c 1,4,5
 5 402 5 402 5 426 c 128,-1,6
 5 450 5 450 22 465.5 c 128,-1,7
 39 481 39 481 62 481 c 128,-1,8
 85 481 85 481 95 480 c 1,9,10
 100 593 100 593 177.5 671.5 c 128,-1,11
 255 750 255 750 373 750 c 0,12,13
 466 750 466 750 531 712 c 1,14,15
 541 695 541 695 541 663 c 128,-1,16
 541 631 541 631 517 607.5 c 128,-1,17
 493 584 493 584 458.5 584 c 128,-1,18
 424 584 424 584 405 603.5 c 128,-1,19
 386 623 386 623 386 657 c 1,20,21
 372 664 372 664 349 664 c 0,22,23
 299 664 299 664 262 642 c 1,24,25
 237 615 237 615 222.5 567 c 128,-1,26
 208 519 208 519 208 473 c 1,27,-1
 261 473 l 2,28,29
 302 473 302 473 365 483.5 c 128,-1,30
 428 494 428 494 458.5 494 c 128,-1,31
 489 494 489 494 512 475 c 128,-1,32
 535 456 535 456 535 425.5 c 128,-1,33
 535 395 535 395 524.5 320.5 c 128,-1,34
 514 246 514 246 514 205 c 0,35,36
 514 93 514 93 535 6 c 1,37,38
 504 -6 504 -6 468 -6 c 128,-1,39
 432 -6 432 -6 411 10.5 c 128,-1,40
 390 27 390 27 390 58.5 c 128,-1,41
 390 90 390 90 402 165 c 128,-1,42
 414 240 414 240 414 294 c 128,-1,43
 414 348 414 348 409 392 c 1,44,45
 394 402 394 402 351 402 c 128,-1,46
 308 402 308 402 206 399 c 1,47,-1
 216 -123 l 1,48,49
 216 -188 216 -188 139 -188 c 0,50,51
 113 -188 113 -188 71 -176 c 1,52,53
 104 -45 104 -45 104 163 c 0,0,1
EndSplineSet
Ligature2: "'liga' Standard Ligatures in Latin lookup 0 subtable" f i
EndChar

StartChar: Eth
Encoding: 208 208 158
Width: 726
Flags: HMW
HStem: -12 95<369.5 456.5 369.5 483> 293 96<276 359> 308 96 628 90<375 458.5>
VStem: 40 236<330 423> 161 115 564 132<296.5 431.5>
LayerCount: 2
Fore
SplineSet
160 401 m 1,0,1
 158 576 158 576 136 670 c 1,2,3
 280 718 280 718 409.5 718 c 128,-1,4
 539 718 539 718 617.5 624 c 128,-1,5
 696 530 696 530 696 397 c 0,6,7
 696 226.220779221 696 226.220779221 617.5 110 c 0,8,9
 579 53 579 53 516 20.5 c 128,-1,10
 453 -12 453 -12 373 -12 c 0,11,12
 250 -12 250 -12 130 39 c 1,13,14
 159 164 159 164 161 308 c 1,15,16
 95 307 95 307 52 293 c 1,17,18
 40 313 40 313 40 341 c 128,-1,19
 40 369 40 369 62 386.5 c 128,-1,20
 84 404 84 404 111.5 404 c 128,-1,21
 139 404 139 404 160 401 c 1,0,1
277 299 m 1,22,23
 279 187 279 187 285 100 c 1,24,25
 328 83 328 83 382.5 83 c 128,-1,26
 437 83 437 83 473 107 c 128,-1,27
 509 131 509 131 528 173 c 0,28,29
 564 252.578947368 564 252.578947368 564 367 c 0,30,31
 564 469.540540541 564 469.540540541 527.5 545.5 c 0,32,33
 509 584 509 584 474.5 606 c 128,-1,34
 440 628 440 628 391 628 c 128,-1,35
 342 628 342 628 285 613 c 1,36,37
 276 491 276 491 276 389 c 1,38,39
 359 389 359 389 403 404 c 1,40,41
 415 384 415 384 415 356 c 128,-1,42
 415 328 415 328 393 310.5 c 128,-1,43
 371 293 371 293 334 293 c 0,44,45
 321 293 321 293 277 299 c 1,22,23
EndSplineSet
EndChar

StartChar: thorn
Encoding: 254 254 159
Width: 577
Flags: HMW
HStem: -249 21G<112 152> -6 89<276 285 255 371.5> 423 89<366 402.5> 730 20G<120 157.5>
VStem: 55 135 71 146 86 104 425 123<261 312.5>
LayerCount: 2
Fore
SplineSet
186 98 m 1,0,1
 226 83 226 83 280.5 83 c 0,2,3
 335 83 335 83 376 104 c 1,4,5
 425 188 425 188 425 305.5 c 0,6,7
 425 423 425 423 384 423 c 0,8,9
 333 423 333 423 269.5 320 c 128,-1,10
 206 217 206 217 186 98 c 1,0,1
86 323 m 0,11,12
 86 549 86 549 71 738 c 1,13,14
 103 750 103 750 136 750 c 0,15,16
 169 750 169 750 193 727 c 128,-1,17
 217 704 217 704 217 669 c 0,18,19
 217 609 217 609 205 480.5 c 128,-1,20
 193 352 193 352 190 306 c 1,21,22
 236 398 236 398 291.5 455 c 128,-1,23
 347 512 347 512 418 512 c 0,24,25
 489 512 489 512 518.5 456.5 c 128,-1,26
 548 401 548 401 548 316 c 0,27,28
 548 194 548 194 476 94 c 128,-1,29
 404 -6 404 -6 295 -6 c 0,30,31
 233 -6 233 -6 182 14 c 1,32,33
 184 -123 184 -123 199 -237 c 1,34,35
 167 -249 167 -249 133 -249 c 0,36,37
 99 -249 99 -249 77 -226.5 c 128,-1,38
 55 -204 55 -204 55 -165 c 0,39,40
 55 -91 55 -91 70.5 68.5 c 128,-1,41
 86 228 86 228 86 323 c 0,11,12
EndSplineSet
EndChar

StartChar: ae
Encoding: 230 230 160
Width: 803
Flags: HMW
HStem: -12 21G<500.5 597> -7 79 -7 204 223 61 223 77<515.5 544.5 512 586> 305 213<98 321.5> 434 84<253 298.5>
VStem: 35 122 52 105<340 357.5 340 403> 368 91 650 108 674 84<89 197>
LayerCount: 2
Fore
SplineSet
160 316 m 1,0,1
 138 305 138 305 112.5 305 c 0,2,3
 87 305 87 305 69.5 317 c 128,-1,4
 52 329 52 329 52 353 c 0,5,6
 52 423 52 423 129 470.5 c 128,-1,7
 206 518 206 518 296.5 518 c 0,8,9
 387 518 387 518 429 460 c 1,10,11
 495 518 495 518 580.5 518 c 0,12,13
 666 518 666 518 713.5 482.5 c 128,-1,14
 761 447 761 447 761 372.5 c 0,15,16
 761 298 761 298 693.5 260.5 c 128,-1,17
 626 223 626 223 529 223 c 0,18,19
 495 223 495 223 459 227 c 1,20,21
 459 155 459 155 482 113.5 c 128,-1,22
 505 72 505 72 559 72 c 0,23,24
 613 72 613 72 643.5 108.5 c 128,-1,25
 674 145 674 145 674 197 c 1,26,27
 708 197 708 197 733 180 c 128,-1,28
 758 163 758 163 758 133 c 0,29,30
 758 71 758 71 692 29.5 c 128,-1,31
 626 -12 626 -12 553 -12 c 0,32,33
 401 -12 401 -12 357 100 c 1,34,35
 328 49 328 49 276.5 21 c 128,-1,36
 225 -7 225 -7 168.5 -7 c 0,37,38
 112 -7 112 -7 73.5 27.5 c 128,-1,39
 35 62 35 62 35 122.5 c 0,40,41
 35 183 35 183 91.5 233.5 c 128,-1,42
 148 284 148 284 252 284 c 0,43,44
 303 284 303 284 361 270 c 1,45,46
 368 304 368 304 368 337 c 0,47,48
 368 434 368 434 265 434 c 0,49,50
 225 434 225 434 178 416 c 1,51,52
 157 380 157 380 157 345 c 0,53,54
 157 331 157 331 160 316 c 1,0,1
460 306 m 1,55,56
 490 300 490 300 523 300 c 0,57,58
 594 300 594 300 644 327 c 1,59,60
 650 351 650 351 650 365 c 0,61,62
 650 400 650 400 625 418 c 128,-1,63
 600 436 600 436 556.5 436 c 0,64,65
 513 436 513 436 478 408 c 1,66,67
 460 356 460 356 460 306 c 1,55,56
347 210 m 1,68,69
 310 220 310 220 264.5 220 c 0,70,71
 219 220 219 220 185 209 c 1,72,73
 161 178 161 178 161 129 c 0,74,75
 161 103 161 103 170.5 84 c 128,-1,76
 180 65 180 65 201 65 c 0,77,78
 238 65 238 65 286 112 c 128,-1,79
 334 159 334 159 347 210 c 1,68,69
EndSplineSet
EndChar

StartChar: paragraph
Encoding: 182 182 161
Width: 749
Flags: HMW
HStem: -142 102<308.5 346 306.5 388.5> 598 105<490 682.5> 630 73 692 20G<208 337> 724 20G
VStem: 242 245<-93.5 118.5> 354 115<437.5 467.5 374 537> 389 98<54 118.5 6.5 180>
LayerCount: 2
Fore
SplineSet
392 630 m 1,0,-1
 385 630 l 2,1,2
 308 630 308 630 308 461 c 0,3,4
 308 358 308 358 338 251 c 1,5,6
 302 241 302 241 265 241 c 0,7,8
 153 241 153 241 81.5 303 c 128,-1,9
 10 365 10 365 10 472 c 0,10,11
 10 579 10 579 89 645.5 c 128,-1,12
 168 712 168 712 282 712 c 0,13,14
 341 712 341 712 417.5 707.5 c 128,-1,15
 494 703 494 703 530 703 c 0,16,17
 630 703 630 703 727 744 c 1,18,19
 739 716 739 716 739 680 c 0,20,21
 739 644 739 644 717 621 c 128,-1,22
 695 598 695 598 661 598 c 0,23,24
 627 598 627 598 601 601.5 c 128,-1,25
 575 605 575 605 541 612 c 128,-1,26
 507 619 507 619 491 622 c 1,27,28
 469 547 469 547 469 459.5 c 0,29,30
 469 372 469 372 478 244.5 c 128,-1,31
 487 117 487 117 487 64 c 0,32,33
 487 -30 487 -30 449.5 -86 c 128,-1,34
 412 -142 412 -142 331 -142 c 0,35,36
 295 -142 295 -142 268.5 -122.5 c 128,-1,37
 242 -103 242 -103 242 -71 c 0,38,39
 242 -56 242 -56 254 -18 c 1,40,41
 285 -40 285 -40 317 -40 c 0,42,43
 389 -40 389 -40 389 83 c 0,44,45
 389 184 389 184 371.5 312.5 c 128,-1,46
 354 441 354 441 354 516.5 c 0,47,48
 354 592 354 592 392 630 c 1,0,-1
EndSplineSet
EndChar

StartChar: ring
Encoding: 730 730 162
Width: 254
Flags: HMW
HStem: 572 53<120.5 140 120.5 142.5> 694 52<116.5 132.5>
VStem: 39 54<653.5 669.5 653.5 676> 161 53<645 664.5>
LayerCount: 2
Fore
SplineSet
185 599 m 128,-1,1
 156 572 156 572 119.5 572 c 128,-1,2
 83 572 83 572 61 593.5 c 128,-1,3
 39 615 39 615 39 652.5 c 128,-1,4
 39 690 39 690 67 718 c 128,-1,5
 95 746 95 746 133 746 c 128,-1,6
 171 746 171 746 192.5 723 c 128,-1,7
 214 700 214 700 214 663 c 128,-1,0
 214 626 214 626 185 599 c 128,-1,1
104 636.5 m 128,-1,9
 115 625 115 625 129.5 625 c 128,-1,10
 144 625 144 625 152.5 633 c 128,-1,11
 161 641 161 641 161 655.5 c 128,-1,12
 161 670 161 670 149.5 682 c 128,-1,13
 138 694 138 694 123 694 c 128,-1,14
 108 694 108 694 98 688 c 1,15,16
 93 679 93 679 93 663.5 c 128,-1,8
 93 648 93 648 104 636.5 c 128,-1,9
EndSplineSet
EndChar

StartChar: aring
Encoding: 229 229 163
Width: 552
Flags: HMW
HStem: -6 89<178.5 224.5 178.5 225> 0 21G<408.5 449.5> 427 85<259.5 291> 572 53<274.5 294 274.5 296.5> 694 52<270.5 286.5>
VStem: 20 122<200.5 254 200.5 271.5> 193 54<653.5 669.5 653.5 676> 315 53<645 664.5> 366 116<63.5 278.5>
LayerCount: 2
Fore
SplineSet
509 471 m 1,0,1
 482 355.5 482 355.5 482 240.25 c 128,-1,2
 482 125 482 125 508 12 c 1,3,4
 472 0 472 0 434 0 c 128,-1,5
 396 0 396 0 381 22.5 c 128,-1,6
 366 45 366 45 366 87.5 c 128,-1,7
 366 130 366 130 379 204 c 1,8,9
 308.161290323 51.6967741935 308.161290323 51.6967741935 242 12 c 0,10,11
 212 -6 212 -6 180 -6 c 0,12,13
 104 -6 104 -6 62 50.5 c 128,-1,14
 20 107 20 107 20 191 c 0,15,16
 20 319 20 319 91 415.5 c 128,-1,17
 162 512 162 512 275.5 512 c 128,-1,18
 389 512 389 512 509 471 c 1,0,1
378 411 m 1,19,20
 325 427 325 427 288 427 c 0,21,22
 213.4 427 213.4 427 176 394 c 1,23,24
 142 310 142 310 142 223 c 0,25,26
 142 177 142 177 156.5 130 c 128,-1,27
 171 83 171 83 201 83 c 0,28,29
 236 83 236 83 291 186 c 128,-1,30
 346 289 346 289 378 411 c 1,19,20
339 599 m 128,-1,32
 310 572 310 572 273.5 572 c 128,-1,33
 237 572 237 572 215 593.5 c 128,-1,34
 193 615 193 615 193 652.5 c 128,-1,35
 193 690 193 690 221 718 c 128,-1,36
 249 746 249 746 287 746 c 128,-1,37
 325 746 325 746 346.5 723 c 128,-1,38
 368 700 368 700 368 663 c 128,-1,31
 368 626 368 626 339 599 c 128,-1,32
258 636.5 m 128,-1,40
 269 625 269 625 283.5 625 c 128,-1,41
 298 625 298 625 306.5 633 c 128,-1,42
 315 641 315 641 315 655.5 c 128,-1,43
 315 670 315 670 303.5 682 c 128,-1,44
 292 694 292 694 277 694 c 128,-1,45
 262 694 262 694 252 688 c 1,46,47
 247 679 247 679 247 663.5 c 128,-1,39
 247 648 247 648 258 636.5 c 128,-1,40
EndSplineSet
EndChar

StartChar: oslash
Encoding: 248 248 164
Width: 540
Flags: HMW
HStem: -35 21G<87 105.5> -18 81<257 318 257 321.5> 437 81<258 291> 519 20G<432.5 452.5>
VStem: 34 122<253 305.5 253 306.5> 380 122<191.5 239.5>
LayerCount: 2
Fore
SplineSet
95 39 m 1,0,1
 34 103 34 103 34 225.5 c 128,-1,2
 34 348 34 348 103 433 c 128,-1,3
 172 518 172 518 280 518 c 0,4,5
 343 518 343 518 388 498 c 1,6,7
 397 517 397 517 412 528 c 128,-1,8
 427 539 427 539 442 539 c 0,9,10
 474 539 474 539 492 517 c 1,11,12
 478 502 478 502 445 456 c 1,13,14
 502 393 502 393 502 271.5 c 128,-1,15
 502 150 502 150 429.5 66 c 128,-1,16
 357 -18 357 -18 245 -18 c 0,17,18
 193 -18 193 -18 150 0 c 1,19,20
 127 -35 127 -35 95 -35 c 128,-1,21
 63 -35 63 -35 47 -13 c 1,22,23
 73 11 73 11 95 39 c 1,0,1
174 412 m 1,24,25
 156 353 156 353 156 269.5 c 128,-1,26
 156 186 156 186 173 137 c 1,27,28
 228 210 228 210 258.5 259.5 c 128,-1,29
 289 309 289 309 341 407 c 1,30,31
 318 437 318 437 277 437 c 0,32,33
 218 437 218 437 174 412 c 1,24,25
309 250 m 1,34,35
 248 158 248 158 204 87 c 1,36,37
 230 63 230 63 272 63 c 0,38,39
 336 63 336 63 358 102 c 128,-1,40
 380 141 380 141 380 218.5 c 128,-1,41
 380 296 380 296 369 344 c 1,42,43
 335 292 335 292 309 250 c 1,34,35
EndSplineSet
EndChar

StartChar: Thorn
Encoding: 222 222 165
Width: 587
Flags: HMW
HStem: 0 21G<128.5 164.5> 125 89<294 341.5 286.5 384> 498 84<282 335> 498 212<115.5 335>
VStem: 62 136<53.5 351> 82 116<340.5 351 253.5 476.5> 82 136 435 132<314.5 405>
LayerCount: 2
Fore
SplineSet
219 12 m 1,0,1
 186 0 186 0 150 0 c 0,2,3
 114 0 114 0 88 20.5 c 128,-1,4
 62 41 62 41 62 82.5 c 0,5,6
 62 124 62 124 72 229 c 128,-1,7
 82 334 82 334 82 447 c 0,8,9
 82 560 82 560 61 698 c 1,10,11
 94 710 94 710 130 710 c 0,12,13
 166 710 166 710 192 689.5 c 128,-1,14
 218 669 218 669 218 629 c 0,15,16
 218 611 218 611 216 577 c 1,17,18
 259 582 259 582 295 582 c 0,19,20
 417 582 417 582 492 530 c 128,-1,21
 567 478 567 478 567 373 c 0,22,23
 567 268 567 268 493 196.5 c 128,-1,24
 419 125 419 125 315 125 c 0,25,26
 239 125 239 125 239 183 c 0,27,28
 239 201 239 201 246 221 c 1,29,30
 273 214 273 214 295 214 c 0,31,32
 364 214 364 214 399.5 252 c 128,-1,33
 435 290 435 290 435 358 c 0,34,35
 435 426 435 426 396.5 462 c 128,-1,36
 358 498 358 498 291 498 c 0,37,38
 258 498 258 498 207 487 c 1,39,40
 198 402 198 402 198 275 c 0,41,42
 198 148 198 148 219 12 c 1,0,1
EndSplineSet
EndChar

StartChar: Aring
Encoding: 197 197 166
Width: 615
Flags: HMW
HStem: -6 21G<480 531.5> 0 21G<71 101.5> 192 90<269.5 275.5 253 305> 696 20G<287 337> 776 53<298.5 318 298.5 320.5> 898 52<294.5 310.5>
VStem: 10 121<17.5 123> 217 54<857.5 873.5 857.5 880> 339 53<849 868.5>
LayerCount: 2
Fore
SplineSet
224 702 m 1,0,1
 266 716 266 716 300 716 c 0,2,3
 352 716 352 716 381 679.5 c 128,-1,4
 410 643 410 643 426 576 c 0,5,6
 431 556 431 556 446.5 488 c 128,-1,7
 462 420 462 420 472 377.5 c 0,8,9
 502.791208791 246.637362637 502.791208791 246.637362637 528.395604396 174.818681319 c 128,-1,10
 554 103 554 103 610 60 c 1,11,12
 598 30 598 30 570.5 12 c 128,-1,13
 543 -6 543 -6 511 -6 c 0,14,15
 438 -6 438 -6 404 104 c 0,16,17
 388 155 388 155 375 204 c 1,18,19
 340 192 340 192 288.5 192 c 128,-1,20
 237 192 237 192 162 203 c 1,21,22
 131 82 131 82 131 21 c 0,23,24
 131 8 131 8 132 2 c 1,25,26
 119 0 119 0 88 0 c 128,-1,27
 57 0 57 0 33.5 19.5 c 128,-1,28
 10 39 10 39 10 75 c 0,29,30
 10 125 10 125 106 368 c 128,-1,31
 202 611 202 611 224 702 c 1,0,1
185 287 m 1,32,33
 225 282 225 282 266.5 282 c 128,-1,34
 308 282 308 282 355 291 c 1,35,36
 346 332 346 332 294 605 c 1,37,38
 232 444 232 444 185 287 c 1,32,33
363 803 m 128,-1,40
 334 776 334 776 297.5 776 c 128,-1,41
 261 776 261 776 239 797.5 c 128,-1,42
 217 819 217 819 217 856.5 c 128,-1,43
 217 894 217 894 245 922 c 128,-1,44
 273 950 273 950 311 950 c 128,-1,45
 349 950 349 950 370.5 927 c 128,-1,46
 392 904 392 904 392 867 c 128,-1,39
 392 830 392 830 363 803 c 128,-1,40
282 840.5 m 128,-1,48
 293 829 293 829 307.5 829 c 128,-1,49
 322 829 322 829 330.5 837 c 128,-1,50
 339 845 339 845 339 859.5 c 128,-1,51
 339 874 339 874 327.5 886 c 128,-1,52
 316 898 316 898 301 898 c 128,-1,53
 286 898 286 898 276 892 c 1,54,55
 271 883 271 883 271 867.5 c 128,-1,47
 271 852 271 852 282 840.5 c 128,-1,48
EndSplineSet
Substitution2: "'swsh' Swash in Latin lookup 3 subtable" Aring.swash
Substitution2: "'init' Initial Forms in Latin lookup 1 subtable" Aring.ini
EndChar

StartChar: braceleft
Encoding: 123 123 167
Width: 383
Flags: HMW
HStem: -124 66<209 304> 764 59<225.5 315>
VStem: 65 183 111 106<2.5 61.5 2.5 76> 111 223<-73 76> 128 89
LayerCount: 2
Fore
SplineSet
336 761 m 1,0,-1
 309 764 l 1,1,2
 274 762 274 762 246.5 737 c 128,-1,3
 219 712 219 712 219 662 c 0,4,5
 219 637 219 637 232.5 578.5 c 128,-1,6
 246 520 246 520 246 488 c 0,7,8
 246 383 246 383 145 342 c 1,9,10
 193 329 193 329 219.5 296 c 128,-1,11
 246 263 246 263 248 215 c 1,12,13
 247 182 247 182 232 121.5 c 128,-1,14
 217 61 217 61 217 25 c 128,-1,15
 217 -11 217 -11 240 -34.5 c 128,-1,16
 263 -58 263 -58 297 -58 c 0,17,18
 311 -58 311 -58 334 -51 c 1,19,20
 334 -84 334 -84 309.5 -104 c 128,-1,21
 285 -124 285 -124 245 -124 c 0,22,23
 187 -124 187 -124 149 -80.5 c 128,-1,24
 111 -37 111 -37 111 46 c 0,25,26
 111 75 111 75 119.5 121 c 128,-1,27
 128 167 128 167 128 204 c 0,28,29
 128 308 128 308 65 316 c 1,30,31
 65 351.052631579 65 351.052631579 87.5 370 c 0,32,33
 97 378 97 378 107 387.5 c 128,-1,34
 117 397 117 397 123.5 419 c 128,-1,35
 130 441 130 441 130 475 c 128,-1,36
 130 509 130 509 120 556.5 c 128,-1,37
 110 604 110 604 110 636 c 0,38,39
 110 725 110 725 156 774 c 128,-1,40
 202 823 202 823 262 823 c 0,41,42
 301 823 301 823 318.5 803.5 c 128,-1,43
 336 784 336 784 336 761 c 1,0,-1
EndSplineSet
EndChar

StartChar: braceright
Encoding: 125 125 168
Width: 383
Flags: HMW
HStem: -123 59<68 157.5> 758 66<79 174>
VStem: 49 223<624 773> 135 183 166 89 166 106<638.5 697.5>
LayerCount: 2
Fore
SplineSet
47 -61 m 1,0,-1
 74 -64 l 1,1,2
 109 -62 109 -62 136.5 -37 c 128,-1,3
 164 -12 164 -12 164 38 c 0,4,5
 164 63 164 63 150.5 121.5 c 128,-1,6
 137 180 137 180 137 212 c 0,7,8
 137 317 137 317 238 358 c 1,9,10
 190 371 190 371 163.5 404 c 128,-1,11
 137 437 137 437 135 485 c 1,12,13
 136 518 136 518 151 578.5 c 128,-1,14
 166 639 166 639 166 675 c 128,-1,15
 166 711 166 711 143 734.5 c 128,-1,16
 120 758 120 758 86 758 c 0,17,18
 72 758 72 758 49 751 c 1,19,20
 49 784 49 784 73.5 804 c 128,-1,21
 98 824 98 824 138 824 c 0,22,23
 196 824 196 824 234 780.5 c 128,-1,24
 272 737 272 737 272 654 c 0,25,26
 272 625 272 625 263.5 579 c 128,-1,27
 255 533 255 533 255 496 c 0,28,29
 255 392 255 392 318 384 c 1,30,31
 318 348.947368421 318 348.947368421 295.5 330 c 0,32,33
 286 322 286 322 276 312.5 c 128,-1,34
 266 303 266 303 259.5 281 c 128,-1,35
 253 259 253 259 253 225 c 128,-1,36
 253 191 253 191 263 143.5 c 128,-1,37
 273 96 273 96 273 64 c 0,38,39
 273 -25 273 -25 227 -74 c 128,-1,40
 181 -123 181 -123 121 -123 c 0,41,42
 82 -123 82 -123 64.5 -103.5 c 128,-1,43
 47 -84 47 -84 47 -61 c 1,0,-1
EndSplineSet
EndChar

StartChar: bracketleft
Encoding: 91 91 169
Width: 358
Flags: HMW
HStem: -103 21G<211 250.5> 717 90<107 258> 797 20G
VStem: 55 105 72 88<301.5 436 256 475.5> 72 101 72 231
LayerCount: 2
Fore
SplineSet
283 5 m 1,0,1
 293 -15 293 -15 293 -41.5 c 0,2,3
 293 -68 293 -68 276 -85.5 c 128,-1,4
 259 -103 259 -103 234 -103 c 0,5,6
 149 -103 149 -103 94 -98 c 0,7,8
 55 -95 55 -95 55 -59.5 c 0,9,10
 55 -24 55 -24 63.5 133 c 128,-1,11
 72 290 72 290 72 462 c 0,12,13
 72 634 72 634 61 799 c 1,14,15
 83 807 83 807 107 807 c 2,16,-1
 153 807 l 2,17,18
 243 807 243 807 293 817 c 1,19,20
 303 801 303 801 303 779.5 c 0,21,22
 303 758 303 758 284.5 737.5 c 128,-1,23
 266 717 266 717 231.5 717 c 0,24,25
 197 717 197 717 173 720 c 1,26,27
 172 685 172 685 166 568.5 c 128,-1,28
 160 452 160 452 160 289.5 c 0,29,30
 160 127 160 127 167 -18 c 1,31,32
 228 -18 228 -18 283 5 c 1,0,1
EndSplineSet
EndChar

StartChar: bracketright
Encoding: 93 93 170
Width: 358
Flags: HMW
HStem: -103 20 -93 90<100 205 100 251> 796 21
VStem: 55 231 185 101 198 88<278 412.5 238.5 458> 198 105
LayerCount: 2
Fore
SplineSet
75 709 m 1,0,1
 65 729 65 729 65 755.5 c 0,2,3
 65 782 65 782 82 799.5 c 128,-1,4
 99 817 99 817 124 817 c 0,5,6
 209 817 209 817 264 812 c 0,7,8
 303 809 303 809 303 773.5 c 0,9,10
 303 738 303 738 294.5 581 c 128,-1,11
 286 424 286 424 286 252 c 0,12,13
 286 80 286 80 297 -85 c 1,14,15
 275 -93 275 -93 251 -93 c 2,16,-1
 205 -93 l 2,17,18
 115 -93 115 -93 65 -103 c 1,19,20
 55 -87 55 -87 55 -65.5 c 0,21,22
 55 -44 55 -44 73.5 -23.5 c 128,-1,23
 92 -3 92 -3 126.5 -3 c 0,24,25
 161 -3 161 -3 185 -6 c 1,26,27
 186 29 186 29 192 145.5 c 128,-1,28
 198 262 198 262 198 424.5 c 0,29,30
 198 587 198 587 191 732 c 1,31,32
 130 732 130 732 75 709 c 1,0,1
EndSplineSet
EndChar

StartChar: S.swash
Encoding: 65537 -1 171
Width: 562
Flags: HMW
HStem: -212 92<223 304 223 314.5> 485 233<260 433.5> 626 92<274 317.5>
VStem: 2 137<-44 -22> 54 85 54 132<429.5 545 429.5 566> 382 125<521 632> 418 89 418 126<4.5 168.5>
LayerCount: 2
Fore
SplineSet
157 51 m 1,0,1
 139 19 139 19 139 -20 c 0,2,3
 139 -59 139 -59 173 -89.5 c 128,-1,4
 207 -120 207 -120 259 -120 c 0,5,6
 327 -120 327 -120 372.5 -70 c 128,-1,7
 418 -20 418 -20 418 54 c 0,8,9
 418 100 418 100 398 136.5 c 128,-1,10
 378 173 378 173 346 197 c 128,-1,11
 314 221 314 221 275 242 c 128,-1,12
 236 263 236 263 197 284.5 c 128,-1,13
 158 306 158 306 126 331.5 c 128,-1,14
 94 357 94 357 74 397 c 128,-1,15
 54 437 54 437 54 487 c 0,16,17
 54 596 54 596 136.5 657 c 128,-1,18
 219 718 219 718 318 718 c 0,19,20
 392 718 392 718 449.5 683.5 c 128,-1,21
 507 649 507 649 507 589 c 0,22,23
 507 545 507 545 477.5 515 c 128,-1,24
 448 485 448 485 405 485 c 0,25,26
 391.5 485 391.5 485 378 488 c 1,27,28
 382 508 382 508 382 527 c 0,29,30
 382 626 382 626 285 626 c 0,31,32
 249 626 249 626 218 612 c 1,33,34
 186 582 186 582 186 534.5 c 0,35,36
 186 487 186 487 205.5 457 c 128,-1,37
 225 427 225 427 257 407 c 128,-1,38
 289 387 289 387 327 368.5 c 128,-1,39
 365 350 365 350 403 327.5 c 128,-1,40
 441 305 441 305 473 276.5 c 128,-1,41
 505 248 505 248 524.5 201.5 c 128,-1,42
 544 155 544 155 544 95 c 0,43,44
 544 -42 544 -42 452.5 -127 c 128,-1,45
 361 -212 361 -212 230 -212 c 0,46,47
 136 -212 136 -212 69 -168 c 128,-1,48
 2 -124 2 -124 2 -51 c 0,49,50
 2 -4 2 -4 30.5 28.5 c 128,-1,51
 59 61 59 61 110 61 c 0,52,53
 136 61 136 61 157 51 c 1,0,1
EndSplineSet
EndChar

StartChar: OE
Encoding: 338 338 172
Width: 1003
Flags: HMW
HStem: -12 94<289 368> -6 21G<846.5 914.5> 6 76 6 88 305 111<753 861.5> 330 86<647 803> 592 112 612 92<657 693> 630 74 630 92<309 403>
VStem: 30 132<269 382 269 436.5> 530 117<303 330 290 437>
LayerCount: 2
Fore
SplineSet
961 138 m 1,0,1
 973 111 973 111 973 77 c 128,-1,2
 973 43 973 43 949.5 18.5 c 128,-1,3
 926 -6 926 -6 892 -6 c 0,4,5
 794 -6 794 -6 590 6 c 0,6,7
 572 7 572 7 558 17.5 c 128,-1,8
 544 28 544 28 544 44 c 2,9,-1
 544 89 l 1,10,11
 456 -12 456 -12 319 -12 c 128,-1,12
 182 -12 182 -12 106 84.5 c 128,-1,13
 30 181 30 181 30 337.5 c 128,-1,14
 30 494 30 494 124 608 c 128,-1,15
 218 722 218 722 370 722 c 0,16,17
 478 722 478 722 548 650 c 1,18,-1
 540 710 l 1,19,20
 600 704 600 704 660 704 c 0,21,22
 834 704 834 704 948 722 c 1,23,24
 960 700 960 700 960 669.5 c 128,-1,25
 960 639 960 639 936.5 615.5 c 128,-1,26
 913 592 913 592 878.5 592 c 128,-1,27
 844 592 844 592 768.5 602 c 128,-1,28
 693 612 693 612 657 612 c 1,29,30
 649 511 649 511 648 422 c 1,31,32
 711 416 711 416 783.5 416 c 128,-1,33
 856 416 856 416 908 437 c 1,34,35
 920 415 920 415 920 384.5 c 128,-1,36
 920 354 920 354 896.5 329.5 c 128,-1,37
 873 305 873 305 840.5 305 c 128,-1,38
 808 305 808 305 744 317.5 c 128,-1,39
 680 330 680 330 647 330 c 1,40,41
 647 172 647 172 654 98 c 1,42,43
 702 94 702 94 729 94 c 0,44,45
 861 94 861 94 961 138 c 1,0,1
530 364 m 0,46,47
 530 483 530 483 481.5 556.5 c 128,-1,48
 433 630 433 630 330 630 c 0,49,50
 268 630 268 630 220 590 c 1,51,52
 193 548 193 548 177.5 477 c 128,-1,53
 162 406 162 406 162 342 c 0,54,55
 162 224 162 224 210 153 c 128,-1,56
 258 82 258 82 362 82 c 0,57,58
 419 82 419 82 459 128.5 c 0,59,60
 530 211.0375 530 211.0375 530 364 c 0,46,47
EndSplineSet
EndChar

StartChar: AE
Encoding: 198 198 173
Width: 826
Flags: HMW
HStem: -6 100<539 736> 0 21G<66.5 94.5> 6 88<448.5 586> 192 90<277.5 288.5 266 313> 313 103<577.5 685.5> 329 87 592 112<582 724.5> 609 95<467 657> 609 107<355 514.5> 702 20G
VStem: 10 118
LayerCount: 2
Fore
SplineSet
203 287 m 1,0,1
 243 282 243 282 290 282 c 128,-1,2
 337 282 337 282 384 291 c 1,3,4
 380 322 380 322 373 386.5 c 0,5,6
 357.620437956 528.211678832 357.620437956 528.211678832 342 611 c 1,7,8
 307.028901734 545.826589595 307.028901734 545.826589595 261.014450867 430.413294798 c 128,-1,9
 215 315 215 315 203 287 c 1,0,1
460 6 m 0,10,11
 420.818181818 6 420.818181818 6 413 49 c 0,12,13
 407.8 77.6 407.8 77.6 392 204 c 1,14,15
 357 192 357 192 303.5 192 c 128,-1,16
 250 192 250 192 175 203 c 1,17,18
 134 84 134 84 128 7 c 1,19,20
 105 0 105 0 79 0 c 128,-1,21
 53 0 53 0 31.5 16.5 c 128,-1,22
 10 33 10 33 10 68 c 128,-1,23
 10 103 10 103 58 208.5 c 128,-1,24
 106 314 106 314 175 460.5 c 128,-1,25
 244 607 244 607 277 702 c 1,26,27
 324 716 324 716 366.5 716 c 128,-1,28
 409 716 409 716 494 710 c 128,-1,29
 579 704 579 704 646 704 c 128,-1,30
 713 704 713 704 771 722 c 1,31,32
 783 700 783 700 783 670.5 c 128,-1,33
 783 641 783 641 759.5 616.5 c 128,-1,34
 736 592 736 592 703 592 c 128,-1,35
 670 592 670 592 594 600.5 c 128,-1,36
 518 609 518 609 467 609 c 1,37,38
 482 487 482 487 491 421 c 1,39,40
 538 416 538 416 609.5 416 c 128,-1,41
 681 416 681 416 731 431 c 1,42,43
 743 411 743 411 743 382 c 128,-1,44
 743 353 743 353 720.5 333 c 128,-1,45
 698 313 698 313 664.5 313 c 128,-1,46
 631 313 631 313 578.5 320.5 c 128,-1,47
 526 328 526 328 502 329 c 1,48,49
 523 173 523 173 539 94 c 1,50,51
 687 94 687 94 787 138 c 1,52,53
 796 110 796 110 796 74 c 128,-1,54
 796 38 796 38 771.5 16 c 128,-1,55
 747 -6 747 -6 713.5 -6 c 128,-1,56
 680 -6 680 -6 595 0 c 128,-1,57
 510 6 510 6 460 6 c 0,10,11
EndSplineSet
EndChar

StartChar: percent
Encoding: 65538 -1 174
Width: 861
Flags: HMW
HStem: -17 21G<219 249.5> -6 76<639 684 639 694> 274 76<648.5 681.5> 300 76<181 226 181 236> 580 76<190.5 223.5> 642 20G<608.5 638>
VStem: 50 95<445 488 445 518> 258 95<466 511.5> 508 95<139 182 139 212> 716 95<160 205.5>
LayerCount: 2
Fore
SplineSet
169 6 m 1,0,1
 245 73 245 73 361 289 c 1,2,3
 502 547 502 547 543 604.5 c 128,-1,4
 584 662 584 662 624.5 662 c 128,-1,5
 665 662 665 662 686 639 c 1,6,7
 613 573 613 573 504 371 c 0,8,9
 358 99 358 99 316 41 c 128,-1,10
 274 -17 274 -17 233 -17 c 128,-1,11
 192 -17 192 -17 169 6 c 1,0,1
245.5 411.5 m 128,-1,13
 258 447 258 447 258 489 c 128,-1,14
 258 531 258 531 245.5 555.5 c 128,-1,15
 233 580 233 580 204.5 580 c 128,-1,16
 176 580 176 580 159 566 c 1,17,18
 145 524 145 524 145 470 c 0,19,20
 145 376 145 376 206 376 c 0,21,12
 233 376 233 376 245.5 411.5 c 128,-1,13
353 492 m 0,22,23
 353 409 353 409 307 354.5 c 128,-1,24
 261 300 261 300 182 300 c 0,25,26
 50 300 50 300 50 464 c 0,27,28
 50 547 50 547 97 601.5 c 128,-1,29
 144 656 144 656 222 656 c 0,30,31
 353 656 353 656 353 492 c 0,22,23
703.5 105.5 m 128,-1,33
 716 141 716 141 716 183 c 128,-1,34
 716 225 716 225 703.5 249.5 c 128,-1,35
 691 274 691 274 662.5 274 c 128,-1,36
 634 274 634 274 617 260 c 1,37,38
 603 218 603 218 603 164 c 0,39,40
 603 70 603 70 664 70 c 0,41,32
 691 70 691 70 703.5 105.5 c 128,-1,33
811 186 m 0,42,43
 811 103 811 103 765 48.5 c 128,-1,44
 719 -6 719 -6 640 -6 c 0,45,46
 508 -6 508 -6 508 158 c 0,47,48
 508 241 508 241 555 295.5 c 128,-1,49
 602 350 602 350 680 350 c 0,50,51
 811 350 811 350 811 186 c 0,42,43
EndSplineSet
EndChar

StartChar: fraction
Encoding: 8260 8260 175
Width: 587
Flags: HMW
HStem: -17 21G<85 115.5> 642 20G<474.5 504>
LayerCount: 2
Fore
SplineSet
35 6 m 1,0,1
 111 73 111 73 227 289 c 1,2,3
 368 547 368 547 409 604.5 c 0,4,5
 450 662 450 662 490.5 662 c 0,6,7
 531 662 531 662 552 639 c 1,8,9
 479 573 479 573 370 371 c 0,10,11
 224 99 224 99 182 41 c 0,12,13
 140 -17 140 -17 99 -17 c 0,14,15
 58 -17 58 -17 35 6 c 1,0,1
EndSplineSet
EndChar

StartChar: backslash
Encoding: 92 92 176
Width: 585
Flags: HMW
HStem: -6 21G<448.5 481> 696 20G<102 133.5>
LayerCount: 2
Fore
SplineSet
36 676 m 1,0,1
 63 716 63 716 115.5 716 c 128,-1,2
 168 716 168 716 206 651 c 0,3,4
 223.148148148 622.419753086 223.148148148 622.419753086 290.074074074 487.709876543 c 128,-1,5
 357 353 357 353 363 341 c 128,-1,6
 369 329 369 329 389.5 288.5 c 128,-1,7
 410 248 410 248 417 234.5 c 128,-1,8
 424 221 424 221 444 184.5 c 128,-1,9
 464 148 464 148 477 127.5 c 0,10,11
 515.706214689 66.4632768362 515.706214689 66.4632768362 545 32 c 1,12,13
 518 -6 518 -6 465 -6 c 128,-1,14
 412 -6 412 -6 377 58 c 0,15,16
 366 79 366 79 304.5 213 c 128,-1,17
 243 347 243 347 231 369.5 c 128,-1,18
 219 392 219 392 198.5 430.5 c 128,-1,19
 178 469 178 469 170 484 c 128,-1,20
 162 499 162 499 141 534.5 c 128,-1,21
 120 570 120 570 106 590.5 c 0,22,23
 68.4979919679 645.413654618 68.4979919679 645.413654618 36 676 c 1,0,1
EndSplineSet
EndChar

StartChar: Oslash
Encoding: 216 216 177
Width: 692
Flags: HMW
HStem: -12 91<335 423.5 335 426.5> 633 89<308.5 360> 696 20G<577.5 599.5>
VStem: 30 130<309.5 382.5 309.5 436.5> 532 130<302.5 393>
LayerCount: 2
Fore
SplineSet
116 72 m 1,0,1
 30 167 30 167 30 330.5 c 128,-1,2
 30 494 30 494 124 608 c 128,-1,3
 218 722 218 722 370 722 c 0,4,5
 459 722 459 722 528 677 c 1,6,7
 528 678 528 678 530 680 c 0,8,9
 554 716 554 716 589.5 716 c 128,-1,10
 625 716 625 716 644 694 c 1,11,12
 610 658 610 658 584 625 c 1,13,14
 662 531 662 531 662 371.5 c 128,-1,15
 662 212 662 212 568 100 c 128,-1,16
 474 -12 474 -12 322 -12 c 0,17,18
 235 -12 235 -12 173 26 c 1,19,20
 146 -12 146 -12 111 -12 c 128,-1,21
 76 -12 76 -12 58 10 c 1,22,23
 81 28 81 28 116 72 c 1,0,1
194 174 m 1,24,25
 268 275 268 275 319.5 353 c 128,-1,26
 371 431 371 431 466 579 c 1,27,28
 415 633 415 633 330 633 c 0,29,30
 266 633 266 633 219 592 c 1,31,32
 191 550 191 550 175.5 478.5 c 128,-1,33
 160 407 160 407 160 342 c 0,34,35
 160 238 160 238 194 174 c 1,24,25
504 519 m 1,36,37
 420.123584906 402.574528302 420.123584906 402.574528302 235 121 c 1,38,39
 283 79 283 79 362 79 c 0,40,41
 420 79 420 79 460 126 c 0,42,43
 532 210.6 532 210.6 532 364 c 0,44,45
 532 454 532 454 504 519 c 1,36,37
EndSplineSet
Substitution2: "'swsh' Swash in Latin lookup 3 subtable" Oslash.swash
EndChar

StartChar: eth
Encoding: 240 240 178
Width: 538
Flags: HMW
HStem: -18 81<220.5 277 220.5 338.5> 406 90<252 284> 497 20G<200 211> 639 20G<145 160> 730 20G<200 245 434 445>
VStem: 30 124<190.5 264 190.5 301.5> 395 113<265.5 317>
LayerCount: 2
Fore
SplineSet
145 659 m 1,0,1
 145 698 145 698 167 724 c 128,-1,2
 189 750 189 750 225 750 c 0,3,4
 292 750 292 750 364 692 c 1,5,6
 412 719 412 719 434 750 c 1,7,8
 451 750 451 750 463.5 739 c 128,-1,9
 476 728 476 728 476 712 c 0,10,11
 476 674 476 674 416 639 c 1,12,13
 508 520 508 520 508 342 c 0,14,15
 508 164 508 164 444 73 c 128,-1,16
 380 -18 380 -18 256 -18 c 0,17,18
 152 -18 152 -18 91 49 c 128,-1,19
 30 116 30 116 30 229 c 0,20,21
 30 342 30 342 103.5 419 c 128,-1,22
 177 496 177 496 297 496 c 0,23,24
 330 496 330 496 367 489 c 1,25,26
 350 551 350 551 308 590 c 1,27,28
 236 553 236 553 211 517 c 1,29,30
 194 517 194 517 181.5 528 c 128,-1,31
 169 539 169 539 169 558 c 0,32,33
 169 577 169 577 188.5 594.5 c 128,-1,34
 208 612 208 612 248 635 c 1,35,36
 190 659 190 659 145 659 c 1,0,1
386 391 m 1,37,38
 323 406 323 406 268.5 406 c 0,39,40
 214 406 214 406 180 379 c 1,41,42
 154 315 154 315 154 239 c 0,43,44
 154 163 154 163 180 113 c 128,-1,45
 206 63 206 63 256 63 c 0,46,47
 306 63 306 63 356 99 c 1,48,49
 395 173 395 173 395 302 c 0,50,51
 395 363 395 363 386 391 c 1,37,38
EndSplineSet
EndChar

